<?xml version="1.0" encoding="UTF-8"?>
<svg xmlns="http://www.w3.org/2000/svg" xmlns:xlink="http://www.w3.org/1999/xlink" width="400px" height="px" viewBox="0 0 397 66" version="1.1">
<g id="surface1">
<path style=" stroke:none;fill-rule:nonzero;fill:rgb(0%,66.666667%,94.901961%);fill-opacity:1;" d="M 65.992188 50.308594 L 65.992188 64.1875 C 65.992188 65.8125 65.492188 66.144531 63.953125 65.894531 C 53.636719 64.351562 43.191406 62.9375 32.789062 61.476562 C 30.917969 61.226562 30.25 60.5625 30.25 58.519531 C 30.417969 51.144531 30.332031 43.726562 30.25 36.265625 C 30.25 34.640625 30.75 34.140625 32.371094 34.140625 C 43.023438 34.226562 53.511719 34.226562 63.953125 34.226562 C 65.660156 34.226562 66.078125 34.890625 66.078125 36.433594 C 65.910156 41.101562 65.992188 45.683594 65.992188 50.308594 Z M 65.992188 50.308594 "/>
<path style=" stroke:none;fill-rule:nonzero;fill:rgb(0%,66.666667%,94.901961%);fill-opacity:1;" d="M 48.308594 31.558594 C 43.066406 31.558594 37.824219 31.472656 32.582031 31.558594 C 30.957031 31.558594 30.292969 31.222656 30.292969 29.347656 C 30.375 21.804688 30.375 14.390625 30.292969 6.929688 C 30.292969 5.472656 30.792969 4.972656 32.164062 4.722656 C 42.898438 3.179688 53.636719 1.679688 64.371094 0.0546875 C 66.242188 -0.195312 65.910156 1.054688 65.910156 2.097656 C 65.910156 8.761719 65.992188 15.554688 65.910156 22.222656 C 65.910156 24.683594 65.828125 27.140625 65.910156 29.597656 C 65.992188 31.140625 65.410156 31.558594 63.953125 31.558594 C 58.792969 31.472656 53.550781 31.558594 48.308594 31.558594 Z M 48.308594 31.558594 "/>
<path style=" stroke:none;fill-rule:nonzero;fill:rgb(0%,66.666667%,94.901961%);fill-opacity:1;" d="M 13.605469 34.351562 L 25.339844 34.351562 C 26.589844 34.351562 27.128906 34.765625 27.128906 36.058594 L 27.128906 59.226562 C 27.128906 60.5625 26.546875 60.6875 25.339844 60.5625 C 17.558594 59.394531 9.777344 58.269531 2.039062 57.1875 C 0.5 56.9375 0 56.4375 0 54.8125 C 0.0820312 48.644531 0.0820312 42.476562 0 36.183594 C 0 34.640625 0.417969 34.226562 1.957031 34.226562 C 5.910156 34.351562 9.695312 34.351562 13.605469 34.351562 Z M 13.605469 34.351562 "/>
<path style=" stroke:none;fill-rule:nonzero;fill:rgb(0%,66.666667%,94.901961%);fill-opacity:1;" d="M 13.605469 31.558594 L 2.039062 31.558594 C 0.582031 31.558594 0.0820312 31.058594 0.0820312 29.515625 C 0.167969 23.433594 0.167969 17.347656 0.0820312 11.222656 C 0.0820312 9.761719 0.5 9.261719 2.039062 9.011719 C 9.820312 8.011719 17.601562 6.886719 25.339844 5.636719 C 27.128906 5.386719 27.296875 5.972656 27.296875 7.429688 L 27.296875 29.597656 C 27.296875 31.222656 26.628906 31.472656 25.175781 31.472656 C 21.304688 31.472656 17.394531 31.558594 13.605469 31.558594 Z M 13.605469 31.558594 "/>
<path style=" stroke:none;fill-rule:nonzero;fill:rgb(0%,66.666667%,94.901961%);fill-opacity:1;" d="M 95.203125 13.015625 C 95.121094 11.761719 95.035156 10.136719 95.035156 8.972656 L 94.953125 8.972656 C 94.703125 10.054688 94.203125 11.347656 93.789062 12.597656 L 92.164062 17.097656 L 91.25 17.097656 L 89.792969 12.679688 C 89.378906 11.511719 89.046875 10.222656 88.710938 9.054688 C 88.628906 10.136719 88.628906 11.761719 88.546875 13.179688 L 88.296875 17.140625 L 87.214844 17.140625 L 87.878906 7.761719 L 89.417969 7.761719 L 91.042969 12.347656 C 91.457031 13.429688 91.707031 14.554688 91.957031 15.554688 L 92.042969 15.554688 C 92.289062 14.640625 92.625 13.515625 93.039062 12.347656 L 94.746094 7.761719 L 96.285156 7.761719 L 96.867188 17.140625 L 95.535156 17.140625 Z M 95.203125 13.015625 "/>
<path style=" stroke:none;fill-rule:nonzero;fill:rgb(0%,66.666667%,94.901961%);fill-opacity:1;" d="M 100.03125 8.511719 C 100.03125 8.929688 99.699219 9.261719 99.28125 9.261719 L 99.199219 9.261719 C 98.78125 9.261719 98.449219 8.929688 98.449219 8.511719 C 98.449219 8.097656 98.78125 7.761719 99.199219 7.761719 C 99.699219 7.761719 100.03125 8.097656 100.03125 8.511719 Z M 98.699219 17.179688 L 98.699219 10.511719 L 99.945312 10.511719 L 99.945312 17.179688 Z M 98.699219 17.179688 "/>
<path style=" stroke:none;fill-rule:nonzero;fill:rgb(0%,66.666667%,94.901961%);fill-opacity:1;" d="M 106.6875 16.890625 C 106.105469 17.140625 105.441406 17.304688 104.730469 17.304688 C 102.691406 17.304688 101.363281 15.972656 101.363281 13.847656 C 101.277344 11.886719 102.691406 10.304688 104.648438 10.222656 L 104.980469 10.222656 C 105.5625 10.222656 106.148438 10.304688 106.6875 10.554688 L 106.4375 11.472656 C 106.023438 11.304688 105.523438 11.136719 104.980469 11.222656 C 103.441406 11.222656 102.609375 12.304688 102.609375 13.765625 C 102.609375 15.390625 103.609375 16.304688 104.980469 16.304688 C 105.480469 16.304688 105.980469 16.222656 106.4375 15.972656 Z M 106.6875 16.890625 "/>
<path style=" stroke:none;fill-rule:nonzero;fill:rgb(0%,66.666667%,94.901961%);fill-opacity:1;" d="M 108.0625 12.515625 C 108.0625 11.761719 107.976562 11.054688 107.976562 10.472656 L 109.058594 10.472656 L 109.144531 11.804688 L 109.226562 11.804688 C 109.476562 10.972656 110.226562 10.347656 111.097656 10.347656 C 111.179688 10.347656 111.347656 10.347656 111.429688 10.429688 L 111.429688 11.511719 C 111.347656 11.429688 111.179688 11.429688 111.015625 11.429688 C 110.183594 11.429688 109.558594 12.097656 109.390625 13.054688 C 109.390625 13.222656 109.308594 13.390625 109.308594 13.554688 L 109.308594 17.179688 L 108.144531 17.179688 Z M 108.0625 12.515625 "/>
<path style=" stroke:none;fill-rule:nonzero;fill:rgb(0%,66.666667%,94.901961%);fill-opacity:1;" d="M 118.628906 13.765625 C 118.714844 15.554688 117.382812 17.140625 115.59375 17.222656 L 115.34375 17.222656 C 113.554688 17.222656 112.136719 15.890625 112.136719 13.765625 C 112.136719 11.472656 113.679688 10.222656 115.507812 10.222656 C 117.171875 10.222656 118.628906 11.679688 118.628906 13.765625 Z M 113.304688 13.765625 C 113.304688 15.097656 113.96875 16.304688 115.34375 16.304688 C 116.675781 16.304688 117.382812 15.054688 117.382812 13.765625 C 117.382812 12.597656 116.882812 11.136719 115.34375 11.136719 C 113.71875 11.222656 113.304688 12.597656 113.304688 13.765625 Z M 113.304688 13.765625 "/>
<path style=" stroke:none;fill-rule:nonzero;fill:rgb(0%,66.666667%,94.901961%);fill-opacity:1;" d="M 119.960938 15.890625 C 120.460938 16.222656 120.960938 16.390625 121.585938 16.390625 C 122.417969 16.390625 122.832031 15.972656 122.832031 15.390625 C 122.832031 14.890625 122.5 14.554688 121.585938 14.140625 C 120.417969 13.722656 119.792969 13.054688 119.792969 12.179688 C 119.792969 11.097656 120.628906 10.222656 122.082031 10.222656 C 122.664062 10.222656 123.25 10.386719 123.789062 10.636719 L 123.539062 11.472656 C 123.125 11.222656 122.625 11.054688 122.207031 11.054688 C 121.625 10.972656 121.125 11.386719 121.125 11.972656 C 121.125 12.472656 121.542969 12.722656 122.375 13.054688 C 123.457031 13.472656 124.164062 14.054688 124.164062 15.097656 C 124.164062 16.265625 123.25 17.140625 121.625 17.140625 C 120.960938 17.140625 120.378906 16.972656 119.753906 16.640625 Z M 119.960938 15.890625 "/>
<path style=" stroke:none;fill-rule:nonzero;fill:rgb(0%,66.666667%,94.901961%);fill-opacity:1;" d="M 131.695312 13.765625 C 131.777344 15.554688 130.445312 17.140625 128.65625 17.222656 L 128.40625 17.222656 C 126.617188 17.222656 125.203125 15.890625 125.203125 13.765625 C 125.203125 11.472656 126.742188 10.222656 128.574219 10.222656 C 130.28125 10.222656 131.695312 11.679688 131.695312 13.765625 Z M 126.410156 13.765625 C 126.410156 15.097656 127.078125 16.304688 128.449219 16.304688 C 129.824219 16.304688 130.488281 15.054688 130.488281 13.765625 C 130.488281 12.597656 129.988281 11.136719 128.449219 11.136719 C 126.910156 11.136719 126.410156 12.597656 126.410156 13.765625 Z M 126.410156 13.765625 "/>
<path style=" stroke:none;fill-rule:nonzero;fill:rgb(0%,66.666667%,94.901961%);fill-opacity:1;" d="M 133.316406 17.179688 L 133.316406 11.347656 L 132.402344 11.347656 L 132.402344 10.429688 L 133.316406 10.429688 L 133.316406 10.097656 C 133.234375 9.261719 133.484375 8.386719 134.066406 7.722656 C 134.484375 7.304688 135.066406 7.054688 135.691406 7.054688 C 136.023438 7.054688 136.355469 7.136719 136.6875 7.222656 L 136.523438 8.136719 C 136.273438 8.054688 136.023438 7.972656 135.773438 7.972656 C 134.773438 7.972656 134.523438 8.886719 134.523438 9.929688 L 134.523438 10.347656 L 136.148438 10.347656 L 136.148438 11.261719 L 134.523438 11.261719 L 134.523438 17.015625 Z M 133.316406 17.179688 "/>
<path style=" stroke:none;fill-rule:nonzero;fill:rgb(0%,66.666667%,94.901961%);fill-opacity:1;" d="M 138.894531 8.429688 L 138.894531 10.386719 L 140.683594 10.386719 L 140.683594 11.304688 L 138.894531 11.304688 L 138.894531 14.929688 C 138.894531 15.765625 139.144531 16.179688 139.808594 16.179688 C 140.058594 16.179688 140.308594 16.179688 140.476562 16.097656 L 140.558594 17.015625 C 140.226562 17.179688 139.890625 17.179688 139.476562 17.179688 C 138.976562 17.179688 138.5625 17.015625 138.144531 16.679688 C 137.8125 16.179688 137.644531 15.515625 137.730469 14.890625 L 137.730469 11.179688 L 136.730469 11.179688 L 136.730469 10.261719 L 137.730469 10.261719 L 137.730469 8.636719 Z M 138.894531 8.429688 "/>
<path style=" stroke:none;fill-rule:nonzero;fill:rgb(0%,66.666667%,94.901961%);fill-opacity:1;" d="M 94.453125 42.640625 L 91.25 52.558594 L 87.007812 52.558594 L 97.742188 21.054688 L 102.570312 21.054688 L 113.304688 52.519531 L 108.976562 52.519531 L 105.605469 42.601562 L 94.453125 42.601562 Z M 104.773438 39.515625 L 101.734375 30.472656 C 101.070312 28.433594 100.570312 26.515625 100.113281 24.722656 L 99.945312 24.722656 C 99.53125 26.597656 99.03125 28.515625 98.40625 30.390625 L 95.371094 39.515625 Z M 104.773438 39.515625 "/>
<path style=" stroke:none;fill-rule:nonzero;fill:rgb(0%,66.666667%,94.901961%);fill-opacity:1;" d="M 133.234375 51.769531 C 131.195312 52.683594 128.992188 53.101562 126.742188 53.101562 C 120.003906 53.101562 115.507812 48.433594 115.507812 41.601562 C 115.507812 34.765625 120.335938 29.597656 127.574219 29.597656 C 129.53125 29.597656 131.445312 29.933594 133.234375 30.765625 L 132.320312 33.890625 C 130.863281 33.140625 129.199219 32.808594 127.492188 32.808594 C 122.332031 32.808594 119.546875 36.683594 119.546875 41.351562 C 119.546875 46.601562 122.914062 49.808594 127.410156 49.808594 C 129.117188 49.808594 130.863281 49.476562 132.402344 48.726562 Z M 133.234375 51.769531 "/>
<path style=" stroke:none;fill-rule:nonzero;fill:rgb(0%,66.666667%,94.901961%);fill-opacity:1;" d="M 143.636719 23.515625 L 143.636719 30.015625 L 149.460938 30.015625 L 149.460938 33.058594 L 143.636719 33.058594 L 143.636719 45.226562 C 143.636719 48.019531 144.386719 49.644531 146.675781 49.644531 C 147.425781 49.644531 148.296875 49.558594 149.046875 49.394531 L 149.214844 52.433594 C 148.464844 52.851562 147.175781 53.019531 145.511719 53.019531 C 143.804688 53.101562 142.222656 52.433594 141.097656 51.308594 C 140.015625 49.976562 139.558594 48.101562 139.558594 45.394531 L 139.558594 33.058594 L 136.023438 33.058594 L 136.023438 30.015625 L 139.476562 30.015625 L 139.476562 24.515625 Z M 143.636719 23.515625 "/>
<path style=" stroke:none;fill-rule:nonzero;fill:rgb(0%,66.666667%,94.901961%);fill-opacity:1;" d="M 158.660156 23.683594 C 158.660156 25.015625 157.660156 26.140625 156.285156 26.222656 L 156.121094 26.222656 C 154.789062 26.222656 153.664062 25.222656 153.664062 23.933594 L 153.664062 23.765625 C 153.582031 22.429688 154.664062 21.222656 156.035156 21.222656 L 156.203125 21.222656 C 157.578125 21.054688 158.660156 22.222656 158.660156 23.683594 C 158.660156 23.597656 158.660156 23.597656 158.660156 23.683594 Z M 154.125 52.601562 L 154.125 30.015625 L 158.160156 30.015625 L 158.160156 52.519531 L 154.125 52.519531 Z M 154.125 52.601562 "/>
<path style=" stroke:none;fill-rule:nonzero;fill:rgb(0%,66.666667%,94.901961%);fill-opacity:1;" d="M 166.605469 30.015625 L 171.015625 42.726562 C 171.765625 44.769531 172.347656 46.683594 172.890625 48.558594 L 173.054688 48.558594 C 173.554688 46.683594 174.21875 44.769531 174.929688 42.726562 L 179.339844 30.015625 L 183.667969 30.015625 L 174.804688 52.519531 L 170.851562 52.519531 L 162.320312 30.015625 Z M 166.605469 30.015625 "/>
<path style=" stroke:none;fill-rule:nonzero;fill:rgb(0%,66.666667%,94.901961%);fill-opacity:1;" d="M 189.242188 42.015625 C 189.324219 47.601562 192.863281 49.894531 196.941406 49.894531 C 199.894531 49.894531 201.765625 49.394531 203.179688 48.726562 L 203.847656 51.683594 C 201.476562 52.683594 198.9375 53.226562 196.316406 53.144531 C 189.410156 53.144531 185.246094 48.476562 185.246094 41.726562 C 185.246094 34.890625 189.199219 29.558594 195.898438 29.558594 C 203.265625 29.558594 205.179688 35.976562 205.179688 40.140625 C 205.179688 40.808594 205.09375 41.390625 205.011719 42.101562 L 189.242188 42.101562 Z M 201.226562 39.058594 C 201.308594 36.515625 200.144531 32.472656 195.566406 32.472656 C 191.445312 32.472656 189.574219 36.265625 189.242188 39.058594 Z M 201.226562 39.058594 "/>
<path style=" stroke:none;fill-rule:nonzero;fill:rgb(0%,66.666667%,94.901961%);fill-opacity:1;" d="M 220.242188 21.554688 C 223.113281 21.140625 225.984375 20.890625 228.9375 20.890625 C 234.761719 20.890625 238.925781 22.222656 241.628906 24.847656 C 244.417969 27.390625 246.039062 31.097656 246.039062 36.101562 C 246.039062 41.265625 244.417969 45.394531 241.460938 48.351562 C 238.507812 51.308594 233.679688 52.933594 227.605469 52.933594 C 225.152344 52.933594 222.613281 52.851562 220.15625 52.519531 Z M 224.402344 49.394531 C 225.734375 49.558594 227.105469 49.644531 228.4375 49.644531 C 237.136719 49.644531 241.878906 44.808594 241.878906 36.265625 C 241.960938 28.808594 237.757812 24.183594 229.1875 24.183594 C 227.566406 24.183594 225.984375 24.347656 224.359375 24.597656 Z M 224.402344 49.394531 "/>
<path style=" stroke:none;fill-rule:nonzero;fill:rgb(0%,66.666667%,94.901961%);fill-opacity:1;" d="M 255.902344 23.683594 C 255.902344 25.015625 254.902344 26.140625 253.527344 26.222656 L 253.363281 26.222656 C 252.03125 26.222656 250.90625 25.222656 250.90625 23.933594 L 250.90625 23.765625 C 250.824219 22.429688 251.90625 21.222656 253.28125 21.222656 L 253.445312 21.222656 C 254.734375 21.054688 255.902344 22.222656 255.902344 23.683594 C 255.902344 23.597656 255.902344 23.597656 255.902344 23.683594 Z M 251.28125 52.601562 L 251.28125 30.015625 L 255.316406 30.015625 L 255.316406 52.519531 L 251.28125 52.519531 Z M 251.28125 52.601562 "/>
<path style=" stroke:none;fill-rule:nonzero;fill:rgb(0%,66.666667%,94.901961%);fill-opacity:1;" d="M 262.140625 37.058594 C 262.140625 34.433594 262.058594 32.140625 261.976562 30.015625 L 265.597656 30.015625 L 265.761719 34.433594 L 265.929688 34.433594 C 267.011719 31.390625 269.550781 29.515625 272.253906 29.515625 C 272.667969 29.515625 273.003906 29.515625 273.335938 29.597656 L 273.335938 33.476562 C 272.917969 33.390625 272.503906 33.308594 272.003906 33.308594 C 269.050781 33.308594 267.09375 35.515625 266.511719 38.558594 C 266.34375 39.140625 266.34375 39.808594 266.34375 40.433594 L 266.34375 52.519531 L 262.308594 52.519531 Z M 262.140625 37.058594 "/>
<path style=" stroke:none;fill-rule:nonzero;fill:rgb(0%,66.666667%,94.901961%);fill-opacity:1;" d="M 279.242188 42.015625 C 279.328125 47.601562 282.863281 49.894531 286.941406 49.894531 C 289.894531 49.894531 291.769531 49.394531 293.183594 48.726562 L 293.847656 51.683594 C 291.476562 52.683594 288.9375 53.226562 286.316406 53.144531 C 279.410156 53.144531 275.25 48.476562 275.25 41.726562 C 275.25 34.890625 279.203125 29.558594 285.902344 29.558594 C 293.265625 29.558594 295.179688 35.976562 295.179688 40.140625 C 295.179688 40.808594 295.097656 41.390625 295.015625 42.101562 L 279.242188 42.101562 Z M 291.226562 39.058594 C 291.3125 36.515625 290.144531 32.472656 285.570312 32.472656 C 281.449219 32.472656 279.578125 36.265625 279.242188 39.058594 Z M 291.226562 39.058594 "/>
<path style=" stroke:none;fill-rule:nonzero;fill:rgb(0%,66.666667%,94.901961%);fill-opacity:1;" d="M 316.320312 51.769531 C 314.28125 52.683594 312.074219 53.101562 309.828125 53.101562 C 303.085938 53.101562 298.59375 48.433594 298.59375 41.601562 C 298.59375 34.765625 303.417969 29.597656 310.660156 29.597656 C 312.613281 29.597656 314.527344 29.933594 316.320312 30.765625 L 315.402344 33.890625 C 313.945312 33.140625 312.28125 32.808594 310.578125 32.808594 C 305.417969 32.808594 302.628906 36.683594 302.628906 41.351562 C 302.628906 46.601562 306 49.808594 310.492188 49.808594 C 312.199219 49.808594 313.945312 49.476562 315.484375 48.726562 Z M 316.320312 51.769531 "/>
<path style=" stroke:none;fill-rule:nonzero;fill:rgb(0%,66.666667%,94.901961%);fill-opacity:1;" d="M 326.722656 23.515625 L 326.722656 30.015625 L 332.546875 30.015625 L 332.546875 33.058594 L 326.722656 33.058594 L 326.722656 45.226562 C 326.722656 48.019531 327.46875 49.644531 329.757812 49.644531 C 330.507812 49.644531 331.382812 49.558594 332.128906 49.394531 L 332.296875 52.433594 C 331.546875 52.851562 330.257812 53.019531 328.59375 53.019531 C 326.886719 53.101562 325.304688 52.433594 324.183594 51.308594 C 323.101562 49.976562 322.644531 48.101562 322.644531 45.394531 L 322.644531 33.058594 L 319.191406 33.058594 L 319.191406 30.015625 L 322.644531 30.015625 L 322.644531 24.515625 Z M 326.722656 23.515625 "/>
<path style=" stroke:none;fill-rule:nonzero;fill:rgb(0%,66.666667%,94.901961%);fill-opacity:1;" d="M 357.304688 41.265625 C 357.304688 49.558594 351.230469 53.101562 345.984375 53.101562 C 340.078125 53.101562 335.25 48.683594 335.25 41.351562 C 335.25 33.808594 340.410156 29.515625 346.484375 29.515625 C 352.808594 29.515625 357.304688 34.015625 357.304688 41.265625 Z M 339.453125 41.351562 C 339.453125 45.933594 341.742188 49.976562 346.277344 49.976562 C 350.769531 49.976562 353.183594 45.933594 353.183594 41.265625 C 353.183594 37.308594 351.3125 32.472656 346.277344 32.472656 C 341.242188 32.472656 339.453125 37.308594 339.453125 41.351562 Z M 339.453125 41.351562 "/>
<path style=" stroke:none;fill-rule:nonzero;fill:rgb(0%,66.666667%,94.901961%);fill-opacity:1;" d="M 362.464844 37.058594 C 362.464844 34.433594 362.378906 32.140625 362.296875 30.015625 L 365.917969 30.015625 L 366.082031 34.433594 L 366.25 34.433594 C 367.332031 31.390625 369.871094 29.515625 372.574219 29.515625 C 372.992188 29.515625 373.324219 29.515625 373.65625 29.597656 L 373.65625 33.476562 C 373.242188 33.390625 372.824219 33.308594 372.324219 33.308594 C 369.371094 33.308594 367.414062 35.515625 366.832031 38.558594 C 366.667969 39.140625 366.667969 39.808594 366.667969 40.433594 L 366.667969 52.519531 L 362.628906 52.519531 Z M 362.464844 37.058594 "/>
<path style=" stroke:none;fill-rule:nonzero;fill:rgb(0%,66.666667%,94.901961%);fill-opacity:1;" d="M 380.355469 30.015625 L 385.265625 43.308594 C 385.765625 44.769531 386.347656 46.519531 386.722656 47.976562 L 386.804688 47.976562 C 387.222656 46.644531 387.636719 44.933594 388.261719 43.308594 L 392.753906 30.015625 L 397.082031 30.015625 L 390.925781 46.101562 C 387.96875 53.808594 386.015625 57.851562 383.226562 60.3125 C 381.769531 61.5625 380.105469 62.4375 378.234375 62.9375 L 377.234375 59.476562 C 378.566406 59.0625 379.773438 58.394531 380.855469 57.4375 C 382.3125 56.1875 383.476562 54.644531 384.226562 52.851562 C 384.390625 52.519531 384.558594 52.183594 384.558594 51.851562 C 384.558594 51.433594 384.390625 51.101562 384.226562 50.769531 L 375.945312 30.058594 L 380.355469 30.058594 Z M 380.355469 30.015625 "/>
</g>
</svg>
