<?xml version="1.0" encoding="UTF-8"?>
<svg xmlns="http://www.w3.org/2000/svg" xmlns:xlink="http://www.w3.org/1999/xlink" width="400px" height="px" viewBox="0 0 398 168" version="1.1">
<g id="surface1">
<path style=" stroke:none;fill-rule:nonzero;fill:rgb(100%,100%,100%);fill-opacity:1;" d="M 136.425781 34.316406 L 83.527344 2.839844 C 77.238281 -0.917969 69.402344 -0.917969 63.113281 2.839844 L 10.199219 34.316406 C 3.835938 38.164062 -0.0390625 45.085938 0 52.535156 L 0 115.476562 C -0.0351562 122.921875 3.839844 129.835938 10.199219 133.683594 L 63.101562 165.148438 C 69.390625 168.902344 77.226562 168.902344 83.515625 165.148438 L 136.417969 133.683594 C 142.785156 129.835938 146.664062 122.917969 146.628906 115.464844 L 146.628906 52.535156 C 146.667969 45.085938 142.792969 38.164062 136.425781 34.316406 Z M 136.425781 34.316406 "/>
<path style=" stroke:none;fill-rule:nonzero;fill:rgb(18.431373%,22.745098%,24.313725%);fill-opacity:1;" d="M 136.425781 34.316406 L 83.527344 2.839844 C 77.238281 -0.917969 69.402344 -0.917969 63.113281 2.839844 L 10.199219 34.316406 C 3.835938 38.164062 -0.0390625 45.085938 0 52.535156 L 0 115.476562 C -0.0351562 122.921875 3.839844 129.835938 10.199219 133.683594 L 63.101562 165.148438 C 69.390625 168.902344 77.226562 168.902344 83.515625 165.148438 L 136.417969 133.683594 C 142.785156 129.835938 146.664062 122.917969 146.628906 115.464844 L 146.628906 52.535156 C 146.667969 45.085938 142.792969 38.164062 136.425781 34.316406 Z M 64.957031 161.929688 L 12.054688 130.464844 C 6.828125 127.292969 3.644531 121.601562 3.664062 115.476562 L 3.664062 52.535156 C 3.640625 46.40625 6.824219 40.71875 12.054688 37.542969 L 64.957031 6.070312 C 70.105469 2.992188 76.523438 2.992188 81.671875 6.070312 L 134.53125 37.542969 C 138.886719 40.191406 141.859375 44.625 142.65625 49.667969 C 140.898438 45.921875 136.945312 44.890625 132.339844 47.546875 L 82.328125 78.585938 C 76.089844 82.226562 71.492188 86.335938 71.480469 93.871094 L 71.480469 155.679688 C 71.480469 160.191406 73.292969 163.109375 76.089844 163.96875 C 75.171875 164.136719 74.246094 164.226562 73.3125 164.234375 C 70.371094 164.234375 67.484375 163.4375 64.957031 161.929688 Z M 64.957031 161.929688 "/>
<path style=" stroke:none;fill-rule:nonzero;fill:rgb(22.745098%,69.411765%,29.019608%);fill-opacity:1;" d="M 122.5625 121.558594 L 109.382812 129.457031 C 109.03125 129.597656 108.792969 129.9375 108.78125 130.316406 L 108.78125 133.789062 C 108.78125 134.214844 109.066406 134.382812 109.414062 134.179688 L 122.792969 126.027344 C 123.121094 125.78125 123.277344 125.367188 123.195312 124.964844 L 123.195312 121.921875 C 123.1875 121.527344 122.878906 121.355469 122.5625 121.558594 Z M 122.5625 121.558594 "/>
<path style=" stroke:none;fill-rule:nonzero;fill:rgb(100%,100%,100%);fill-opacity:1;" d="M 94.511719 92.480469 C 94.933594 92.269531 95.285156 92.480469 95.292969 93.085938 L 95.335938 97.695312 C 96.921875 96.972656 98.691406 96.757812 100.402344 97.078125 C 100.730469 97.164062 100.867188 97.609375 100.738281 98.140625 L 99.734375 102.183594 C 99.65625 102.492188 99.5 102.769531 99.277344 102.992188 C 99.199219 103.070312 99.109375 103.132812 99.011719 103.183594 C 98.894531 103.246094 98.753906 103.269531 98.621094 103.246094 C 96.953125 102.875 95.207031 103.15625 93.738281 104.03125 C 91.589844 105 90.1875 107.117188 90.125 109.476562 C 90.125 111.601562 91.183594 112.183594 94.882812 112.25 C 99.765625 112.332031 101.882812 114.46875 101.9375 119.402344 C 101.820312 124.558594 99.449219 129.398438 95.453125 132.640625 L 95.539062 137.164062 C 95.53125 137.726562 95.238281 138.246094 94.765625 138.542969 L 92.09375 140.082031 C 91.671875 140.296875 91.320312 140.082031 91.3125 139.488281 L 91.3125 135.042969 C 89.023438 135.996094 86.703125 136.21875 85.21875 135.625 C 84.945312 135.519531 84.816406 135.105469 84.933594 134.628906 L 85.898438 130.539062 C 85.972656 130.214844 86.136719 129.921875 86.375 129.691406 C 86.449219 129.617188 86.535156 129.558594 86.628906 129.511719 C 86.769531 129.449219 86.925781 129.449219 87.0625 129.511719 C 88.953125 130.023438 90.964844 129.769531 92.667969 128.800781 C 95.121094 127.613281 96.71875 125.160156 96.808594 122.429688 C 96.808594 120.136719 95.546875 119.179688 92.570312 119.160156 C 88.726562 119.160156 85.15625 118.417969 85.082031 112.789062 C 85.171875 107.875 87.449219 103.257812 91.289062 100.199219 L 91.101562 95.570312 C 91.097656 95 91.390625 94.472656 91.871094 94.171875 Z M 94.511719 92.480469 "/>
<path style=" stroke:none;fill-rule:nonzero;fill:rgb(18.431373%,22.745098%,24.313725%);fill-opacity:1;" d="M 215.039062 86.441406 C 213.695312 84.824219 212.101562 83.4375 210.3125 82.332031 L 209.636719 81.929688 C 211.0625 80.976562 212.351562 79.835938 213.46875 78.53125 C 215.945312 75.644531 217.3125 71.96875 217.324219 68.160156 C 217.441406 64.882812 216.667969 61.632812 215.089844 58.753906 C 213.601562 56.164062 211.53125 53.953125 209.042969 52.300781 C 206.492188 50.621094 203.671875 49.398438 200.707031 48.679688 C 197.664062 47.925781 194.546875 47.53125 191.414062 47.503906 L 170.230469 47.503906 C 168.789062 47.46875 167.589844 48.605469 167.550781 50.050781 L 167.550781 117.90625 C 167.589844 119.351562 168.789062 120.492188 170.230469 120.453125 L 193.046875 120.453125 C 196.308594 120.425781 199.546875 119.929688 202.664062 118.980469 C 205.679688 118.085938 208.519531 116.671875 211.054688 114.808594 C 213.527344 112.96875 215.5625 110.605469 217.019531 107.886719 C 218.554688 104.941406 219.3125 101.652344 219.222656 98.332031 C 219.25 96.128906 218.890625 93.933594 218.164062 91.855469 C 217.4375 89.886719 216.378906 88.054688 215.039062 86.441406 Z M 202.0625 71.515625 C 201.464844 72.539062 200.660156 73.421875 199.699219 74.105469 C 198.628906 74.867188 197.433594 75.441406 196.171875 75.804688 C 194.796875 76.214844 193.371094 76.4375 191.933594 76.460938 L 182 76.460938 L 182 59.976562 L 191.648438 59.976562 C 193.183594 60 194.710938 60.195312 196.203125 60.550781 C 197.476562 60.839844 198.6875 61.347656 199.785156 62.058594 C 200.714844 62.667969 201.488281 63.496094 202.039062 64.464844 C 202.625 65.582031 202.910156 66.828125 202.867188 68.085938 C 202.914062 69.28125 202.636719 70.46875 202.0625 71.515625 Z M 182.03125 88.734375 L 193.683594 88.734375 C 195.238281 88.773438 196.78125 89.035156 198.257812 89.519531 C 199.527344 89.933594 200.707031 90.582031 201.734375 91.429688 C 202.683594 92.226562 203.445312 93.222656 203.96875 94.351562 C 204.535156 95.636719 204.800781 97.035156 204.742188 98.4375 C 204.769531 99.808594 204.46875 101.167969 203.863281 102.398438 C 203.285156 103.539062 202.464844 104.539062 201.457031 105.328125 C 200.34375 106.1875 199.09375 106.851562 197.761719 107.292969 C 196.316406 107.773438 194.804688 108.03125 193.28125 108.054688 L 182.03125 108.054688 Z M 259.03125 49.285156 C 258.648438 48.207031 257.621094 47.492188 256.476562 47.511719 L 248.933594 47.511719 C 247.800781 47.5 246.78125 48.207031 246.394531 49.277344 L 223.40625 117.132812 C 223.144531 117.910156 223.285156 118.765625 223.789062 119.414062 C 224.296875 120.074219 225.074219 120.464844 225.90625 120.476562 L 234.953125 120.476562 C 236.101562 120.488281 237.128906 119.769531 237.503906 118.683594 L 242.644531 102.90625 L 262.453125 102.90625 L 267.496094 118.671875 C 267.867188 119.765625 268.902344 120.496094 270.058594 120.476562 L 279.050781 120.476562 C 279.882812 120.464844 280.664062 120.074219 281.167969 119.414062 C 281.671875 118.765625 281.820312 117.910156 281.5625 117.132812 Z M 258.46875 90.261719 L 246.816406 90.261719 L 252.707031 72.066406 Z M 336 89.0625 C 334.773438 87.492188 333.351562 86.085938 331.761719 84.882812 C 330.179688 83.683594 328.5 82.617188 326.742188 81.695312 C 324.960938 80.765625 323.125 79.949219 321.242188 79.242188 C 319.421875 78.566406 317.566406 77.9375 315.722656 77.386719 C 314.15625 76.929688 312.484375 76.386719 310.734375 75.792969 C 309.160156 75.246094 307.648438 74.535156 306.222656 73.671875 C 305.023438 72.964844 303.972656 72.03125 303.128906 70.921875 C 302.410156 69.90625 302.039062 68.683594 302.070312 67.4375 C 302.035156 66.199219 302.320312 64.972656 302.90625 63.882812 C 303.484375 62.84375 304.28125 61.949219 305.246094 61.261719 C 306.324219 60.496094 307.523438 59.929688 308.796875 59.582031 C 311.785156 58.726562 314.964844 58.792969 317.917969 59.773438 C 319.21875 60.246094 320.417969 60.964844 321.445312 61.898438 C 322.453125 62.84375 323.269531 63.976562 323.847656 65.230469 C 324.515625 66.695312 324.953125 68.253906 325.152344 69.847656 C 325.359375 71.152344 326.492188 72.105469 327.8125 72.078125 L 337.101562 72.078125 C 337.8125 72.082031 338.496094 71.804688 339.007812 71.3125 C 339.507812 70.835938 339.78125 70.167969 339.769531 69.476562 C 339.738281 66.148438 338.917969 62.875 337.375 59.921875 C 335.894531 57.128906 333.851562 54.667969 331.378906 52.695312 C 328.839844 50.6875 325.972656 49.140625 322.90625 48.117188 C 316.746094 46.066406 310.105469 45.972656 303.890625 47.851562 C 300.929688 48.710938 298.136719 50.070312 295.628906 51.867188 C 293.1875 53.625 291.140625 55.875 289.613281 58.46875 C 288.015625 61.222656 287.195312 64.359375 287.238281 67.546875 C 287.175781 70.691406 288.011719 73.789062 289.644531 76.472656 C 291.195312 78.945312 293.195312 81.101562 295.542969 82.832031 C 297.914062 84.578125 300.484375 86.035156 303.203125 87.164062 C 305.871094 88.289062 308.5 89.285156 311.117188 90.050781 C 312.8125 90.566406 314.578125 91.148438 316.414062 91.792969 C 318.023438 92.347656 319.570312 93.082031 321.019531 93.980469 C 322.253906 94.726562 323.320312 95.722656 324.144531 96.910156 C 324.890625 98.050781 325.261719 99.398438 325.203125 100.761719 C 325.25 101.996094 324.941406 103.214844 324.316406 104.277344 C 323.671875 105.304688 322.816406 106.179688 321.804688 106.84375 C 320.664062 107.582031 319.40625 108.117188 318.085938 108.425781 C 314.839844 109.222656 311.4375 109.15625 308.222656 108.234375 C 306.746094 107.789062 305.363281 107.070312 304.144531 106.113281 C 302.976562 105.183594 302 104.035156 301.273438 102.726562 C 300.480469 101.253906 299.964844 99.644531 299.761719 97.980469 C 299.550781 96.679688 298.414062 95.734375 297.101562 95.761719 L 287.855469 95.761719 C 287.136719 95.761719 286.449219 96.039062 285.9375 96.539062 C 285.441406 97.019531 285.167969 97.691406 285.183594 98.382812 C 285.242188 101.84375 286.1875 105.226562 287.929688 108.214844 C 289.597656 111.035156 291.828125 113.484375 294.476562 115.414062 C 297.191406 117.382812 300.214844 118.882812 303.425781 119.851562 C 306.703125 120.855469 310.113281 121.367188 313.542969 121.367188 C 316.660156 121.363281 319.765625 120.949219 322.777344 120.136719 C 325.792969 119.355469 328.65625 118.082031 331.253906 116.367188 C 333.773438 114.691406 335.90625 112.492188 337.515625 109.925781 C 339.210938 107.132812 340.078125 103.914062 340.015625 100.644531 C 340.035156 98.476562 339.675781 96.320312 338.953125 94.277344 C 338.246094 92.394531 337.25 90.636719 336 89.0625 Z M 395.332031 47.511719 L 386.769531 47.511719 C 385.332031 47.476562 384.132812 48.617188 384.089844 50.0625 L 384.089844 76.6875 L 360.246094 76.6875 L 360.246094 50.0625 C 360.207031 48.617188 359.007812 47.476562 357.566406 47.511719 L 349.09375 47.511719 C 347.652344 47.476562 346.453125 48.617188 346.414062 50.0625 L 346.414062 117.917969 C 346.453125 119.363281 347.652344 120.5 349.09375 120.464844 L 357.566406 120.464844 C 359.007812 120.5 360.207031 119.363281 360.246094 117.917969 L 360.246094 89.105469 L 384.089844 89.105469 L 384.089844 117.917969 C 384.132812 119.363281 385.332031 120.5 386.769531 120.464844 L 395.332031 120.464844 C 396.773438 120.5 397.96875 119.363281 398.011719 117.917969 L 398.011719 50.0625 C 397.96875 48.617188 396.773438 47.476562 395.332031 47.511719 Z M 175.769531 132.226562 L 172.527344 132.226562 L 172.527344 140.910156 L 170.800781 140.910156 L 170.800781 132.226562 L 167.625 132.226562 L 167.625 130.859375 L 175.8125 130.859375 Z M 185.738281 140.910156 L 184.042969 140.910156 L 184.042969 136.421875 L 180.453125 136.421875 L 180.453125 140.910156 L 178.765625 140.910156 L 178.765625 130.859375 L 180.453125 130.859375 L 180.453125 135.105469 L 184.042969 135.105469 L 184.042969 130.859375 L 185.738281 130.859375 Z M 195.695312 136.410156 L 191.351562 136.410156 L 191.351562 139.59375 L 196.425781 139.59375 L 196.425781 140.945312 L 189.613281 140.945312 L 189.613281 130.890625 L 196.382812 130.890625 L 196.382812 132.261719 L 191.351562 132.261719 L 191.351562 135.09375 L 195.695312 135.09375 Z M 210.726562 140.910156 L 210.726562 130.859375 L 214.09375 130.859375 C 214.574219 130.863281 215.050781 130.917969 215.515625 131.027344 C 215.925781 131.121094 216.316406 131.285156 216.667969 131.515625 C 216.996094 131.730469 217.265625 132.023438 217.453125 132.367188 C 217.648438 132.742188 217.746094 133.164062 217.726562 133.585938 C 217.734375 134.050781 217.582031 134.5 217.292969 134.859375 C 216.988281 135.230469 216.589844 135.511719 216.140625 135.679688 C 216.417969 135.75 216.679688 135.867188 216.921875 136.019531 C 217.144531 136.15625 217.335938 136.332031 217.496094 136.539062 C 217.652344 136.738281 217.773438 136.964844 217.855469 137.207031 C 217.941406 137.460938 217.984375 137.726562 217.984375 137.992188 C 217.992188 138.429688 217.898438 138.863281 217.707031 139.253906 C 217.527344 139.617188 217.265625 139.929688 216.945312 140.167969 C 216.597656 140.421875 216.207031 140.609375 215.789062 140.722656 C 215.320312 140.851562 214.835938 140.921875 214.347656 140.921875 Z M 212.472656 135.09375 L 214.136719 135.09375 C 214.382812 135.09375 214.628906 135.0625 214.867188 135 C 215.078125 134.945312 215.277344 134.851562 215.449219 134.722656 C 215.613281 134.605469 215.746094 134.453125 215.84375 134.277344 C 215.941406 134.089844 215.992188 133.882812 215.992188 133.671875 C 215.996094 133.449219 215.949219 133.226562 215.851562 133.023438 C 215.761719 132.84375 215.628906 132.691406 215.460938 132.578125 C 215.28125 132.457031 215.082031 132.371094 214.867188 132.324219 C 214.625 132.269531 214.375 132.242188 214.125 132.238281 L 212.472656 132.238281 Z M 212.472656 136.359375 L 212.472656 139.542969 L 214.371094 139.542969 C 214.625 139.542969 214.878906 139.503906 215.121094 139.425781 C 215.335938 139.355469 215.53125 139.246094 215.707031 139.105469 C 215.871094 138.976562 216.003906 138.808594 216.097656 138.617188 C 216.191406 138.417969 216.238281 138.195312 216.234375 137.972656 C 216.238281 137.738281 216.195312 137.507812 216.109375 137.292969 C 216.03125 137.097656 215.910156 136.921875 215.757812 136.78125 C 215.59375 136.640625 215.402344 136.53125 215.195312 136.464844 C 214.957031 136.386719 214.707031 136.347656 214.457031 136.347656 Z M 228.492188 136.539062 C 228.492188 137.117188 228.410156 137.691406 228.246094 138.246094 C 228.101562 138.769531 227.859375 139.257812 227.539062 139.691406 C 227.222656 140.109375 226.816406 140.449219 226.351562 140.6875 C 225.832031 140.945312 225.257812 141.074219 224.675781 141.058594 C 223.570312 141.09375 222.519531 140.582031 221.859375 139.691406 C 221.542969 139.257812 221.304688 138.765625 221.160156 138.246094 C 221.003906 137.691406 220.921875 137.117188 220.925781 136.539062 L 220.925781 135.253906 C 220.925781 134.867188 220.960938 134.476562 221.035156 134.097656 C 221.097656 133.734375 221.203125 133.378906 221.339844 133.035156 C 221.476562 132.707031 221.652344 132.398438 221.859375 132.109375 C 222.058594 131.832031 222.304688 131.582031 222.578125 131.378906 C 222.867188 131.171875 223.183594 131.007812 223.523438 130.902344 C 223.894531 130.785156 224.285156 130.726562 224.675781 130.730469 C 225.796875 130.699219 226.859375 131.207031 227.539062 132.101562 C 227.867188 132.53125 228.109375 133.023438 228.257812 133.542969 C 228.417969 134.097656 228.5 134.675781 228.5 135.253906 Z M 226.742188 135.242188 C 226.738281 134.867188 226.703125 134.488281 226.636719 134.117188 C 226.578125 133.769531 226.464844 133.433594 226.296875 133.121094 C 226.144531 132.835938 225.925781 132.59375 225.664062 132.410156 C 225.371094 132.21875 225.027344 132.121094 224.675781 132.132812 C 224.332031 132.121094 223.992188 132.21875 223.703125 132.410156 C 223.445312 132.59375 223.234375 132.835938 223.089844 133.121094 C 222.929688 133.433594 222.824219 133.769531 222.769531 134.117188 C 222.710938 134.488281 222.679688 134.867188 222.675781 135.242188 L 222.675781 136.539062 C 222.679688 136.914062 222.71875 137.292969 222.78125 137.664062 C 222.835938 138.011719 222.941406 138.347656 223.097656 138.660156 C 223.242188 138.949219 223.453125 139.195312 223.714844 139.382812 C 224 139.574219 224.34375 139.671875 224.6875 139.660156 C 225.035156 139.671875 225.382812 139.574219 225.671875 139.382812 C 225.9375 139.195312 226.15625 138.949219 226.308594 138.660156 C 226.476562 138.347656 226.589844 138.011719 226.648438 137.664062 C 226.714844 137.292969 226.75 136.914062 226.753906 136.539062 Z M 238.808594 130.871094 L 238.808594 137.601562 C 238.808594 138.082031 238.71875 138.5625 238.542969 139.011719 C 238.382812 139.410156 238.140625 139.769531 237.832031 140.074219 C 237.53125 140.378906 237.171875 140.617188 236.773438 140.773438 C 236.308594 140.945312 235.816406 141.027344 235.324219 141.019531 C 234.839844 141.027344 234.359375 140.941406 233.902344 140.773438 C 233.074219 140.460938 232.417969 139.808594 232.101562 138.980469 C 231.925781 138.527344 231.835938 138.042969 231.839844 137.558594 L 231.839844 130.828125 L 233.542969 130.828125 L 233.542969 137.558594 C 233.546875 137.84375 233.589844 138.128906 233.671875 138.40625 C 233.738281 138.648438 233.847656 138.875 234 139.074219 C 234.144531 139.261719 234.328125 139.410156 234.539062 139.511719 C 234.773438 139.621094 235.03125 139.675781 235.292969 139.667969 C 235.558594 139.675781 235.820312 139.621094 236.066406 139.511719 C 236.285156 139.410156 236.476562 139.261719 236.625 139.074219 C 236.78125 138.875 236.898438 138.648438 236.964844 138.40625 C 237.046875 138.128906 237.089844 137.84375 237.09375 137.558594 L 237.09375 130.828125 Z M 246.097656 136.972656 L 244.328125 136.972656 L 244.328125 140.890625 L 242.578125 140.890625 L 242.578125 130.835938 L 245.917969 130.835938 C 246.421875 130.839844 246.921875 130.90625 247.410156 131.039062 C 247.835938 131.148438 248.238281 131.339844 248.597656 131.601562 C 248.925781 131.847656 249.191406 132.171875 249.371094 132.546875 C 249.5625 132.960938 249.65625 133.414062 249.644531 133.875 C 249.648438 134.1875 249.601562 134.5 249.507812 134.796875 C 249.417969 135.066406 249.285156 135.320312 249.117188 135.550781 C 248.945312 135.777344 248.742188 135.980469 248.511719 136.144531 C 248.269531 136.320312 248.003906 136.464844 247.726562 136.582031 L 249.964844 140.828125 L 249.964844 140.910156 L 248.109375 140.910156 Z M 244.328125 135.636719 L 245.925781 135.636719 C 246.195312 135.636719 246.464844 135.597656 246.722656 135.519531 C 246.949219 135.445312 247.160156 135.332031 247.347656 135.179688 C 247.523438 135.035156 247.664062 134.855469 247.757812 134.648438 C 247.859375 134.421875 247.910156 134.175781 247.90625 133.925781 C 247.914062 133.671875 247.867188 133.417969 247.769531 133.183594 C 247.683594 132.976562 247.546875 132.789062 247.378906 132.640625 C 247.195312 132.488281 246.984375 132.371094 246.753906 132.300781 C 246.484375 132.226562 246.207031 132.183594 245.925781 132.183594 L 244.339844 132.183594 Z M 259.984375 140.910156 L 258.234375 140.910156 L 254.804688 134 L 254.804688 140.910156 L 253.046875 140.910156 L 253.046875 130.859375 L 254.804688 130.859375 L 258.226562 137.757812 L 258.226562 130.859375 L 259.984375 130.859375 Z M 269.953125 136.410156 L 265.609375 136.410156 L 265.609375 139.59375 L 270.683594 139.59375 L 270.683594 140.945312 L 263.871094 140.945312 L 263.871094 130.890625 L 270.640625 130.890625 L 270.640625 132.261719 L 265.609375 132.261719 L 265.609375 135.09375 L 269.953125 135.09375 Z M 280.90625 137.175781 L 275.101562 137.175781 L 275.101562 135.847656 L 280.90625 135.847656 Z M 290.101562 138.585938 L 286.804688 138.585938 L 286.085938 140.921875 L 284.285156 140.921875 L 287.707031 130.871094 L 289.1875 130.871094 L 292.546875 140.921875 L 290.757812 140.921875 Z M 287.25 137.175781 L 289.664062 137.175781 L 288.46875 133.238281 Z M 302.671875 139.660156 C 302.488281 139.871094 302.277344 140.058594 302.046875 140.222656 C 301.792969 140.402344 301.519531 140.550781 301.234375 140.667969 C 300.917969 140.796875 300.59375 140.890625 300.257812 140.953125 C 299.886719 141.027344 299.511719 141.0625 299.136719 141.058594 C 298.554688 141.074219 297.980469 140.953125 297.453125 140.710938 C 296.972656 140.484375 296.546875 140.152344 296.210938 139.742188 C 295.863281 139.316406 295.601562 138.828125 295.4375 138.300781 C 295.257812 137.722656 295.164062 137.121094 295.164062 136.515625 L 295.164062 135.273438 C 295.160156 134.671875 295.25 134.070312 295.429688 133.492188 C 295.585938 132.96875 295.84375 132.476562 296.179688 132.046875 C 296.503906 131.640625 296.910156 131.3125 297.378906 131.082031 C 297.882812 130.835938 298.4375 130.710938 298.996094 130.71875 C 299.492188 130.714844 299.988281 130.785156 300.460938 130.933594 C 300.847656 131.066406 301.210938 131.277344 301.519531 131.546875 C 301.828125 131.820312 302.078125 132.160156 302.25 132.535156 C 302.433594 132.945312 302.550781 133.382812 302.589844 133.832031 L 300.882812 133.832031 C 300.847656 133.578125 300.777344 133.332031 300.683594 133.097656 C 300.597656 132.890625 300.46875 132.703125 300.3125 132.546875 C 300.152344 132.390625 299.960938 132.269531 299.75 132.195312 C 299.496094 132.109375 299.230469 132.070312 298.964844 132.078125 C 298.632812 132.070312 298.304688 132.15625 298.023438 132.335938 C 297.753906 132.515625 297.527344 132.753906 297.367188 133.035156 C 297.179688 133.363281 297.050781 133.722656 296.984375 134.097656 C 296.902344 134.496094 296.859375 134.898438 296.859375 135.304688 L 296.859375 136.558594 C 296.863281 136.960938 296.910156 137.363281 296.996094 137.757812 C 297.066406 138.132812 297.203125 138.492188 297.398438 138.820312 C 297.574219 139.105469 297.8125 139.347656 298.097656 139.519531 C 298.417969 139.707031 298.785156 139.796875 299.15625 139.785156 L 299.664062 139.785156 C 299.832031 139.769531 300 139.734375 300.164062 139.691406 C 300.3125 139.644531 300.460938 139.585938 300.597656 139.511719 C 300.71875 139.445312 300.828125 139.355469 300.914062 139.246094 L 300.914062 137.238281 L 299.007812 137.238281 L 299.007812 135.953125 L 302.621094 135.953125 Z M 311.316406 138.585938 L 308.023438 138.585938 L 307.304688 140.921875 L 305.503906 140.921875 L 308.921875 130.871094 L 310.449219 130.871094 L 313.808594 140.921875 L 312.015625 140.921875 Z M 308.46875 137.175781 L 310.882812 137.175781 L 309.6875 133.238281 Z M 317.046875 130.871094 L 323.320312 130.871094 L 323.320312 132.238281 L 321.042969 132.238281 L 321.042969 139.554688 L 323.320312 139.554688 L 323.320312 140.921875 L 317.046875 140.921875 L 317.046875 139.554688 L 319.285156 139.554688 L 319.285156 132.238281 L 317.046875 132.238281 Z M 334.25 140.910156 L 332.503906 140.910156 L 329.070312 134 L 329.070312 140.910156 L 327.324219 140.910156 L 327.324219 130.859375 L 329.082031 130.859375 L 332.503906 137.757812 L 332.503906 130.859375 L 334.261719 130.859375 Z M 354.113281 138.332031 C 354.117188 138.113281 354.0625 137.898438 353.953125 137.707031 C 353.839844 137.515625 353.691406 137.355469 353.507812 137.226562 C 353.300781 137.078125 353.070312 136.957031 352.832031 136.867188 C 352.570312 136.761719 352.285156 136.664062 351.972656 136.582031 C 351.554688 136.464844 351.144531 136.324219 350.746094 136.15625 C 350.367188 135.992188 350.011719 135.78125 349.683594 135.53125 C 349.375 135.292969 349.113281 135.003906 348.910156 134.667969 C 348.710938 134.320312 348.605469 133.925781 348.617188 133.523438 C 348.609375 133.113281 348.710938 132.710938 348.910156 132.355469 C 349.109375 132.011719 349.375 131.714844 349.695312 131.484375 C 350.042969 131.238281 350.429688 131.050781 350.839844 130.933594 C 351.285156 130.804688 351.746094 130.738281 352.207031 130.742188 C 352.6875 130.738281 353.167969 130.8125 353.625 130.964844 C 354.042969 131.101562 354.4375 131.316406 354.78125 131.589844 C 355.105469 131.855469 355.375 132.183594 355.566406 132.558594 C 355.757812 132.941406 355.859375 133.367188 355.859375 133.800781 L 354.125 133.800781 C 354.101562 133.5625 354.046875 133.328125 353.953125 133.109375 C 353.867188 132.902344 353.738281 132.71875 353.574219 132.566406 C 353.402344 132.410156 353.199219 132.292969 352.980469 132.21875 C 352.71875 132.128906 352.449219 132.085938 352.175781 132.089844 C 351.929688 132.089844 351.6875 132.121094 351.453125 132.183594 C 351.246094 132.246094 351.054688 132.339844 350.882812 132.472656 C 350.722656 132.589844 350.59375 132.742188 350.5 132.917969 C 350.40625 133.101562 350.359375 133.304688 350.363281 133.511719 C 350.363281 133.730469 350.429688 133.941406 350.554688 134.117188 C 350.6875 134.300781 350.851562 134.453125 351.042969 134.574219 C 351.261719 134.714844 351.496094 134.828125 351.742188 134.914062 C 352 135.003906 352.277344 135.089844 352.566406 135.167969 C 352.996094 135.289062 353.417969 135.441406 353.828125 135.625 C 354.207031 135.796875 354.566406 136.015625 354.886719 136.285156 C 355.179688 136.527344 355.425781 136.828125 355.605469 137.164062 C 355.789062 137.523438 355.882812 137.917969 355.871094 138.320312 C 355.878906 138.734375 355.777344 139.140625 355.574219 139.5 C 355.378906 139.84375 355.105469 140.136719 354.78125 140.359375 C 354.429688 140.597656 354.039062 140.773438 353.625 140.878906 C 353.175781 141 352.714844 141.0625 352.25 141.058594 C 351.925781 141.0625 351.601562 141.035156 351.285156 140.976562 C 350.972656 140.917969 350.667969 140.832031 350.375 140.710938 C 350.085938 140.59375 349.8125 140.445312 349.558594 140.265625 C 349.3125 140.089844 349.089844 139.882812 348.902344 139.648438 C 348.507812 139.15625 348.296875 138.546875 348.296875 137.917969 L 350.046875 137.917969 C 350.0625 138.195312 350.136719 138.464844 350.257812 138.714844 C 350.367188 138.933594 350.527344 139.125 350.722656 139.277344 C 350.925781 139.433594 351.15625 139.546875 351.402344 139.617188 C 351.679688 139.695312 351.96875 139.734375 352.257812 139.734375 C 352.503906 139.734375 352.75 139.707031 352.992188 139.648438 C 353.203125 139.59375 353.402344 139.503906 353.582031 139.382812 C 353.75 139.269531 353.886719 139.121094 353.984375 138.949219 C 354.082031 138.757812 354.128906 138.546875 354.113281 138.332031 Z M 366.082031 140.910156 L 364.398438 140.910156 L 364.398438 136.421875 L 360.796875 136.421875 L 360.796875 140.910156 L 359.101562 140.910156 L 359.101562 130.859375 L 360.785156 130.859375 L 360.785156 135.105469 L 364.398438 135.105469 L 364.398438 130.859375 L 366.09375 130.859375 Z M 376.050781 136.410156 L 371.707031 136.410156 L 371.707031 139.59375 L 376.78125 139.59375 L 376.78125 140.945312 L 369.960938 140.945312 L 369.960938 130.890625 L 376.730469 130.890625 L 376.730469 132.261719 L 371.699219 132.261719 L 371.699219 135.09375 L 376.050781 135.09375 Z M 382.40625 139.5625 L 387.4375 139.5625 L 387.4375 140.910156 L 380.667969 140.910156 L 380.667969 130.859375 L 382.40625 130.859375 Z M 393 139.5625 L 398.03125 139.5625 L 398.03125 140.910156 L 391.261719 140.910156 L 391.261719 130.859375 L 393 130.859375 Z M 393 139.5625 "/>
</g>
</svg>
