<?xml version="1.0" encoding="UTF-8"?>
<svg xmlns="http://www.w3.org/2000/svg" xmlns:xlink="http://www.w3.org/1999/xlink" width="400px" height="px" viewBox="0 0 400 347" version="1.1">
<g id="surface1">
<path style=" stroke:none;fill-rule:nonzero;fill:rgb(100%,100%,100%);fill-opacity:1;" d="M 283.191406 250.070312 C 250.707031 246.226562 234.472656 225.847656 231.542969 221.796875 C 225.09375 212.894531 217.800781 196.988281 211.550781 182.613281 C 209.664062 178.273438 202.945312 177.46875 200.480469 177.328125 L 199.558594 177.304688 C 198.40625 177.316406 189.746094 177.535156 187.53125 182.613281 C 181.269531 196.976562 174 212.871094 167.539062 221.796875 C 164.609375 225.847656 148.363281 246.234375 115.890625 250.070312 C 110.234375 250.753906 104.257812 251.078125 98.058594 251.078125 C 84.503906 251.078125 71.101562 249.492188 60.289062 246.78125 L 71.359375 291.488281 L 163.4375 329.445312 L 197.679688 333.582031 L 231.683594 329.445312 L 323.761719 291.488281 L 334.59375 247.746094 C 324.597656 249.839844 312.855469 251.078125 300.992188 251.078125 C 294.828125 251.078125 288.824219 250.753906 283.191406 250.070312 Z M 239.488281 307.828125 L 155.210938 307.828125 L 155.210938 298.925781 L 192.894531 298.925781 L 192.894531 280.078125 C 190.25 279.671875 187.609375 279.214844 184.984375 278.710938 C 181.335938 278.015625 177.710938 277.253906 174.140625 276.253906 C 170.914062 275.375 167.53125 274.386719 164.632812 272.660156 C 159.390625 269.503906 155.429688 263.414062 158.640625 257.410156 C 160.171875 254.5625 162.894531 251.925781 165.933594 250.765625 C 169.375 249.4375 173.335938 249.265625 176.992188 249.136719 C 174.921875 249.210938 178.394531 249.136719 177.363281 249.125 L 177.179688 249.125 L 177.363281 249.125 C 181.171875 249.125 184.949219 249.222656 188.769531 249.472656 C 192.167969 249.699219 195.648438 250.460938 199.027344 250.070312 C 206.386719 249.234375 213.9375 248.734375 221.339844 249.375 C 224.671875 249.667969 228.351562 250.070312 231.140625 252.089844 C 233.734375 253.976562 236.058594 256.527344 236.882812 259.699219 C 238.5 265.898438 233.246094 271.292969 228.046875 273.683594 C 221.535156 276.679688 214.023438 277.96875 207.015625 279.199219 C 205.277344 279.503906 203.53125 279.792969 201.78125 280.078125 L 201.78125 298.925781 L 239.484375 298.925781 L 239.484375 307.828125 Z M 351.761719 147.9375 C 347.160156 146.527344 341.117188 145.441406 332.964844 144.800781 C 323.242188 144.0625 310.511719 143.988281 293.589844 144.820312 C 293.589844 144.820312 266.945312 147.15625 251.328125 152.5625 C 242.851562 155.503906 232.289062 160.03125 229.804688 167.871094 C 227.320312 175.710938 229.261719 192.984375 233.179688 202.222656 C 237.097656 211.484375 247.257812 223.847656 255.796875 229.625 C 263.699219 234.988281 278.882812 241.601562 299.742188 241.46875 C 312.617188 241.394531 326.179688 240.15625 337.4375 236.355469 C 342.246094 234.738281 346.652344 232.65625 350.375 229.984375 C 353.988281 227.398438 356.898438 224.328125 359.25 221.027344 C 365.027344 212.925781 367.457031 203.296875 368.59375 195.089844 C 370.191406 183.527344 371.992188 163.757812 365.210938 156.101562 C 362.453125 152.988281 358.765625 150.097656 351.761719 147.9375 Z M 143.304688 229.636719 C 151.835938 223.859375 161.992188 211.484375 165.890625 202.234375 C 169.820312 192.984375 171.773438 175.722656 169.277344 167.882812 C 166.792969 160.042969 156.242188 155.503906 147.757812 152.574219 C 132.148438 147.164062 105.492188 144.832031 105.492188 144.832031 C 86.175781 143.867188 72.28125 144.117188 62.125 145.167969 C 53.496094 146.082031 47.527344 147.589844 43.21875 149.46875 C 38.765625 151.378906 36.042969 153.679688 33.882812 156.125 C 27.109375 163.777344 28.890625 183.539062 30.484375 195.109375 C 31.375 201.492188 33.046875 208.734375 36.453125 215.445312 C 39.222656 220.894531 43.152344 226.019531 48.742188 230.003906 C 51.292969 231.839844 54.203125 233.394531 57.292969 234.726562 C 69.296875 239.820312 84.761719 241.40625 99.359375 241.492188 C 120.199219 241.601562 135.394531 235 143.304688 229.636719 Z M 74.226562 131.53125 C 90.632812 131.660156 107.152344 132.8125 123.628906 135.019531 C 132.800781 136.246094 141.9375 137.773438 151.023438 139.632812 C 158.425781 141.226562 164.351562 142.703125 169.582031 144.007812 C 181.152344 146.90625 188.792969 148.792969 199.578125 148.816406 C 210.335938 148.792969 217.953125 146.882812 229.511719 144.007812 C 234.742188 142.703125 240.667969 141.226562 248.027344 139.644531 C 256.101562 137.980469 264.199219 136.625 272.328125 135.464844 C 288.488281 133.171875 304.703125 131.859375 320.832031 131.585938 C 323.066406 131.542969 325.324219 131.5 327.570312 131.5 C 328.796875 131.5 330.023438 131.511719 331.226562 131.519531 L 330.339844 124.820312 L 329.90625 123.464844 L 309.316406 61.808594 L 257.828125 51.722656 L 197.703125 39.976562 L 197.703125 39.953125 L 197.65625 39.953125 C 197.65625 39.953125 197.636719 39.953125 197.582031 39.964844 C 197.527344 39.953125 197.496094 39.953125 197.496094 39.953125 L 197.453125 39.953125 L 197.453125 39.988281 C 195.195312 40.238281 165.4375 46.066406 137.207031 51.636719 C 110.855469 56.824219 85.835938 61.820312 85.835938 61.820312 L 65.25 123.476562 L 64.792969 124.832031 L 63.914062 131.597656 C 66.449219 131.539062 68.988281 131.511719 71.523438 131.511719 C 72.421875 131.5 73.324219 131.53125 74.226562 131.53125 Z M 74.226562 131.53125 "/>
<path style=" stroke:none;fill-rule:nonzero;fill:rgb(27.058824%,27.058824%,27.058824%);fill-opacity:1;" d="M 395.1875 138.351562 C 394.980469 138.285156 378.351562 133.898438 350.179688 132.195312 L 348.605469 117.039062 L 345.25 106.984375 L 365.253906 85.542969 C 383.421875 66.0625 382.359375 35.558594 362.886719 17.394531 L 359.078125 13.832031 C 339.617188 -4.332031 309.109375 -3.265625 290.953125 16.199219 L 273.71875 34.675781 L 197.703125 18.773438 L 197.703125 18.75 L 197.648438 18.75 C 197.648438 18.75 197.617188 18.75 197.5625 18.761719 C 197.496094 18.75 197.460938 18.75 197.460938 18.75 L 197.421875 18.75 L 197.421875 18.78125 C 194.632812 19.097656 155.398438 27.347656 121.273438 34.570312 L 104.148438 16.210938 C 86.007812 -3.265625 55.5 -4.320312 36.042969 13.84375 L 32.234375 17.402344 C 12.773438 35.578125 11.710938 66.078125 29.867188 85.550781 L 49.878906 106.996094 L 46.515625 117.050781 L 44.929688 132.457031 C 19.175781 134.332031 4.070312 138.296875 3.894531 138.359375 C 1.238281 139.113281 0.140625 141.804688 0.238281 144.148438 L 3.417969 166.925781 L 4.785156 167.652344 C 9.160156 169.976562 10.277344 173.484375 16.214844 194.242188 L 17.265625 197.902344 C 23.734375 220.429688 29.140625 230.308594 39.832031 237.984375 L 58.03125 300.773438 L 158.761719 341.960938 L 197.714844 345.914062 L 236.382812 341.960938 L 341.117188 300.769531 L 355.453125 240.492188 C 355.617188 240.394531 355.789062 240.296875 355.953125 240.199219 C 368.921875 232.121094 374.726562 222.632812 381.816406 197.902344 L 382.878906 194.1875 C 388.804688 173.472656 389.914062 169.976562 394.296875 167.652344 L 395.664062 166.925781 L 398.8125 144.453125 L 398.835938 144.160156 C 398.921875 141.804688 397.835938 139.109375 395.1875 138.351562 Z M 64.78125 124.820312 L 65.238281 123.464844 L 85.824219 61.808594 C 85.824219 61.808594 110.851562 56.8125 137.195312 51.625 C 165.421875 46.046875 195.183594 40.226562 197.441406 39.976562 L 197.441406 39.953125 L 197.484375 39.953125 C 197.484375 39.953125 197.515625 39.953125 197.570312 39.964844 C 197.625 39.953125 197.648438 39.953125 197.648438 39.953125 L 197.6875 39.953125 L 197.6875 39.988281 L 257.816406 51.734375 L 309.304688 61.820312 L 329.890625 123.476562 L 330.328125 124.832031 L 331.21875 131.53125 C 330.011719 131.519531 328.785156 131.511719 327.558594 131.511719 C 325.3125 131.511719 323.054688 131.554688 320.820312 131.597656 C 304.703125 131.867188 288.488281 133.183594 272.316406 135.472656 C 264.1875 136.625 256.089844 137.980469 248.015625 139.652344 C 240.65625 141.238281 234.730469 142.714844 229.5 144.019531 C 217.953125 146.90625 210.324219 148.804688 199.566406 148.828125 C 188.78125 148.804688 181.148438 146.90625 169.570312 144.019531 C 164.335938 142.714844 158.414062 141.238281 151.007812 139.640625 C 141.933594 137.792969 132.796875 136.253906 123.617188 135.027344 C 107.238281 132.832031 90.738281 131.667969 74.210938 131.542969 C 73.3125 131.542969 72.410156 131.511719 71.5 131.511719 C 68.90625 131.511719 66.355469 131.542969 63.890625 131.597656 Z M 57.28125 234.707031 C 54.1875 233.371094 51.28125 231.820312 48.730469 229.984375 C 43.140625 225.996094 39.210938 220.875 36.445312 215.425781 C 33.046875 208.714844 31.367188 201.472656 30.476562 195.089844 C 28.878906 183.527344 27.085938 163.757812 33.871094 156.101562 C 36.03125 153.648438 38.753906 151.347656 43.203125 149.445312 C 47.515625 147.566406 53.484375 146.058594 62.109375 145.148438 C 72.28125 144.082031 86.164062 143.84375 105.480469 144.808594 C 105.480469 144.808594 132.125 147.144531 147.742188 152.550781 C 156.230469 155.492188 166.789062 160.023438 169.265625 167.859375 C 171.761719 175.699219 169.820312 192.972656 165.878906 202.210938 C 161.984375 211.472656 151.824219 223.835938 143.292969 229.613281 C 135.382812 234.976562 120.1875 241.589844 99.335938 241.460938 C 84.761719 241.394531 69.296875 239.796875 57.28125 234.707031 Z M 323.773438 291.5 L 231.695312 329.457031 L 197.6875 333.589844 L 163.449219 329.457031 L 71.371094 291.5 L 60.296875 246.789062 C 71.109375 249.492188 84.511719 251.089844 98.070312 251.089844 C 104.253906 251.089844 110.246094 250.765625 115.898438 250.078125 C 148.371094 246.234375 164.617188 225.855469 167.550781 221.808594 C 174.007812 212.882812 181.28125 196.988281 187.542969 182.625 C 189.757812 177.546875 198.417969 177.328125 199.566406 177.316406 L 200.488281 177.339844 C 202.953125 177.492188 209.671875 178.28125 211.558594 182.625 C 217.8125 197 225.105469 212.90625 231.550781 221.808594 C 234.480469 225.855469 250.71875 246.246094 283.203125 250.078125 C 288.84375 250.765625 294.835938 251.089844 301.023438 251.089844 C 312.886719 251.089844 324.628906 249.863281 334.625 247.757812 Z M 368.59375 195.101562 C 367.453125 203.308594 365.023438 212.9375 359.25 221.035156 C 356.882812 224.347656 353.984375 227.410156 350.371094 229.992188 C 346.640625 232.664062 342.242188 234.75 337.433594 236.367188 C 326.179688 240.167969 312.613281 241.40625 299.742188 241.480469 C 278.882812 241.609375 263.699219 235 255.796875 229.636719 C 247.257812 223.859375 237.097656 211.484375 233.179688 202.234375 C 229.273438 192.984375 227.320312 175.722656 229.804688 167.882812 C 232.289062 160.042969 242.851562 155.503906 251.328125 152.574219 C 266.933594 147.164062 293.589844 144.832031 293.589844 144.832031 C 310.507812 143.996094 323.230469 144.074219 332.964844 144.808594 C 341.113281 145.453125 347.171875 146.539062 351.761719 147.949219 C 358.761719 150.109375 362.441406 152.996094 365.210938 156.125 C 371.980469 163.765625 370.191406 183.527344 368.59375 195.101562 Z M 201.792969 280.066406 C 203.539062 279.785156 205.289062 279.492188 207.023438 279.1875 C 214.035156 277.960938 221.546875 276.679688 228.054688 273.671875 C 233.257812 271.285156 238.519531 265.886719 236.890625 259.6875 C 236.066406 256.519531 233.742188 253.96875 231.148438 252.078125 C 228.359375 250.058594 224.671875 249.65625 221.351562 249.363281 C 213.949219 248.722656 206.394531 249.222656 199.035156 250.058594 C 195.648438 250.449219 192.175781 249.699219 188.78125 249.460938 C 184.980469 249.21875 181.179688 249.105469 177.375 249.113281 C 178.40625 249.125 174.921875 249.199219 177.003906 249.125 C 173.347656 249.265625 169.394531 249.429688 165.945312 250.753906 C 162.90625 251.914062 160.179688 254.5625 158.648438 257.394531 C 155.4375 263.414062 159.390625 269.492188 164.640625 272.652344 C 167.539062 274.378906 170.925781 275.363281 174.148438 276.246094 C 177.71875 277.246094 181.34375 277.992188 184.992188 278.699219 C 187.617188 279.207031 190.242188 279.652344 192.902344 280.066406 L 192.902344 298.925781 L 155.222656 298.925781 L 155.222656 307.816406 L 239.5 307.816406 L 239.5 298.925781 L 201.792969 298.925781 Z M 201.792969 280.066406 "/>
</g>
</svg>
