<?xml version="1.0" encoding="UTF-8"?>
<svg xmlns="http://www.w3.org/2000/svg" xmlns:xlink="http://www.w3.org/1999/xlink" width="400px" height="px" viewBox="0 0 397 80" version="1.1">
<g id="surface1">
<path style=" stroke:none;fill-rule:nonzero;fill:rgb(34.117647%,24.313725%,49.019608%);fill-opacity:1;" d="M 0.1875 0.152344 C 0.515625 0.09375 0.78125 0 1.046875 0 C 12.03125 0.0429688 23.011719 0.0273438 33.996094 0.179688 C 37.738281 0.230469 41.175781 1.554688 44.25 3.746094 C 51.269531 8.746094 51.917969 23.035156 42.28125 28.160156 C 41.792969 28.421875 41.304688 28.683594 40.636719 29.042969 C 42.46875 29.882812 44.269531 30.445312 45.78125 31.453125 C 51.574219 35.308594 53.933594 43.933594 51.339844 51.511719 C 49.078125 58.121094 43.703125 60.851562 37.453125 62.300781 C 35.398438 62.777344 33.25 63.027344 31.140625 63.042969 C 20.875 63.117188 10.609375 63.074219 0.1875 63.074219 C 0.1875 42.125 0.1875 21.171875 0.1875 0.152344 Z M 11.167969 53.851562 C 18.804688 53.851562 26.21875 54.027344 33.621094 53.789062 C 38.273438 53.640625 41.636719 48.644531 41.355469 43.789062 C 41.078125 39 38.136719 34.925781 33.585938 34.714844 C 26.246094 34.371094 18.890625 34.46875 11.539062 34.390625 C 11.429688 34.390625 11.316406 34.550781 11.167969 34.667969 Z M 11.195312 26.191406 C 18.019531 26.191406 24.601562 26.441406 31.152344 26.109375 C 35.976562 25.867188 38.703125 22 38.519531 16.71875 C 38.359375 12.042969 35.605469 9.230469 30.640625 9.097656 C 24.414062 8.933594 18.183594 9.011719 11.957031 8.996094 C 11.703125 8.996094 11.449219 9.132812 11.195312 9.203125 Z M 351.515625 17.546875 L 360.667969 17.546875 L 360.667969 22.460938 C 361.6875 21.675781 362.929688 20.800781 364.074219 19.816406 C 371.089844 13.785156 387.726562 14.527344 393.421875 26.667969 C 398.320312 37.117188 398.105469 47.625 391.492188 57.355469 C 387.828125 62.742188 382.15625 64.667969 375.730469 64.324219 C 370.148438 64.019531 365.234375 62.261719 361.363281 57.085938 L 361.363281 80 L 351.515625 80 C 351.515625 59.164062 351.515625 38.414062 351.515625 17.546875 Z M 360.8125 40.558594 C 361.226562 42.847656 361.453125 45.191406 362.089844 47.414062 C 363.515625 52.375 367.847656 56.046875 372.335938 56.363281 C 378.339844 56.789062 382.652344 54.566406 384.824219 49.234375 C 387.582031 42.457031 387.484375 35.625 383.453125 29.292969 C 378.699219 21.824219 367.300781 22.449219 363.273438 30.273438 C 361.613281 33.492188 360.800781 36.882812 360.8125 40.558594 Z M 345.027344 56.558594 C 345.027344 58.429688 345.09375 60.332031 344.980469 62.222656 C 344.953125 62.691406 344.367188 63.480469 343.988281 63.511719 C 341.132812 63.75 338.230469 64.167969 335.414062 63.871094 C 332.929688 63.613281 331.558594 61.503906 330.792969 59.0625 C 324.894531 63.875 318.128906 64.914062 310.933594 64.019531 C 304.914062 63.273438 299.929688 58.324219 299.5 52.832031 C 298.910156 45.257812 301.8125 40.324219 308.605469 38.53125 C 313.367188 37.273438 318.324219 36.765625 323.195312 35.917969 C 324.375 35.710938 325.570312 35.542969 326.726562 35.226562 C 328.941406 34.621094 330.539062 33.390625 330.703125 30.867188 C 330.871094 28.253906 329.859375 26.21875 327.410156 25.230469 C 323.226562 23.546875 318.96875 23.585938 314.847656 25.515625 C 312.96875 26.398438 311.855469 28.167969 310.871094 31.175781 L 301.222656 31.175781 C 301.230469 27.492188 302.507812 24.394531 304.953125 21.789062 C 308.179688 18.34375 312.386719 16.992188 316.917969 16.519531 C 321.660156 16.023438 326.378906 16.042969 330.984375 17.601562 C 337.179688 19.691406 340.148438 23.785156 340.140625 30.339844 C 340.132812 37.300781 340.136719 44.257812 340.136719 51.214844 C 340.132812 56.15625 340.132812 56.15625 345.027344 56.558594 Z M 330.113281 40.855469 C 327.074219 41.382812 324.292969 41.789062 321.546875 42.363281 C 318.65625 42.96875 315.714844 43.492188 312.960938 44.503906 C 310.257812 45.492188 309.34375 48.019531 309.429688 50.734375 C 309.515625 53.328125 311.285156 54.78125 313.566406 55.582031 C 317.476562 56.949219 321.398438 56.78125 325.128906 55.03125 C 327.800781 53.78125 329.835938 51.734375 330.074219 48.609375 C 330.273438 46.003906 330.113281 43.371094 330.113281 40.855469 Z M 81.824219 16.234375 C 96.957031 16.054688 105.832031 27.164062 104.894531 42.292969 C 104.570312 47.550781 103.160156 52.464844 99.703125 56.621094 C 95.980469 61.097656 91.1875 63.457031 85.445312 64.09375 C 80.648438 64.632812 75.984375 64.316406 71.542969 62.296875 C 64.921875 59.285156 61.148438 54.035156 59.558594 47.035156 C 58.46875 42.242188 58.519531 37.464844 59.738281 32.71875 C 62.433594 22.253906 70.480469 16.273438 81.824219 16.234375 Z M 68.648438 40.375 C 69.046875 42.59375 69.253906 44.871094 69.878906 47.027344 C 71.464844 52.511719 75.789062 56.132812 80.734375 56.375 C 86.84375 56.671875 91.117188 54.097656 93.386719 48.394531 C 95.605469 42.832031 95.609375 37.136719 93.179688 31.640625 C 89.578125 23.496094 79.765625 21.410156 73.449219 27.464844 C 69.84375 30.917969 68.914062 35.503906 68.648438 40.375 Z M 134.328125 16.234375 C 147.976562 16.214844 157.261719 25.425781 157.4375 39.125 C 157.507812 44.914062 156.566406 50.429688 153.175781 55.277344 C 148.324219 62.214844 141.3125 64.640625 133.238281 64.273438 C 130.265625 64.136719 127.183594 63.476562 124.410156 62.386719 C 117.902344 59.828125 114.023438 54.789062 112.296875 48.046875 C 110.785156 42.125 110.953125 36.242188 112.878906 30.457031 C 115.832031 21.578125 123.929688 16.25 134.328125 16.234375 Z M 147.410156 39.144531 C 147.191406 37.929688 146.972656 35.582031 146.320312 33.359375 C 144.65625 27.714844 140.261719 24.289062 134.722656 24.046875 C 129.511719 23.820312 124.820312 26.898438 122.796875 32.292969 C 120.414062 38.644531 120.589844 44.972656 124.179688 50.890625 C 127.917969 57.054688 136.394531 58.40625 141.953125 53.804688 C 146.195312 50.296875 147.234375 45.449219 147.410156 39.144531 Z M 231.800781 30.207031 C 228.6875 30.207031 225.652344 30.230469 222.621094 30.171875 C 222.246094 30.164062 221.667969 29.789062 221.546875 29.457031 C 219.839844 24.714844 215.832031 24.148438 211.683594 24.125 C 209.964844 24.117188 208.132812 24.535156 206.542969 25.203125 C 203.136719 26.632812 202.761719 30.488281 205.949219 32.335938 C 208.164062 33.617188 210.761719 34.308594 213.253906 35.011719 C 216.785156 36.007812 220.433594 36.605469 223.941406 37.667969 C 232.910156 40.382812 236.417969 49.390625 231.394531 56.816406 C 228.984375 60.378906 225.382812 62.308594 221.25 63.304688 C 215.144531 64.78125 209.066406 64.890625 203.097656 62.730469 C 196.714844 60.421875 193.339844 55.785156 192.84375 48.765625 L 202.585938 48.765625 C 205.355469 56.007812 213.183594 58.828125 220.515625 55.128906 C 222.210938 54.269531 223.34375 53.054688 223.457031 51.050781 C 223.578125 48.910156 222.753906 47.070312 220.835938 46.355469 C 217.417969 45.078125 213.847656 44.199219 210.335938 43.171875 C 207.429688 42.316406 204.429688 41.699219 201.625 40.589844 C 196.214844 38.441406 193.863281 34.75 193.894531 29.117188 C 193.925781 24.207031 196.789062 20 201.871094 18.15625 C 208.867188 15.617188 216.003906 15.300781 223.027344 18.054688 C 227.777344 19.917969 230.609375 23.59375 231.785156 28.542969 C 231.894531 29 231.800781 29.503906 231.800781 30.207031 Z M 178.90625 17.421875 L 187.921875 17.421875 L 187.921875 24.804688 L 179.085938 24.804688 C 179.023438 25.691406 178.945312 26.308594 178.945312 26.929688 C 178.933594 34.382812 178.929688 41.835938 178.945312 49.289062 C 178.949219 50.28125 179.023438 51.273438 179.125 52.261719 C 179.316406 54.234375 180.410156 55.40625 182.390625 55.511719 C 184.207031 55.613281 186.03125 55.535156 187.953125 55.535156 L 187.953125 62.917969 C 183.835938 63.9375 179.652344 63.886719 175.597656 62.980469 C 170.878906 61.929688 168.964844 58.675781 168.921875 52.523438 C 168.867188 44.148438 168.90625 35.769531 168.902344 27.390625 L 168.902344 24.929688 L 161.414062 24.929688 L 161.414062 17.460938 L 168.800781 17.460938 L 168.800781 3.785156 L 178.90625 3.785156 C 178.90625 8.257812 178.90625 12.699219 178.90625 17.421875 Z M 263.238281 63.203125 C 259.355469 63.203125 255.683594 63.324219 252.023438 63.167969 C 248.476562 63.015625 245.742188 60.660156 244.96875 57.144531 C 244.527344 55.136719 244.292969 53.089844 244.269531 51.035156 C 244.191406 43.15625 244.238281 35.273438 244.238281 27.390625 L 244.238281 24.898438 L 236.773438 24.898438 L 236.773438 17.53125 L 244.125 17.53125 L 244.125 3.796875 L 254.25 3.796875 L 254.25 17.308594 L 263.222656 17.308594 L 263.222656 24.730469 L 254.613281 24.730469 C 254.511719 25.398438 254.375 25.863281 254.375 26.324219 C 254.367188 34.351562 254.34375 42.375 254.394531 50.394531 C 254.421875 54.640625 255.53125 55.660156 259.730469 55.628906 C 260.851562 55.625 261.976562 55.628906 263.238281 55.628906 Z M 280.078125 17.574219 L 280.078125 25.34375 C 283.964844 18.734375 289.347656 15.289062 297.292969 16.460938 L 297.292969 26.046875 C 293.519531 25.480469 289.878906 25.378906 286.652344 27.699219 C 282.421875 30.746094 280.945312 35.195312 280.839844 40.101562 C 280.675781 47.683594 280.796875 55.273438 280.796875 63.027344 L 270.882812 63.027344 L 270.882812 17.574219 C 273.886719 17.574219 276.824219 17.574219 280.078125 17.574219 Z M 280.078125 17.574219 "/>
</g>
</svg>
