<?xml version="1.0" encoding="UTF-8"?>
<svg xmlns="http://www.w3.org/2000/svg" xmlns:xlink="http://www.w3.org/1999/xlink" width="400px" height="px" viewBox="0 0 400 400" version="1.1">
<g id="surface1">
<rect x="0" y="0" width="400" height="400" style="fill:rgb(100%,100%,100%);fill-opacity:1;stroke:none;"/>
<path style=" stroke:none;fill-rule:evenodd;fill:rgb(0%,0%,0%);fill-opacity:1;" d="M 119.382812 158.699219 L 119.382812 180.289062 L 138.21875 180.289062 L 138.21875 241.335938 L 162.867188 241.335938 L 162.867188 180.289062 L 181.707031 180.289062 L 181.707031 158.699219 Z M 234.898438 208.410156 C 244.375 205.1875 250.324219 196.378906 250.324219 185.019531 C 250.324219 177.328125 248.015625 171.117188 243.453125 166.558594 C 238.3125 161.417969 230.515625 158.703125 220.898438 158.703125 L 188.402344 158.703125 L 188.402344 241.335938 L 213.1875 241.335938 L 213.1875 216.648438 L 228.9375 241.332031 L 260.152344 241.332031 Z M 213.1875 178.863281 C 216.378906 178.882812 220.683594 179.207031 222.910156 181.429688 C 224.03125 182.554688 224.582031 184.132812 224.582031 186.261719 C 224.582031 191.4375 221.257812 193.585938 213.1875 193.652344 Z M 288.625 241.335938 L 288.625 158.664062 L 264.070312 158.664062 L 264.070312 241.335938 Z M 354.761719 196.734375 L 382.109375 158.753906 L 351.710938 158.753906 L 340.359375 176.257812 L 330.558594 158.753906 L 300.238281 158.753906 L 325.632812 196.597656 L 292.542969 241.335938 L 322.53125 241.335938 L 339.980469 216.992188 L 353.777344 241.335938 L 383.480469 241.335938 Z M 87.902344 158.664062 L 87.902344 241.335938 L 112.683594 241.335938 L 112.683594 158.664062 Z M 87.902344 158.664062 "/>
<path style=" stroke:none;fill-rule:evenodd;fill:rgb(80%,12.941176%,19.215686%);fill-opacity:1;" d="M 100.292969 153.640625 C 108.878906 153.640625 115.835938 146.679688 115.835938 138.097656 C 115.835938 129.511719 108.878906 122.550781 100.292969 122.550781 C 91.707031 122.550781 84.746094 129.511719 84.746094 138.097656 C 84.746094 146.679688 91.707031 153.640625 100.292969 153.640625 Z M 276.460938 277.445312 C 285.042969 277.445312 292.003906 270.488281 292.003906 261.902344 C 292.003906 253.320312 285.042969 246.359375 276.460938 246.359375 C 267.875 246.359375 260.917969 253.320312 260.917969 261.902344 C 260.917969 270.488281 267.875 277.445312 276.460938 277.445312 Z M 276.460938 277.445312 "/>
<path style=" stroke:none;fill-rule:evenodd;fill:rgb(0%,0%,0%);fill-opacity:1;" d="M 67.339844 208.855469 C 63.664062 214.9375 56.453125 218.851562 49.164062 218.851562 C 38.75 218.851562 31.121094 210.414062 31.121094 200 C 31.121094 189.585938 38.75 181.148438 49.164062 181.148438 C 56.457031 181.148438 63.667969 185.066406 67.339844 191.148438 L 80.367188 170.066406 C 72.492188 161.855469 61.433594 156.722656 49.160156 156.722656 C 25.257812 156.722656 5.882812 176.097656 5.882812 200 C 5.882812 223.902344 25.257812 243.28125 49.160156 243.28125 C 61.433594 243.28125 72.492188 238.144531 80.367188 229.9375 Z M 387.46875 161.988281 C 387.46875 160.152344 388.957031 158.664062 390.792969 158.664062 C 392.632812 158.664062 394.121094 160.152344 394.121094 161.988281 C 394.058594 163.78125 392.585938 165.199219 390.792969 165.199219 C 389.003906 165.199219 387.53125 163.78125 387.46875 161.988281 Z M 390.792969 164.867188 C 392.386719 164.867188 393.675781 163.574219 393.671875 161.984375 C 393.671875 160.394531 392.382812 159.105469 390.789062 159.105469 C 389.199219 159.109375 387.910156 160.398438 387.914062 161.988281 C 387.914062 163.578125 389.203125 164.867188 390.792969 164.867188 Z M 391.398438 162.09375 C 391.820312 162.03125 392.289062 161.824219 392.289062 161.195312 C 392.289062 160.324219 391.507812 160.140625 390.722656 160.140625 L 389.492188 160.140625 L 389.492188 163.792969 L 390.089844 163.792969 L 390.089844 162.351562 L 390.722656 162.351562 C 391.386719 162.351562 391.640625 162.5625 391.640625 163.332031 C 391.640625 163.539062 391.652344 163.660156 391.6875 163.792969 L 392.289062 163.792969 C 392.242188 163.710938 392.21875 163.445312 392.21875 163.1875 C 392.222656 162.535156 391.941406 162.210938 391.398438 162.09375 Z M 390.089844 161.914062 L 390.089844 160.582031 L 390.722656 160.582031 C 391.304688 160.582031 391.644531 160.785156 391.644531 161.195312 C 391.644531 161.679688 391.324219 161.914062 390.722656 161.914062 Z M 390.089844 161.914062 "/>
</g>
</svg>
