<?xml version="1.0" encoding="UTF-8"?>
<svg xmlns="http://www.w3.org/2000/svg" xmlns:xlink="http://www.w3.org/1999/xlink" width="400px" height="px" viewBox="0 0 401 52" version="1.1">
<defs>
<linearGradient id="linear0" gradientUnits="userSpaceOnUse" x1="59.68" y1="67.65" x2="20.35" y2="45.05" gradientTransform="matrix(0.759713,0,0,0.760157,-0.174734,2.326857)">
<stop offset="0.18" style="stop-color:rgb(0%,32.156863%,80%);stop-opacity:1;"/>
<stop offset="1" style="stop-color:rgb(14.901961%,51.764706%,100%);stop-opacity:1;"/>
</linearGradient>
<linearGradient id="linear1" gradientUnits="userSpaceOnUse" x1="279.76" y1="-1616.34" x2="240.42" y2="-1638.95" gradientTransform="matrix(-0.759713,0,0,-0.760157,214.694806,-1226.626713)">
<stop offset="0.18" style="stop-color:rgb(0%,32.156863%,80%);stop-opacity:1;"/>
<stop offset="1" style="stop-color:rgb(14.901961%,51.764706%,100%);stop-opacity:1;"/>
</linearGradient>
</defs>
<g id="surface1">
<path style=" stroke:none;fill-rule:nonzero;fill:rgb(14.509804%,21.960784%,34.509804%);fill-opacity:1;" d="M 101.984375 47.9375 C 99.242188 49.746094 94.894531 50.542969 90.351562 50.542969 C 75.917969 50.542969 67.757812 41.847656 67.757812 28.003906 C 67.757812 14.625 75.917969 5.261719 90.222656 5.261719 C 94.5 5.261719 98.777344 6.066406 101.921875 8.300781 L 101.921875 14.125 C 98.777344 12.117188 95.304688 11.082031 90.222656 11.082031 C 79.929688 11.082031 73.777344 17.925781 73.777344 28.003906 C 73.777344 38.085938 80.125 44.796875 90.558594 44.796875 C 94.515625 44.832031 98.425781 43.914062 101.953125 42.121094 Z M 106.183594 33.097656 C 106.183594 23.0625 112.066406 15.773438 122.09375 15.773438 C 132.121094 15.773438 137.871094 23.0625 137.871094 33.097656 C 137.871094 43.132812 132.054688 50.582031 122.09375 50.582031 C 112.132812 50.582031 106.183594 43.132812 106.183594 33.097656 Z M 111.800781 33.097656 C 111.800781 39.453125 114.945312 45.207031 122.09375 45.207031 C 129.242188 45.207031 132.257812 39.453125 132.257812 33.097656 C 132.257812 26.742188 129.21875 21.125 122.101562 21.125 C 114.984375 21.125 111.816406 26.742188 111.816406 33.097656 Z M 172.988281 49.890625 L 167.234375 49.890625 L 167.234375 29.691406 C 167.234375 23.671875 164.828125 20.996094 159.351562 20.996094 C 154.03125 20.996094 150.324219 24.539062 150.324219 31.296875 L 150.324219 49.890625 L 144.574219 49.890625 L 144.574219 16.441406 L 150.324219 16.441406 L 150.324219 21.929688 C 152.410156 18.058594 156.488281 15.679688 160.882812 15.773438 C 168.574219 15.773438 172.988281 21.09375 172.988281 30.292969 Z M 188.992188 16.441406 L 197.617188 16.441406 L 197.617188 21.765625 L 188.992188 21.765625 L 188.992188 49.890625 L 183.378906 49.890625 L 183.378906 21.765625 L 177.960938 21.765625 L 177.960938 16.441406 L 183.378906 16.441406 L 183.378906 12.765625 C 183.378906 6.546875 186.859375 2.328125 194.015625 2.328125 C 195.324219 2.320312 196.628906 2.5 197.890625 2.859375 L 197.890625 8.179688 C 196.699219 7.953125 195.492188 7.839844 194.28125 7.84375 C 190.742188 7.84375 188.964844 9.921875 188.964844 12.929688 Z M 212.765625 50.085938 C 207.28125 50.085938 203.808594 47.480469 203.808594 41.324219 L 203.808594 2.464844 L 209.558594 2.464844 L 209.558594 40.652344 C 209.558594 43.695312 211.566406 44.734375 214.042969 44.734375 C 214.597656 44.746094 215.15625 44.722656 215.710938 44.667969 L 215.710938 49.820312 C 214.746094 50.027344 213.753906 50.117188 212.765625 50.085938 Z M 220.582031 16.441406 L 226.332031 16.441406 L 226.332031 36.640625 C 226.332031 42.660156 228.742188 45.335938 234.21875 45.335938 C 239.539062 45.335938 243.246094 41.792969 243.246094 35.035156 L 243.246094 16.441406 L 249.011719 16.441406 L 249.011719 49.890625 L 243.261719 49.890625 L 243.261719 44.402344 C 241.171875 48.273438 237.097656 50.652344 232.699219 50.558594 C 225.011719 50.558594 220.597656 45.238281 220.597656 36.046875 Z M 273.664062 50.558594 C 261.160156 50.558594 255.679688 43.335938 255.679688 33.074219 C 255.679688 22.972656 261.296875 15.75 271.460938 15.75 C 281.753906 15.75 285.894531 22.910156 285.894531 33.074219 L 285.894531 35.683594 L 261.5 35.683594 C 262.304688 41.367188 265.984375 45.046875 273.867188 45.046875 C 277.335938 45.042969 280.777344 44.433594 284.035156 43.238281 L 284.035156 48.558594 C 281.285156 50.019531 277.074219 50.558594 273.664062 50.558594 Z M 261.433594 30.792969 L 280.082031 30.792969 C 279.75 24.578125 276.9375 21.027344 271.195312 21.027344 C 265.109375 20.988281 262.03125 24.933594 261.433594 30.757812 Z M 321.128906 49.890625 L 315.378906 49.890625 L 315.378906 29.691406 C 315.378906 23.671875 312.972656 20.996094 307.492188 20.996094 C 302.175781 20.996094 298.46875 24.539062 298.46875 31.296875 L 298.46875 49.890625 L 292.71875 49.890625 L 292.71875 16.441406 L 298.46875 16.441406 L 298.46875 21.929688 C 300.554688 18.058594 304.632812 15.679688 309.027344 15.773438 C 316.714844 15.773438 321.128906 21.09375 321.128906 30.292969 Z M 352.757812 49.015625 C 350.75 50.085938 347.675781 50.535156 344.597656 50.535156 C 332.699219 50.535156 327.125 43.316406 327.125 33.050781 C 327.125 22.949219 332.671875 15.726562 344.597656 15.726562 C 347.339844 15.636719 350.0625 16.1875 352.550781 17.332031 L 352.550781 22.652344 C 350.191406 21.542969 347.609375 20.992188 345 21.050781 C 336.308594 21.050781 332.769531 26.539062 332.769531 33.023438 C 332.769531 39.507812 336.378906 45.070312 345.128906 45.070312 C 347.714844 45.140625 350.289062 44.730469 352.726562 43.871094 Z M 375.28125 50.558594 C 362.777344 50.558594 357.300781 43.335938 357.300781 33.074219 C 357.300781 22.972656 362.914062 15.75 373.078125 15.75 C 383.375 15.75 387.515625 22.910156 387.515625 33.074219 L 387.515625 35.683594 L 363.113281 35.683594 C 363.917969 41.367188 367.59375 45.046875 375.480469 45.046875 C 378.949219 45.042969 382.390625 44.433594 385.644531 43.238281 L 385.644531 48.558594 C 382.902344 50.019531 378.695312 50.558594 375.28125 50.558594 Z M 363.050781 30.792969 L 381.703125 30.792969 C 381.367188 24.578125 378.558594 21.027344 372.8125 21.027344 C 366.726562 20.988281 363.652344 24.933594 363.050781 30.757812 Z M 363.050781 30.792969 "/>
<path style=" stroke:none;fill-rule:nonzero;fill:url(#linear0);" d="M 1.519531 39.976562 C 1.027344 40.785156 0.472656 41.71875 0 42.464844 C -0.421875 43.175781 -0.195312 44.09375 0.507812 44.53125 L 10.386719 50.613281 C 10.730469 50.828125 11.148438 50.890625 11.546875 50.792969 C 11.941406 50.699219 12.28125 50.445312 12.488281 50.09375 C 12.882812 49.433594 13.394531 48.574219 13.949219 47.65625 C 17.859375 41.195312 21.796875 41.984375 28.890625 45.375 L 38.683594 50.035156 C 39.054688 50.210938 39.480469 50.230469 39.867188 50.085938 C 40.253906 49.945312 40.5625 49.648438 40.726562 49.273438 L 45.429688 38.632812 C 45.761719 37.871094 45.425781 36.984375 44.671875 36.640625 C 42.605469 35.667969 38.496094 33.730469 34.792969 31.941406 C 21.484375 25.472656 10.171875 25.890625 1.519531 39.976562 Z M 1.519531 39.976562 "/>
<path style=" stroke:none;fill-rule:nonzero;fill:url(#linear1);" d="M 45.804688 15.828125 C 46.296875 15.019531 46.851562 14.085938 47.324219 13.339844 C 47.742188 12.628906 47.519531 11.710938 46.8125 11.273438 L 36.9375 5.191406 C 36.585938 4.957031 36.15625 4.878906 35.746094 4.972656 C 35.335938 5.066406 34.984375 5.328125 34.773438 5.695312 C 34.378906 6.355469 33.867188 7.214844 33.3125 8.132812 C 29.402344 14.597656 25.464844 13.804688 18.371094 10.414062 L 8.609375 5.777344 C 8.238281 5.601562 7.808594 5.582031 7.425781 5.726562 C 7.039062 5.867188 6.730469 6.160156 6.5625 6.539062 L 1.859375 17.179688 C 1.527344 17.941406 1.867188 18.828125 2.621094 19.171875 C 4.6875 20.144531 8.796875 22.082031 12.496094 23.871094 C 25.835938 30.332031 37.148438 29.898438 45.804688 15.828125 Z M 45.804688 15.828125 "/>
</g>
</svg>
