<?xml version="1.0" encoding="UTF-8"?>
<svg xmlns="http://www.w3.org/2000/svg" xmlns:xlink="http://www.w3.org/1999/xlink" width="400px" height="px" viewBox="0 0 400 400" version="1.1">
<defs>
<filter id="alpha" filterUnits="objectBoundingBox" x="0%" y="0%" width="100%" height="100%">
  <feColorMatrix type="matrix" in="SourceGraphic" values="0 0 0 0 1 0 0 0 0 1 0 0 0 0 1 0 0 0 1 0"/>
</filter>
<mask id="mask0">
  <g filter="url(#alpha)">
<rect x="0" y="0" width="400" height="400" style="fill:rgb(0%,0%,0%);fill-opacity:0.258824;stroke:none;"/>
  </g>
</mask>
<clipPath id="clip1">
  <rect x="0" y="0" width="400" height="400"/>
</clipPath>
<g id="surface5" clip-path="url(#clip1)">
<path style=" stroke:none;fill-rule:nonzero;fill:rgb(20.784314%,20.784314%,20.784314%);fill-opacity:1;" d="M 292 204.5 C 276 186 252.5 174.5 226.5 174.5 L 87 174.5 L 87 254.5 L 216.5 254.5 C 262.5 254.5 294.5 207 292 204.5 Z M 292 204.5 "/>
</g>
</defs>
<g id="surface1">
<path style=" stroke:none;fill-rule:nonzero;fill:rgb(2.745098%,64.705882%,87.058824%);fill-opacity:1;" d="M 194 225.5 L 87 225.5 L 87 52.5 L 194 52.5 C 242 52.5 280.5 91 280.5 139 C 280.5 187 242 225.5 194 225.5 Z M 194 225.5 "/>
<path style=" stroke:none;fill-rule:nonzero;fill:rgb(24.313725%,74.509804%,69.019608%);fill-opacity:1;" d="M 226.5 347.5 L 87 347.5 L 87 174.5 L 226.5 174.5 C 274.5 174.5 313 213 313 261 C 313 309 274.5 347.5 226.5 347.5 Z M 226.5 347.5 "/>
<use xlink:href="#surface5" mask="url(#mask0)"/>
<path style=" stroke:none;fill-rule:nonzero;fill:rgb(20.784314%,20.784314%,20.784314%);fill-opacity:1;" d="M 194 225.5 C 225 225.5 252 209 267.5 184.5 C 265.5 183.5 263.5 182.5 261 181.5 C 260.5 181.5 260 181 259.5 181 C 257.5 180 255.5 179.5 253 178.5 L 252.5 178.5 C 252 178.5 252 178.5 251.5 178 L 245.5 176.5 L 244.5 176.5 C 244 176.5 243.5 176.5 243.5 176 C 241.5 175.5 239.5 175.5 237.5 175 L 234.5 175 C 232 175 230 174.5 227.5 174.5 L 87 174.5 L 87 225.5 Z M 194 225.5 "/>
</g>
</svg>
