<?xml version="1.0" encoding="UTF-8"?>
<svg xmlns="http://www.w3.org/2000/svg" xmlns:xlink="http://www.w3.org/1999/xlink" width="400px" height="px" viewBox="0 0 400 400" version="1.1">
<g id="surface1">
<path style=" stroke:none;fill-rule:nonzero;fill:rgb(87.058824%,29.803922%,21.176471%);fill-opacity:1;" d="M 392.457031 182.179688 L 217.8125 7.542969 C 207.761719 -2.515625 191.449219 -2.515625 181.382812 7.542969 L 145.117188 43.808594 L 191.125 89.8125 C 201.8125 86.203125 214.074219 88.625 222.59375 97.148438 C 231.15625 105.722656 233.5625 118.085938 229.863281 128.8125 L 274.199219 173.148438 C 284.925781 169.453125 297.304688 171.84375 305.871094 180.425781 C 317.84375 192.394531 317.84375 211.792969 305.871094 223.769531 C 293.894531 235.75 274.496094 235.75 262.511719 223.769531 C 253.507812 214.753906 251.28125 201.527344 255.839844 190.433594 L 214.492188 149.085938 L 214.488281 257.894531 C 217.488281 259.375 220.222656 261.332031 222.59375 263.691406 C 234.570312 275.660156 234.570312 295.058594 222.59375 307.046875 C 210.617188 319.015625 191.210938 319.015625 179.25 307.046875 C 167.277344 295.058594 167.277344 275.660156 179.25 263.691406 C 182.121094 260.820312 185.53125 258.546875 189.285156 257.003906 L 189.285156 147.179688 C 185.527344 145.648438 182.113281 143.371094 179.25 140.492188 C 170.179688 131.433594 168 118.121094 172.648438 106.984375 L 127.296875 61.628906 L 7.546875 181.371094 C -2.515625 191.4375 -2.515625 207.75 7.546875 217.8125 L 182.195312 392.449219 C 192.25 402.507812 208.558594 402.507812 218.625 392.449219 L 392.453125 218.621094 C 402.515625 208.558594 402.515625 192.234375 392.453125 182.179688 "/>
</g>
</svg>
