<?xml version="1.0" encoding="UTF-8"?>
<svg xmlns="http://www.w3.org/2000/svg" xmlns:xlink="http://www.w3.org/1999/xlink" width="400px" height="px" viewBox="0 0 399 108" version="1.1">
<g id="surface1">
<path style=" stroke:none;fill-rule:nonzero;fill:rgb(7.058824%,6.666667%,6.27451%);fill-opacity:1;" d="M 76.863281 46.226562 L 43.339844 46.226562 C 42.476562 46.226562 41.773438 46.925781 41.773438 47.792969 L 41.773438 64.203125 C 41.773438 65.066406 42.476562 65.769531 43.339844 65.773438 L 56.417969 65.773438 L 56.417969 86.15625 C 56.417969 86.15625 53.480469 87.160156 45.363281 87.160156 C 35.785156 87.160156 22.40625 83.65625 22.40625 54.203125 C 22.40625 24.746094 36.335938 20.867188 49.417969 20.867188 C 60.742188 20.867188 65.617188 22.863281 68.722656 23.824219 C 69.699219 24.125 70.601562 23.152344 70.601562 22.285156 L 74.339844 6.433594 C 74.339844 6.027344 74.203125 5.539062 73.742188 5.207031 C 72.480469 4.308594 64.789062 0 45.363281 0 C 22.984375 0 0.0273438 9.53125 0.0273438 55.351562 C 0.0273438 101.171875 26.308594 108 48.457031 108 C 66.796875 108 77.921875 100.15625 77.921875 100.15625 C 78.382812 99.902344 78.429688 99.257812 78.429688 98.964844 L 78.429688 47.792969 C 78.429688 46.929688 77.730469 46.226562 76.863281 46.226562 M 249.636719 5.488281 C 249.640625 5.074219 249.480469 4.675781 249.1875 4.378906 C 248.894531 4.082031 248.496094 3.914062 248.082031 3.914062 L 229.203125 3.914062 C 228.335938 3.917969 227.636719 4.621094 227.640625 5.488281 L 227.644531 42.007812 L 198.222656 42.007812 L 198.222656 5.488281 C 198.226562 5.074219 198.0625 4.671875 197.769531 4.378906 C 197.476562 4.082031 197.082031 3.914062 196.664062 3.914062 L 177.789062 3.914062 C 176.921875 3.917969 176.226562 4.625 176.230469 5.488281 L 176.230469 104.367188 C 176.230469 105.238281 176.929688 105.949219 177.789062 105.949219 L 196.664062 105.949219 C 197.527344 105.949219 198.222656 105.238281 198.222656 104.367188 L 198.222656 62.074219 L 227.644531 62.074219 L 227.59375 104.367188 C 227.59375 105.238281 228.296875 105.949219 229.160156 105.949219 L 248.078125 105.949219 C 248.945312 105.949219 249.636719 105.238281 249.636719 104.367188 L 249.636719 5.488281 M 112.484375 18.464844 C 112.484375 11.660156 107.035156 6.164062 100.3125 6.164062 C 93.597656 6.164062 88.144531 11.660156 88.144531 18.464844 C 88.144531 25.261719 93.597656 30.773438 100.3125 30.773438 C 107.035156 30.773438 112.484375 25.261719 112.484375 18.464844 M 111.136719 83.507812 L 111.136719 37.867188 C 111.136719 37 110.4375 36.296875 109.574219 36.292969 L 90.757812 36.292969 C 89.894531 36.292969 89.121094 37.183594 89.121094 38.050781 L 89.121094 103.441406 C 89.121094 105.363281 90.316406 105.933594 91.867188 105.933594 L 108.820312 105.933594 C 110.679688 105.933594 111.136719 105.019531 111.136719 103.410156 L 111.136719 83.507812 M 321.375 36.441406 L 302.644531 36.441406 C 301.785156 36.441406 301.085938 37.148438 301.085938 38.023438 L 301.085938 86.503906 C 301.085938 86.503906 296.324219 89.988281 289.570312 89.988281 C 282.816406 89.988281 281.027344 86.921875 281.027344 80.300781 L 281.027344 38.023438 C 281.027344 37.148438 280.328125 36.441406 279.46875 36.441406 L 260.457031 36.441406 C 259.597656 36.441406 258.894531 37.148438 258.894531 38.023438 L 258.894531 83.503906 C 258.894531 103.167969 269.84375 107.976562 284.90625 107.976562 C 297.261719 107.976562 307.222656 101.144531 307.222656 101.144531 C 307.222656 101.144531 307.695312 104.746094 307.910156 105.171875 C 308.125 105.597656 308.683594 106.027344 309.289062 106.027344 L 321.382812 105.972656 C 322.242188 105.972656 322.945312 105.265625 322.945312 104.394531 L 322.9375 38.023438 C 322.9375 37.148438 322.238281 36.441406 321.375 36.441406 M 365.183594 89.929688 C 358.6875 89.730469 354.277344 86.78125 354.277344 86.78125 L 354.277344 55.46875 C 354.277344 55.46875 358.625 52.800781 363.960938 52.324219 C 370.707031 51.71875 377.203125 53.757812 377.203125 69.867188 C 377.207031 86.851562 374.273438 90.203125 365.183594 89.929688 Z M 372.570312 34.222656 C 361.933594 34.222656 354.695312 38.972656 354.695312 38.972656 L 354.695312 5.492188 C 354.695312 4.617188 354 3.914062 353.136719 3.914062 L 334.207031 3.914062 C 333.34375 3.917969 332.644531 4.625 332.648438 5.492188 L 332.648438 104.367188 C 332.648438 105.238281 333.347656 105.949219 334.210938 105.949219 L 347.34375 105.949219 C 347.9375 105.949219 348.382812 105.640625 348.714844 105.109375 C 349.039062 104.578125 349.511719 100.550781 349.511719 100.550781 C 349.511719 100.550781 357.253906 107.894531 371.90625 107.894531 C 389.109375 107.894531 398.972656 99.15625 398.972656 68.679688 C 398.972656 38.203125 383.21875 34.222656 372.570312 34.222656 M 165.386719 36.285156 L 151.226562 36.285156 L 151.207031 17.558594 C 151.207031 16.847656 150.839844 16.496094 150.023438 16.496094 L 130.726562 16.496094 C 129.976562 16.496094 129.574219 16.824219 129.574219 17.546875 L 129.574219 36.898438 C 129.574219 36.898438 119.90625 39.234375 119.25 39.425781 C 118.582031 39.617188 118.121094 40.234375 118.121094 40.929688 L 118.121094 53.089844 C 118.121094 53.964844 118.816406 54.667969 119.679688 54.667969 L 129.574219 54.667969 L 129.574219 83.921875 C 129.574219 105.652344 144.800781 107.785156 155.074219 107.785156 C 159.769531 107.785156 165.382812 106.277344 166.3125 105.933594 C 166.871094 105.726562 167.199219 105.144531 167.199219 104.515625 L 167.214844 91.136719 C 167.214844 90.265625 166.476562 89.5625 165.648438 89.5625 C 164.824219 89.5625 162.710938 89.898438 160.539062 89.898438 C 153.585938 89.898438 151.226562 86.660156 151.226562 82.46875 L 151.226562 54.667969 L 165.386719 54.667969 C 166.25 54.667969 166.949219 53.964844 166.949219 53.089844 L 166.949219 37.859375 C 166.949219 37.441406 166.789062 37.042969 166.496094 36.746094 C 166.203125 36.453125 165.804688 36.285156 165.386719 36.285156 "/>
</g>
</svg>
