<?xml version="1.0" encoding="UTF-8"?>
<svg xmlns="http://www.w3.org/2000/svg" xmlns:xlink="http://www.w3.org/1999/xlink" width="400px" height="px" viewBox="0 0 400 87" version="1.1">
<g id="surface1">
<path style=" stroke:none;fill-rule:nonzero;fill:rgb(9.019608%,7.45098%,12.941176%);fill-opacity:1;" d="M 144.839844 20.640625 C 133.332031 20.640625 125.035156 29.578125 125.035156 45.648438 C 125.035156 61.847656 133.207031 70.785156 145.132812 70.785156 C 155.804688 70.785156 162.601562 64.355469 162.808594 54.167969 L 146.382812 54.167969 L 146.382812 44.0625 L 175.277344 44.0625 L 175.277344 52.621094 C 175.277344 71.035156 162.644531 82.433594 145.050781 82.433594 C 125.410156 82.433594 112.070312 68.402344 112.070312 45.777344 C 112.070312 22.769531 126.035156 9.035156 144.671875 9.035156 C 160.390625 9.035156 172.484375 18.804688 174.691406 32.832031 L 161.558594 32.832031 C 159.265625 25.234375 153.429688 20.640625 144.839844 20.640625 Z M 183.949219 27.90625 L 196.496094 27.90625 L 196.496094 81.429688 L 183.949219 81.429688 Z M 190.242188 19.390625 C 186.242188 19.390625 182.988281 16.382812 182.988281 12.582031 C 182.988281 8.785156 186.28125 5.695312 190.285156 5.695312 C 194.289062 5.695312 197.539062 8.828125 197.539062 12.582031 C 197.539062 16.339844 194.289062 19.390625 190.285156 19.390625 Z M 234.1875 37.632812 L 223.640625 37.632812 L 223.640625 65.355469 C 223.640625 70.449219 226.183594 71.578125 229.351562 71.578125 C 229.65625 71.578125 229.964844 71.5625 230.269531 71.535156 C 230.574219 71.507812 230.878906 71.464844 231.1875 71.410156 C 231.492188 71.355469 231.796875 71.3125 232.101562 71.285156 C 232.410156 71.230469 232.714844 71.160156 233.019531 71.074219 L 235.148438 80.929688 C 234.535156 81.152344 233.925781 81.332031 233.3125 81.472656 C 232.699219 81.609375 232.089844 81.734375 231.476562 81.847656 C 230.867188 81.960938 230.242188 82.042969 229.601562 82.097656 C 228.992188 82.152344 228.363281 82.195312 227.726562 82.222656 C 218.304688 82.515625 211.007812 77.546875 211.046875 67.445312 L 211.046875 37.675781 L 203.503906 37.675781 L 203.503906 27.90625 L 211.046875 27.90625 L 211.046875 15.003906 L 223.640625 15.003906 L 223.640625 27.90625 L 234.1875 27.90625 Z M 243.902344 9.996094 L 256.785156 9.996094 L 256.785156 70.574219 L 288.097656 70.574219 L 288.097656 81.429688 L 243.902344 81.429688 Z M 294.390625 66.398438 C 294.390625 54.335938 304.273438 51.246094 314.613281 50.117188 C 324.035156 49.117188 327.828125 48.949219 327.828125 45.316406 L 327.828125 45.105469 C 327.828125 39.847656 324.621094 36.839844 318.78125 36.839844 C 312.613281 36.839844 309.066406 39.972656 307.859375 43.644531 L 296.101562 41.933594 C 298.894531 32.164062 307.484375 27.15625 318.699219 27.15625 C 328.871094 27.15625 340.378906 31.414062 340.378906 45.566406 L 340.378906 81.429688 L 328.289062 81.429688 L 328.289062 74.082031 L 327.871094 74.082031 C 325.578125 78.589844 320.574219 82.515625 312.195312 82.515625 C 302.023438 82.515625 294.351562 76.960938 294.390625 66.398438 Z M 316.324219 73.246094 C 323.910156 73.246094 328.707031 68.195312 328.664062 62.226562 L 328.664062 55.921875 C 327.039062 57.257812 320.449219 58.089844 317.113281 58.550781 C 311.527344 59.34375 307.316406 61.347656 307.316406 66.234375 C 307.316406 70.867188 311.070312 73.246094 316.324219 73.246094 Z M 349.636719 9.996094 L 362.183594 9.996094 L 362.183594 36.714844 L 362.726562 36.714844 C 364.644531 32.832031 368.5625 27.15625 377.984375 27.15625 C 390.328125 27.15625 400 36.882812 400 54.710938 C 400 72.371094 390.578125 82.390625 378.027344 82.390625 C 368.855469 82.390625 364.726562 76.921875 362.726562 72.996094 L 362.019531 72.996094 L 362.019531 81.429688 L 349.636719 81.429688 Z M 374.527344 72.035156 C 382.824219 72.035156 387.199219 64.648438 387.199219 54.667969 C 387.199219 44.691406 382.863281 37.507812 374.527344 37.507812 C 366.4375 37.507812 361.976562 44.230469 361.976562 54.667969 C 361.976562 65.0625 366.480469 72.035156 374.527344 72.035156 Z M 374.527344 72.035156 "/>
<path style=" stroke:none;fill-rule:nonzero;fill:rgb(88.627451%,26.27451%,16.078431%);fill-opacity:1;" d="M 89.847656 41.640625 C 89.972656 44.105469 89.679688 46.527344 88.972656 48.90625 C 88.304688 51.246094 87.261719 53.5 85.886719 55.503906 C 84.511719 57.550781 82.800781 59.34375 80.84375 60.804688 L 80.800781 60.847656 L 62.082031 74.917969 L 52.824219 81.929688 L 47.238281 86.191406 C 46.90625 86.441406 46.542969 86.621094 46.152344 86.734375 C 45.765625 86.871094 45.363281 86.941406 44.945312 86.941406 C 44.527344 86.941406 44.125 86.871094 43.734375 86.734375 C 43.347656 86.621094 43 86.441406 42.691406 86.191406 L 37.066406 81.929688 L 27.851562 74.917969 L 9.253906 60.929688 L 9.171875 60.847656 L 9.089844 60.804688 C 7.171875 59.34375 5.460938 57.550781 4.085938 55.503906 C 2.667969 53.5 1.625 51.246094 0.957031 48.90625 C 0.292969 46.527344 0 44.105469 0.0820312 41.640625 C 0.207031 39.179688 0.707031 36.757812 1.585938 34.460938 L 1.710938 34.167969 L 13.925781 2.144531 C 13.980469 1.980469 14.050781 1.828125 14.132812 1.6875 C 14.21875 1.546875 14.316406 1.410156 14.425781 1.269531 C 14.535156 1.128906 14.648438 1.003906 14.757812 0.894531 C 14.898438 0.78125 15.039062 0.683594 15.175781 0.601562 C 15.59375 0.351562 16.09375 0.183594 16.59375 0.101562 C 17.09375 0.0585938 17.59375 0.140625 18.054688 0.308594 C 18.554688 0.476562 18.96875 0.769531 19.304688 1.144531 C 19.636719 1.519531 19.886719 1.980469 20.011719 2.480469 L 28.269531 27.824219 L 61.664062 27.824219 L 69.917969 2.480469 C 70.085938 1.980469 70.292969 1.519531 70.667969 1.144531 C 71.003906 0.769531 71.417969 0.476562 71.878906 0.308594 C 72.378906 0.140625 72.878906 0.0585938 73.378906 0.101562 C 73.878906 0.183594 74.339844 0.351562 74.796875 0.601562 C 74.9375 0.683594 75.0625 0.78125 75.171875 0.894531 C 75.3125 1.003906 75.4375 1.128906 75.546875 1.269531 L 75.796875 1.6875 C 75.878906 1.828125 75.964844 1.980469 76.046875 2.144531 L 88.261719 34.128906 L 88.386719 34.460938 C 89.265625 36.757812 89.765625 39.179688 89.847656 41.640625 Z M 89.847656 41.640625 "/>
<path style=" stroke:none;fill-rule:nonzero;fill:rgb(98.823529%,42.745098%,14.901961%);fill-opacity:1;" d="M 89.847656 41.640625 C 89.972656 44.105469 89.679688 46.527344 89.015625 48.90625 C 88.304688 51.246094 87.261719 53.5 85.886719 55.503906 C 84.511719 57.550781 82.800781 59.34375 80.84375 60.804688 L 80.800781 60.847656 L 62.082031 74.917969 L 44.988281 61.933594 L 71.835938 41.558594 C 73.03125 40.640625 74.28125 39.804688 75.589844 39.054688 C 76.894531 38.273438 78.242188 37.578125 79.632812 36.964844 C 81.023438 36.324219 82.441406 35.769531 83.886719 35.296875 C 85.304688 34.824219 86.761719 34.433594 88.261719 34.128906 L 88.386719 34.460938 C 89.265625 36.757812 89.765625 39.179688 89.847656 41.640625 Z M 89.847656 41.640625 "/>
<path style=" stroke:none;fill-rule:nonzero;fill:rgb(98.823529%,63.921569%,14.901961%);fill-opacity:1;" d="M 44.988281 61.933594 L 62.082031 74.917969 L 52.824219 81.929688 L 47.238281 86.191406 C 46.90625 86.441406 46.542969 86.621094 46.152344 86.734375 C 45.765625 86.871094 45.363281 86.941406 44.945312 86.941406 C 44.527344 86.941406 44.125 86.871094 43.734375 86.734375 C 43.347656 86.621094 43 86.441406 42.691406 86.191406 L 37.066406 81.929688 L 27.851562 74.917969 Z M 44.988281 61.933594 "/>
<path style=" stroke:none;fill-rule:nonzero;fill:rgb(98.823529%,42.745098%,14.901961%);fill-opacity:1;" d="M 44.945312 61.933594 L 27.851562 74.917969 L 9.253906 60.929688 L 9.171875 60.847656 L 9.089844 60.804688 C 7.171875 59.34375 5.460938 57.550781 4.085938 55.503906 C 2.667969 53.5 1.625 51.246094 0.957031 48.90625 C 0.292969 46.527344 0 44.105469 0.0820312 41.640625 C 0.207031 39.179688 0.707031 36.757812 1.585938 34.460938 L 1.710938 34.167969 C 3.183594 34.476562 4.640625 34.851562 6.085938 35.296875 C 7.53125 35.769531 8.949219 36.324219 10.339844 36.964844 C 11.703125 37.578125 13.035156 38.273438 14.34375 39.054688 C 15.648438 39.832031 16.914062 40.667969 18.136719 41.558594 Z M 44.945312 61.933594 "/>
</g>
</svg>
