<?xml version="1.0" encoding="UTF-8"?>
<svg xmlns="http://www.w3.org/2000/svg" xmlns:xlink="http://www.w3.org/1999/xlink" width="400px" height="px" viewBox="0 0 399 255" version="1.1">
<defs>
<linearGradient id="linear0" gradientUnits="userSpaceOnUse" x1="1.511" y1="1.192" x2="1.657" y2="1.192" gradientTransform="matrix(86.026787,-50.95093,-50.831525,-86.228867,113.206848,336.463592)">
<stop offset="0" style="stop-color:rgb(56.470588%,61.176471%,66.27451%);stop-opacity:1;"/>
<stop offset="1" style="stop-color:rgb(92.941176%,92.941176%,93.333333%);stop-opacity:1;"/>
</linearGradient>
<linearGradient id="linear1" gradientUnits="userSpaceOnUse" x1="0.981" y1="-9.224" x2="1.127" y2="-9.224" gradientTransform="matrix(69.21917,0,0,-69.381768,114.979284,-623.446494)">
<stop offset="0" style="stop-color:rgb(57.647059%,62.352941%,67.058824%);stop-opacity:1;"/>
<stop offset="1" style="stop-color:rgb(86.27451%,87.058824%,88.235294%);stop-opacity:1;"/>
</linearGradient>
<radialGradient id="radial0" gradientUnits="userSpaceOnUse" cx="1.935" cy="2.23" fx="1.935" fy="2.23" r="0.146" gradientTransform="matrix(-88.252727,-13.287642,-26.810928,176.919985,464.389605,-305.89375)">
<stop offset="0" style="stop-color:rgb(93.333333%,20.784314%,17.254902%);stop-opacity:1;"/>
<stop offset="1" style="stop-color:rgb(66.27451%,11.372549%,13.333333%);stop-opacity:1;"/>
</radialGradient>
</defs>
<g id="surface1">
<path style=" stroke:none;fill-rule:nonzero;fill:url(#linear0);" d="M 256.550781 81.199219 L 221.820312 92.601562 L 191.570312 105.992188 L 183.125 108.238281 C 180.972656 110.308594 178.730469 112.382812 176.230469 114.457031 C 173.558594 116.789062 171.0625 118.863281 169.164062 120.417969 C 167.011719 122.144531 163.90625 125.253906 162.269531 127.242188 C 159.855469 130.265625 157.960938 133.460938 157.1875 135.878906 C 155.722656 140.285156 156.410156 144.777344 159.253906 148.921875 C 162.789062 154.191406 169.941406 159.546875 178.214844 163.175781 C 182.4375 165.078125 189.589844 167.410156 194.933594 168.789062 C 203.808594 171.035156 221.042969 173.542969 230.523438 173.886719 C 232.421875 173.972656 235.007812 173.972656 235.09375 173.886719 C 235.265625 173.714844 236.816406 170.949219 238.453125 167.410156 C 244.3125 155.488281 248.449219 144.257812 250.777344 134.757812 C 252.15625 128.96875 253.191406 121.28125 253.964844 112.125 C 254.136719 109.53125 254.222656 100.980469 254.050781 98.128906 C 253.792969 93.378906 253.363281 89.578125 252.757812 85.777344 C 252.671875 85.257812 252.585938 84.742188 252.671875 84.742188 C 252.757812 84.65625 253.105469 84.566406 257.414062 83.359375 Z M 248.621094 85.863281 C 248.96875 85.863281 249.742188 93.984375 250 99.082031 C 250.085938 100.117188 250 100.894531 250 100.894531 C 249.828125 100.894531 245.605469 98.390625 242.503906 96.488281 C 239.917969 94.847656 234.917969 91.480469 234.144531 90.875 C 233.886719 90.703125 233.886719 90.703125 236.039062 89.921875 C 239.660156 88.628906 248.277344 85.863281 248.621094 85.863281 Z M 230.871094 91.738281 C 231.128906 91.738281 231.730469 92.082031 233.195312 92.945312 C 238.625 96.316406 245.949219 100.460938 249.140625 101.84375 C 250.085938 102.277344 250.171875 102.105469 248.019531 103.660156 C 243.277344 106.941406 237.246094 110.136719 230.007812 113.332031 C 228.714844 113.9375 227.679688 114.371094 227.59375 114.371094 C 227.507812 114.371094 227.679688 113.679688 227.9375 112.902344 C 229.664062 106.335938 230.695312 99.683594 230.785156 94.414062 C 230.609375 91.738281 230.609375 91.738281 230.871094 91.738281 Z M 227.25 93.121094 C 227.421875 93.292969 227.335938 99.167969 227.078125 100.808594 C 226.648438 104.609375 225.871094 108.238281 224.664062 112.296875 C 224.40625 113.246094 224.148438 114.109375 224.0625 114.109375 C 223.976562 114.285156 220.355469 110.742188 219.148438 109.359375 C 217.082031 107.027344 215.53125 104.609375 214.324219 102.277344 C 213.71875 101.066406 212.773438 98.734375 212.859375 98.734375 C 213.289062 98.390625 227.164062 93.035156 227.25 93.121094 Z M 210.101562 99.859375 C 210.273438 99.945312 210.445312 100.375 210.53125 100.808594 C 211.394531 103.140625 213.289062 106.507812 214.925781 108.582031 C 216.734375 110.914062 219.0625 113.507812 220.957031 115.148438 C 221.5625 115.664062 222.164062 116.183594 222.25 116.269531 C 222.421875 116.441406 222.421875 116.441406 218.199219 117.996094 C 213.203125 119.898438 207.859375 121.796875 201.65625 123.785156 C 200.1875 124.304688 198.722656 124.734375 197.257812 125.253906 C 197 125.339844 197.085938 125.167969 197.777344 124.132812 C 200.878906 119.292969 205.53125 109.878906 208.117188 103.140625 C 208.550781 102.015625 208.980469 100.808594 209.066406 100.546875 C 209.152344 100.203125 209.324219 100.03125 209.667969 99.859375 C 209.839844 99.945312 210.015625 99.859375 210.101562 99.859375 Z M 204.84375 102.015625 C 204.929688 102.105469 203.550781 104.867188 202.257812 107.460938 C 199.671875 112.46875 196.914062 117.308594 193.207031 123.265625 C 192.605469 124.304688 192.003906 125.253906 191.917969 125.339844 C 191.742188 125.511719 191.742188 125.511719 191.3125 124.648438 C 190.449219 122.921875 189.675781 120.589844 189.332031 118.515625 C 188.898438 116.441406 188.984375 112.902344 189.503906 110.65625 C 189.847656 109.015625 189.847656 109.015625 190.625 108.667969 C 193.8125 107.027344 204.671875 101.929688 204.84375 102.015625 Z M 250.085938 103.917969 L 250.085938 105.039062 C 250.085938 110.914062 249.484375 118.949219 248.535156 124.820312 C 248.363281 125.859375 248.277344 126.722656 248.191406 126.722656 C 248.191406 126.722656 247.414062 126.550781 246.554688 126.289062 C 242.589844 125.082031 238.367188 123.265625 234.488281 121.109375 C 231.902344 119.726562 228.199219 117.394531 228.371094 117.308594 C 228.371094 117.308594 229.492188 116.703125 230.785156 116.011719 C 235.953125 113.332031 240.867188 110.394531 245.175781 107.546875 C 246.8125 106.507812 249.226562 104.695312 249.742188 104.261719 Z M 185.023438 111.691406 C 185.109375 111.691406 185.109375 111.863281 184.9375 112.816406 C 184.847656 113.507812 184.675781 114.800781 184.675781 115.664062 C 184.503906 119.464844 185.109375 122.316406 187.003906 126.203125 C 187.519531 127.242188 187.953125 128.191406 187.953125 128.191406 C 187.78125 128.363281 170.371094 133.460938 164.941406 134.929688 C 163.304688 135.359375 161.925781 135.792969 161.753906 135.792969 C 161.582031 135.878906 161.582031 135.792969 161.582031 135.359375 C 162.183594 131.472656 165.113281 126.464844 169.25 122.144531 C 172.007812 119.292969 174.164062 117.652344 177.867188 115.492188 C 180.539062 114.109375 184.589844 111.777344 185.023438 111.691406 C 184.9375 111.691406 184.9375 111.691406 185.023438 111.691406 Z M 225.957031 119.035156 C 225.957031 119.035156 226.648438 119.378906 227.335938 119.8125 C 232.9375 123.09375 240.78125 126.117188 247.414062 127.671875 L 248.019531 127.84375 L 247.15625 128.277344 C 243.625 130.265625 232.160156 135.015625 220.441406 139.421875 C 218.71875 140.027344 217.082031 140.714844 216.734375 140.804688 C 216.390625 140.976562 216.132812 140.976562 216.132812 140.976562 C 216.132812 140.976562 216.5625 140.027344 217.167969 138.902344 C 220.441406 132.769531 223.714844 125.253906 225.441406 120.070312 C 225.785156 119.464844 225.957031 119.035156 225.957031 119.035156 Z M 221.820312 120.417969 C 221.820312 120.417969 221.648438 121.019531 221.390625 121.625 C 219.0625 127.15625 216.132812 133.203125 212.253906 140.027344 C 211.304688 141.753906 210.445312 143.136719 210.445312 143.136719 C 210.445312 143.136719 209.667969 142.703125 208.722656 142.097656 C 203.121094 138.644531 198.207031 134.496094 195.019531 130.351562 L 194.585938 129.746094 L 197 129.054688 C 205.53125 126.722656 212.859375 124.21875 220.097656 121.109375 C 220.871094 120.761719 221.734375 120.417969 221.820312 120.417969 Z M 247.761719 129.488281 C 247.761719 130.089844 246.46875 135.535156 245.347656 139.421875 C 244.398438 142.703125 243.625 145.292969 242.160156 149.871094 C 241.554688 151.859375 240.953125 153.5 240.953125 153.5 C 240.953125 153.5 240.78125 153.5 240.609375 153.414062 C 232.851562 152.03125 225.785156 150.046875 219.234375 147.367188 C 217.425781 146.589844 214.753906 145.46875 214.582031 145.292969 C 214.496094 145.207031 216.132812 144.515625 218.113281 143.652344 C 230.09375 138.382812 242.417969 132.511719 246.726562 129.917969 C 247.242188 129.660156 247.675781 129.488281 247.761719 129.488281 Z M 187.867188 131.558594 C 187.953125 131.644531 184.589844 136.398438 179.9375 142.960938 C 178.300781 145.292969 176.402344 147.972656 175.714844 148.921875 C 175.023438 149.960938 173.90625 151.515625 173.300781 152.464844 L 172.179688 154.191406 L 170.972656 153.15625 C 169.59375 152.03125 167.183594 149.527344 166.0625 148.144531 C 163.820312 145.292969 162.269531 142.359375 161.667969 139.679688 C 161.410156 138.382812 161.410156 137.78125 161.667969 137.691406 C 162.097656 137.605469 169.078125 135.964844 175.628906 134.410156 C 179.246094 133.546875 183.46875 132.597656 185.023438 132.164062 C 186.574219 131.820312 187.78125 131.558594 187.867188 131.558594 Z M 191.226562 132.855469 L 192.089844 133.804688 C 195.878906 138.039062 199.757812 141.148438 204.414062 143.914062 C 205.273438 144.34375 205.878906 144.777344 205.792969 144.863281 C 205.617188 145.035156 189.589844 150.738281 182.089844 153.242188 C 177.957031 154.710938 174.507812 155.917969 174.421875 155.917969 L 173.90625 155.574219 L 173.472656 155.230469 L 174.25 154.105469 C 176.75 150.5625 179.851562 146.589844 186.574219 138.46875 Z M 212.167969 147.886719 C 212.167969 147.886719 213.375 148.316406 214.753906 148.835938 C 218.199219 150.132812 220.871094 150.910156 224.492188 151.859375 C 228.972656 152.984375 235.4375 154.105469 239.230469 154.453125 C 239.832031 154.539062 240.089844 154.539062 240.003906 154.625 C 239.832031 154.710938 235.953125 156.007812 233.109375 156.957031 C 228.628906 158.339844 214.839844 162.484375 203.550781 165.679688 C 201.480469 166.285156 199.671875 166.804688 199.585938 166.804688 C 199.328125 166.890625 198.464844 166.632812 198.464844 166.542969 C 198.464844 166.457031 199.070312 165.679688 199.84375 164.816406 C 203.636719 160.324219 207.34375 155.230469 210.53125 150.476562 C 211.394531 148.921875 212.167969 147.886719 212.167969 147.886719 Z M 207.515625 147.972656 C 207.515625 147.972656 205.703125 150.996094 202.429688 156.179688 C 201.050781 158.339844 199.5 160.84375 198.898438 161.707031 C 198.378906 162.570312 197.605469 163.867188 197.171875 164.644531 L 196.398438 166.027344 L 195.964844 165.941406 C 195.019531 165.679688 188.382812 163.347656 186.660156 162.65625 C 184.503906 161.792969 182.265625 160.757812 180.539062 159.808594 C 178.472656 158.683594 175.800781 156.957031 176.058594 156.957031 C 176.144531 156.957031 179.679688 155.917969 184.074219 154.796875 C 195.535156 151.6875 201.914062 149.871094 206.136719 148.492188 C 206.824219 148.144531 207.515625 147.972656 207.515625 147.972656 Z M 240.175781 155.660156 C 240.347656 155.917969 236.039062 167.753906 234.488281 171.46875 C 234.144531 172.332031 234.058594 172.503906 233.800781 172.503906 C 233.367188 172.503906 227.164062 171.640625 223.457031 171.035156 C 216.910156 170 205.964844 168.097656 203.207031 167.496094 L 202.601562 167.320312 L 206.480469 166.457031 C 214.925781 164.558594 218.890625 163.519531 223.027344 162.3125 C 228.199219 160.757812 233.28125 158.769531 238.453125 156.351562 C 239.316406 156.007812 240.003906 155.660156 240.175781 155.660156 Z M 240.175781 155.660156 "/>
<path style=" stroke:none;fill-rule:nonzero;fill:url(#linear1);" d="M 220.699219 0.0859375 C 220.097656 0 210.789062 3.367188 204.757812 5.789062 C 196.65625 9.070312 190.363281 12.265625 186.488281 15.03125 C 185.023438 16.066406 183.210938 17.882812 182.953125 18.570312 C 182.867188 18.832031 182.78125 19.175781 182.78125 19.4375 L 186.316406 22.804688 L 194.675781 25.484375 L 214.582031 29.023438 L 237.332031 32.910156 L 237.589844 30.925781 L 237.417969 30.925781 L 234.402344 30.492188 L 233.800781 29.457031 C 230.695312 24.015625 227.25 17.191406 225.269531 12.613281 C 223.714844 9.070312 222.25 4.921875 221.476562 1.988281 C 221.042969 0.171875 220.957031 0.0859375 220.699219 0.0859375 Z M 220.269531 1.382812 C 220.355469 1.382812 220.441406 2.160156 220.527344 3.023438 C 220.957031 6.738281 221.820312 10.28125 223.113281 14.082031 C 224.0625 17.015625 224.0625 16.84375 222.941406 16.5 C 220.269531 15.722656 208.289062 13.648438 199.585938 12.4375 C 198.207031 12.265625 197 12.09375 197 12.007812 C 196.914062 11.921875 203.292969 8.550781 206.050781 7.257812 C 209.667969 5.613281 219.578125 1.554688 220.269531 1.382812 Z M 194.933594 13.214844 L 195.964844 13.5625 C 201.566406 15.460938 215.53125 18.140625 223.285156 18.746094 C 224.148438 18.832031 224.921875 18.917969 224.921875 18.917969 C 224.921875 18.917969 224.234375 19.347656 223.285156 19.78125 C 219.578125 21.683594 215.441406 23.929688 212.597656 25.742188 C 211.738281 26.261719 210.960938 26.691406 210.875 26.691406 C 210.789062 26.691406 210.1875 26.605469 209.667969 26.519531 L 208.636719 26.347656 L 206.050781 23.753906 C 201.394531 19.261719 197.777344 15.808594 196.398438 14.425781 Z M 193.898438 13.992188 L 197.605469 18.660156 C 199.585938 21.25 201.65625 23.667969 202.085938 24.273438 C 202.515625 24.792969 202.859375 25.308594 202.859375 25.308594 C 202.773438 25.394531 197.519531 24.359375 194.761719 23.753906 C 191.917969 23.0625 190.710938 22.804688 188.984375 22.199219 L 187.519531 21.769531 L 187.519531 21.421875 C 187.519531 19.695312 189.761719 17.015625 193.554688 14.339844 Z M 225.355469 20.300781 C 225.441406 20.300781 225.613281 20.558594 225.871094 21.25 C 226.734375 23.238281 229.578125 28.507812 230.265625 29.542969 C 230.4375 29.886719 230.871094 29.886719 227.164062 29.285156 C 218.289062 27.816406 215.441406 27.382812 215.441406 27.296875 C 215.441406 27.296875 215.703125 27.125 216.046875 26.863281 C 218.804688 25.308594 221.5625 23.410156 224.0625 21.335938 C 224.664062 20.816406 225.179688 20.386719 225.355469 20.300781 C 225.269531 20.300781 225.355469 20.300781 225.355469 20.300781 Z M 225.355469 20.300781 "/>
<path style=" stroke:none;fill-rule:nonzero;fill:url(#radial0);" d="M 183.125 18.140625 C 183.125 18.140625 182.523438 19.089844 183.125 20.472656 C 183.46875 21.335938 184.503906 22.371094 185.625 23.410156 C 185.625 23.410156 197.34375 34.8125 198.722656 36.453125 C 205.1875 43.96875 208.03125 51.3125 208.289062 61.417969 C 208.460938 67.984375 207.257812 73.683594 204.152344 80.335938 C 198.722656 92.257812 187.175781 105.472656 169.421875 120.070312 L 172.007812 119.207031 C 173.644531 117.910156 175.972656 116.617188 181.316406 113.679688 C 193.726562 106.855469 207.601562 100.636719 224.664062 94.242188 C 249.226562 85 289.644531 74.117188 312.652344 70.574219 L 315.066406 70.230469 L 314.722656 69.625 C 312.652344 66.339844 311.1875 64.355469 309.464844 62.195312 C 304.46875 55.890625 298.347656 50.878906 290.851562 46.644531 C 280.59375 40.859375 267.238281 36.367188 250.347656 32.996094 C 247.15625 32.394531 240.175781 31.183594 234.488281 30.320312 C 222.421875 28.417969 214.667969 27.125 206.136719 25.65625 C 203.035156 25.136719 198.464844 24.359375 195.449219 23.667969 C 193.898438 23.324219 190.882812 22.632812 188.46875 21.769531 C 186.402344 21.164062 183.730469 20.386719 183.125 18.140625 Z M 189.933594 24.792969 C 189.933594 24.792969 190.363281 24.964844 190.96875 25.136719 C 192.003906 25.484375 193.296875 25.914062 194.761719 26.261719 C 195.878906 26.605469 197.085938 26.863281 198.207031 27.210938 C 199.757812 27.640625 201.136719 27.988281 201.136719 27.988281 C 201.308594 28.160156 203.980469 36.710938 204.84375 39.910156 C 205.1875 41.117188 205.445312 42.242188 205.445312 42.242188 C 205.445312 42.242188 205.101562 41.808594 204.757812 41.203125 C 201.65625 35.761719 196.828125 30.320312 191.226562 25.828125 C 190.449219 25.222656 189.933594 24.792969 189.933594 24.792969 Z M 202.859375 28.332031 C 203.035156 28.332031 203.550781 28.417969 204.238281 28.59375 C 208.722656 29.628906 216.734375 31.097656 221.820312 31.960938 C 222.683594 32.132812 223.371094 32.21875 223.371094 32.308594 C 223.371094 32.394531 223.027344 32.566406 222.683594 32.738281 C 221.820312 33.171875 218.289062 35.242188 217.167969 36.019531 C 214.238281 38.007812 211.652344 40.082031 209.753906 41.980469 L 208.375 43.363281 C 208.375 43.363281 208.203125 42.933594 208.117188 42.328125 C 207.171875 38.699219 205.1875 33.257812 203.378906 29.457031 C 203.035156 28.9375 202.773438 28.332031 202.859375 28.332031 C 202.773438 28.332031 202.773438 28.332031 202.859375 28.332031 Z M 225.527344 32.652344 C 225.699219 32.738281 225.957031 33.601562 226.472656 35.589844 C 227.421875 39.390625 227.851562 43.710938 227.765625 47.683594 C 227.679688 48.804688 227.679688 49.84375 227.59375 49.929688 L 227.507812 50.1875 L 226.128906 49.757812 C 223.285156 48.890625 218.71875 47.511719 214.839844 46.386719 C 212.597656 45.78125 210.789062 45.265625 210.789062 45.179688 C 210.789062 45.003906 214.0625 41.722656 215.441406 40.511719 C 218.113281 38.179688 225.355469 32.566406 225.527344 32.652344 Z M 227.335938 32.910156 C 227.421875 32.824219 238.195312 34.726562 243.105469 35.675781 C 246.726562 36.367188 252.070312 37.488281 252.414062 37.664062 C 252.585938 37.75 251.984375 38.007812 250.261719 38.785156 C 243.367188 41.894531 238.195312 44.746094 233.023438 48.113281 C 231.644531 48.980469 230.523438 49.757812 230.523438 49.757812 C 230.523438 49.757812 230.4375 48.980469 230.4375 48.113281 C 230.4375 43.105469 229.40625 38.09375 227.59375 33.777344 C 227.507812 33.34375 227.335938 32.996094 227.335938 32.910156 Z M 255.257812 38.441406 C 255.34375 38.527344 255 40.6875 254.65625 41.894531 C 253.707031 45.78125 251.121094 51.65625 248.019531 57.097656 C 247.503906 58.046875 246.984375 58.828125 246.898438 58.914062 C 246.8125 58.914062 246.125 58.566406 245.347656 58.046875 C 242.332031 56.234375 238.796875 54.59375 235.09375 53.039062 C 234.058594 52.605469 233.109375 52.261719 233.109375 52.175781 C 232.9375 52.003906 241.382812 46.386719 245.863281 43.710938 C 249.398438 41.550781 255.171875 38.355469 255.257812 38.441406 Z M 257.242188 38.785156 C 257.5 38.785156 262.238281 40.082031 264.738281 40.859375 C 270.941406 42.671875 278.007812 45.265625 282.578125 47.421875 L 284.472656 48.289062 L 283.09375 48.632812 C 271.804688 51.222656 262.152344 54.246094 252.84375 58.046875 C 252.070312 58.394531 251.378906 58.652344 251.378906 58.652344 C 251.292969 58.652344 251.550781 58.046875 251.898438 57.269531 C 254.742188 51.3125 256.550781 45.089844 256.980469 39.734375 C 257.152344 39.21875 257.242188 38.785156 257.242188 38.785156 Z M 209.667969 49.757812 C 209.753906 49.667969 213.375 50.535156 215.355469 51.136719 C 218.375 52.003906 224.664062 54.074219 224.664062 54.246094 C 224.664062 54.246094 223.976562 54.851562 223.113281 55.628906 C 219.667969 58.480469 216.390625 61.503906 212.425781 65.390625 C 211.21875 66.515625 210.273438 67.464844 210.1875 67.464844 C 210.101562 67.464844 210.101562 67.292969 210.101562 67.117188 C 210.703125 62.714844 210.53125 57.011719 209.753906 51.222656 C 209.753906 50.359375 209.667969 49.757812 209.667969 49.757812 Z M 286.367188 49.84375 C 286.457031 49.929688 284.644531 52.605469 283.613281 54.160156 C 282.058594 56.40625 279.734375 59.429688 274.476562 65.996094 C 271.71875 69.453125 268.617188 73.425781 267.582031 74.71875 C 266.546875 76.015625 265.6875 77.140625 265.601562 77.140625 C 265.601562 77.140625 265.253906 76.707031 264.824219 76.101562 C 261.894531 71.695312 258.359375 67.808594 254.222656 64.355469 C 253.449219 63.664062 252.585938 62.972656 252.242188 62.800781 C 251.984375 62.628906 251.726562 62.367188 251.726562 62.367188 C 251.726562 62.28125 256.207031 60.382812 259.566406 59 C 265.511719 56.582031 273.613281 53.644531 279.648438 51.828125 C 282.921875 50.707031 286.367188 49.757812 286.367188 49.84375 Z M 288.4375 50.359375 C 288.523438 50.359375 289.214844 50.621094 289.902344 51.136719 C 296.28125 54.765625 302.570312 59.515625 307.484375 64.355469 C 308.863281 65.738281 312.308594 69.277344 312.222656 69.363281 C 312.222656 69.363281 311.015625 69.453125 309.636719 69.539062 C 298.605469 70.402344 284.472656 72.734375 270.855469 76.015625 C 269.910156 76.1875 269.132812 76.449219 269.046875 76.449219 C 268.960938 76.449219 269.996094 75.410156 271.289062 74.203125 C 279.300781 66.515625 282.921875 61.589844 287.230469 52.953125 C 287.835938 51.484375 288.351562 50.445312 288.4375 50.359375 C 288.351562 50.359375 288.351562 50.359375 288.4375 50.359375 Z M 229.921875 56.320312 C 230.265625 56.40625 233.714844 58.046875 236.296875 59.257812 C 238.625 60.46875 242.246094 62.367188 242.417969 62.453125 C 242.417969 62.453125 241.210938 63.144531 239.660156 63.921875 C 234.746094 66.429688 230.523438 68.761719 226.042969 71.4375 C 224.75 72.214844 223.714844 72.820312 223.714844 72.820312 C 223.628906 72.820312 223.628906 72.734375 224.320312 71.4375 C 226.648438 67.117188 228.542969 61.9375 229.664062 56.925781 C 229.75 56.582031 229.835938 56.320312 229.921875 56.320312 Z M 226.558594 57.011719 C 226.648438 57.097656 225.785156 60.292969 225.179688 62.109375 C 224.148438 65.476562 222.25 69.625 220.527344 72.820312 C 220.097656 73.597656 219.492188 74.632812 219.148438 75.238281 L 218.460938 76.277344 L 216.996094 74.894531 C 215.269531 73.253906 213.890625 72.214844 212.082031 71.265625 C 211.394531 70.917969 210.789062 70.574219 210.789062 70.488281 C 210.789062 70.316406 215.269531 66.167969 218.71875 63.230469 C 221.21875 61.070312 226.472656 56.925781 226.558594 57.011719 Z M 247.414062 65.5625 L 248.707031 66.429688 C 251.640625 68.328125 255.085938 70.917969 257.757812 73.164062 C 259.222656 74.375 262.152344 76.964844 262.757812 77.65625 L 263.101562 78.003906 L 260.945312 78.609375 C 248.882812 81.976562 239.660156 84.914062 228.800781 88.886719 C 227.59375 89.320312 226.558594 89.664062 226.472656 89.664062 C 226.300781 89.664062 226.214844 89.835938 228.886719 87.332031 C 235.78125 80.941406 241.988281 73.855469 246.554688 67.03125 Z M 241.902344 66.945312 C 241.988281 67.03125 238.367188 72.042969 236.210938 74.980469 C 233.628906 78.433594 229.058594 84.136719 225.957031 87.851562 C 224.664062 89.40625 223.542969 90.703125 223.457031 90.703125 C 223.371094 90.703125 223.371094 90.355469 223.371094 89.75 C 223.371094 86.554688 222.597656 83.1875 221.132812 80.25 C 220.527344 79.039062 220.441406 78.78125 220.527344 78.609375 C 221.042969 78.175781 228.628906 73.769531 233.539062 71.179688 C 236.730469 69.453125 241.8125 66.859375 241.902344 66.945312 Z M 208.722656 75.066406 C 208.808594 75.066406 209.410156 75.410156 210.101562 75.757812 C 211.738281 76.707031 213.289062 77.742188 214.582031 78.78125 C 214.667969 78.867188 213.976562 79.386719 213.03125 80.078125 C 210.53125 81.890625 206.738281 84.742188 204.585938 86.46875 C 202.257812 88.28125 202.171875 88.367188 202.429688 87.9375 C 204.152344 85.257812 205.015625 83.789062 205.964844 81.890625 C 206.738281 80.164062 207.601562 78.175781 208.203125 76.363281 C 208.375 75.671875 208.636719 75.066406 208.722656 75.066406 Z M 217.597656 82.0625 C 217.769531 82.0625 217.855469 82.234375 218.632812 83.359375 C 220.097656 85.605469 221.304688 88.628906 221.5625 91.046875 L 221.648438 91.566406 L 218.027344 92.945312 C 211.566406 95.453125 205.617188 97.957031 201.65625 99.769531 C 200.535156 100.289062 198.550781 101.238281 197.257812 101.84375 C 195.964844 102.535156 194.933594 102.96875 194.933594 102.96875 C 194.933594 102.96875 195.707031 102.363281 196.742188 101.585938 C 204.585938 95.882812 211.394531 89.578125 216.476562 83.359375 C 216.996094 82.667969 217.511719 82.0625 217.597656 82.0625 Z M 213.546875 83.011719 C 213.632812 83.097656 210.617188 86.554688 208.636719 88.628906 C 203.550781 93.8125 198.550781 97.871094 192.347656 101.84375 C 191.570312 102.363281 190.882812 102.792969 190.796875 102.882812 C 190.625 102.96875 190.882812 102.707031 193.554688 99.769531 C 195.277344 97.871094 196.570312 96.316406 198.121094 94.414062 C 199.15625 93.121094 199.328125 92.945312 200.707031 91.910156 C 204.5 88.972656 213.375 82.925781 213.546875 83.011719 Z M 213.546875 83.011719 "/>
<path style=" stroke:none;fill-rule:nonzero;fill:rgb(13.72549%,12.156863%,12.156863%);fill-opacity:1;" d="M 99.789062 192.027344 C 99.273438 192.027344 98.84375 192.113281 98.324219 192.113281 C 88.5 192.632812 81.949219 196.953125 78.074219 205.417969 C 74.796875 213.019531 75.144531 223.039062 78.074219 230.640625 C 81.519531 238.15625 87.121094 242.128906 96.429688 243.597656 C 98.410156 243.941406 99.703125 244.980469 103.582031 249.472656 L 108.320312 255 L 116.855469 255 L 111.164062 249.296875 C 108.0625 246.1875 105.476562 243.425781 105.476562 243.164062 C 105.476562 242.90625 106.683594 242.386719 108.148438 241.957031 C 112.976562 240.488281 116.941406 236.773438 119.699219 231.070312 C 121.9375 226.492188 122.28125 225.113281 122.628906 219.410156 C 123.488281 202.480469 114.613281 191.941406 99.789062 192.027344 Z M 107.289062 236.253906 C 103.152344 238.242188 97.117188 238.671875 93.152344 237.207031 C 89.105469 235.738281 85.140625 231.503906 83.328125 226.667969 C 81.347656 221.398438 81.605469 211.722656 83.933594 207.402344 C 87.550781 200.492188 92.378906 197.296875 99.359375 197.296875 C 109.699219 197.296875 115.648438 203.6875 116.421875 215.609375 C 117.027344 225.628906 113.664062 233.144531 107.289062 236.253906 Z M 254.742188 206.453125 C 251.121094 206.453125 248.449219 207.921875 246.554688 210.773438 L 245.089844 213.019531 L 245.089844 207.144531 L 238.882812 207.144531 L 238.882812 242.472656 L 245.089844 242.472656 L 245.089844 231.160156 C 245.089844 220.792969 245.175781 219.582031 246.640625 216.820312 C 248.621094 212.933594 252.070312 211.03125 255.34375 211.894531 L 257.585938 212.5 L 257.585938 206.367188 Z M 218.375 206.109375 C 217.167969 206.109375 215.875 206.28125 214.582031 206.539062 C 206.308594 208.699219 201.65625 216.644531 201.914062 224.851562 C 201.914062 231.675781 203.207031 235.132812 206.566406 238.761719 C 213.289062 244.289062 219.40625 244.71875 227.679688 241.785156 C 229.058594 241.179688 230.609375 240.488281 230.609375 240.488281 L 230.609375 234.960938 L 227.679688 236.515625 C 221.042969 239.453125 215.960938 239.453125 211.910156 235.996094 C 209.324219 233.40625 208.203125 230.207031 207.6875 226.667969 L 232.679688 226.667969 L 232.679688 221.914062 C 232.679688 212.15625 226.820312 206.019531 218.375 206.109375 Z M 208.289062 221.65625 C 208.289062 221.65625 209.238281 215.609375 212.597656 213.191406 C 214.238281 212.066406 216.132812 211.464844 218.027344 211.464844 C 219.925781 211.464844 221.734375 212.066406 223.285156 213.277344 C 226.386719 215.695312 226.992188 221.65625 226.992188 221.65625 Z M 58.855469 215.265625 C 52.132812 211.203125 49.117188 208.265625 49.546875 204.8125 C 50.582031 195.222656 62.386719 196.519531 68.9375 200.148438 L 69.023438 193.667969 C 69.023438 193.667969 65.40625 192.113281 60.234375 192.027344 C 52.304688 191.941406 47.132812 194.53125 44.722656 199.886719 C 41.1875 207.75 44.289062 213.710938 55.667969 220.273438 C 62.042969 223.988281 64.886719 227.183594 64.886719 230.726562 C 64.886719 237.984375 56.183594 240.488281 47.132812 235.996094 C 45.238281 235.046875 43.6875 234.269531 43.601562 234.269531 C 43.257812 236.339844 43.429688 241.265625 43.429688 241.265625 C 43.429688 241.265625 46.1875 242.386719 50.324219 243.253906 C 60.664062 245.324219 69.972656 240.488281 70.921875 232.628906 C 71.609375 225.199219 68.9375 221.3125 58.855469 215.265625 Z M 309.636719 206.109375 C 308.429688 206.109375 307.136719 206.28125 305.847656 206.539062 C 297.574219 208.699219 292.917969 216.644531 293.175781 224.851562 C 293.175781 231.675781 294.46875 235.132812 297.832031 238.671875 C 304.554688 244.203125 310.671875 244.71875 319.03125 241.695312 C 320.410156 241.09375 321.960938 240.402344 321.960938 240.402344 L 321.960938 234.871094 L 319.03125 236.429688 C 312.308594 239.363281 307.3125 239.363281 303.261719 235.910156 C 300.675781 233.316406 299.554688 230.207031 299.039062 226.582031 L 323.945312 226.582031 L 323.945312 221.828125 C 323.945312 212.066406 318.082031 205.933594 309.636719 206.109375 Z M 299.46875 221.570312 C 299.46875 221.570312 300.417969 215.523438 303.777344 213.105469 C 305.414062 211.894531 307.3125 211.378906 309.121094 211.378906 C 310.929688 211.378906 312.828125 211.980469 314.378906 213.191406 C 317.480469 215.609375 318.082031 221.570312 318.082031 221.570312 Z M 185.882812 215.351562 C 179.160156 211.289062 176.230469 208.355469 176.578125 204.898438 C 177.609375 195.308594 189.417969 196.605469 195.964844 200.234375 L 196.054688 193.753906 C 196.054688 193.753906 192.433594 192.199219 187.261719 192.113281 C 179.332031 192.027344 174.164062 194.617188 171.75 199.972656 C 168.214844 207.835938 171.40625 213.796875 182.695312 220.359375 C 189.070312 224.074219 191.828125 227.269531 191.828125 230.726562 C 191.828125 237.984375 183.125 240.574219 174.078125 235.996094 C 172.265625 235.046875 170.628906 234.269531 170.542969 234.269531 C 170.199219 236.339844 170.371094 241.265625 170.371094 241.265625 C 170.371094 241.265625 173.128906 242.386719 177.265625 243.253906 C 187.605469 245.324219 196.914062 240.488281 197.863281 232.628906 C 198.636719 225.285156 195.964844 221.398438 185.882812 215.351562 Z M 346.003906 206.367188 C 342.386719 206.367188 339.628906 207.835938 337.820312 210.6875 L 336.351562 212.933594 L 336.351562 207.058594 L 330.148438 207.058594 L 330.148438 242.386719 L 336.351562 242.386719 L 336.351562 231.160156 C 336.351562 220.792969 336.441406 219.582031 337.90625 216.820312 C 339.886719 212.933594 343.332031 211.03125 346.609375 211.980469 L 348.847656 212.585938 L 348.847656 206.453125 Z M 136.589844 215.179688 L 136.589844 192.632812 L 130.382812 192.632812 L 130.382812 242.472656 L 156.667969 242.472656 L 156.667969 236.601562 L 136.675781 236.601562 Z M 281.113281 222.175781 L 275.941406 235.5625 L 271.027344 222.089844 L 266.03125 207.144531 L 259.652344 207.144531 C 263.789062 218.890625 268.269531 230.898438 272.839844 242.472656 C 274.820312 242.5625 276.804688 242.472656 278.785156 242.472656 L 285.765625 224.9375 L 292.832031 207.058594 L 286.714844 207.058594 C 286.628906 207.144531 283.957031 214.226562 281.113281 222.175781 Z M 151.066406 179.070312 C 152.101562 179.070312 152.875 178.722656 153.566406 178.035156 C 154.253906 177.34375 154.601562 176.566406 154.601562 175.527344 C 154.601562 174.492188 154.253906 173.714844 153.566406 173.023438 C 152.875 172.417969 152.101562 172.074219 151.066406 172.074219 C 150.03125 172.074219 149.171875 172.417969 148.566406 173.109375 C 147.878906 173.800781 147.535156 174.664062 147.535156 175.613281 C 147.535156 176.652344 147.878906 177.515625 148.566406 178.121094 C 149.171875 178.722656 150.03125 179.070312 151.066406 179.070312 Z M 148.828125 173.28125 C 149.429688 172.679688 150.117188 172.417969 151.066406 172.417969 C 151.929688 172.417969 152.703125 172.679688 153.308594 173.28125 C 153.910156 173.886719 154.253906 174.578125 154.253906 175.527344 C 154.253906 176.390625 153.910156 177.167969 153.308594 177.773438 C 152.703125 178.378906 151.929688 178.636719 151.066406 178.636719 C 150.207031 178.636719 149.429688 178.378906 148.828125 177.773438 C 148.222656 177.167969 147.878906 176.390625 147.878906 175.527344 C 147.964844 174.664062 148.222656 173.886719 148.828125 173.28125 Z M 150.292969 175.875 L 150.722656 175.875 C 150.980469 175.875 151.324219 176.132812 151.496094 176.652344 L 152.015625 177.773438 L 152.789062 177.773438 L 152.1875 176.566406 C 151.929688 176.046875 151.671875 175.789062 151.410156 175.703125 C 151.757812 175.613281 152.015625 175.527344 152.273438 175.269531 C 152.445312 175.097656 152.53125 174.75 152.53125 174.492188 C 152.53125 174.144531 152.445312 173.886719 152.1875 173.628906 C 151.929688 173.367188 151.496094 173.28125 150.894531 173.28125 L 149.601562 173.28125 L 149.601562 177.773438 L 150.207031 177.773438 Z M 150.292969 173.800781 L 150.894531 173.800781 C 151.324219 173.800781 151.585938 173.886719 151.757812 173.972656 C 151.929688 174.058594 151.929688 174.234375 151.929688 174.578125 C 151.929688 175.097656 151.585938 175.355469 150.980469 175.355469 L 150.292969 175.355469 Z M 47.132812 175.441406 C 47.132812 173.886719 47.046875 172.679688 47.046875 171.988281 C 47.21875 172.765625 47.394531 173.367188 47.566406 173.800781 L 53.597656 187.191406 L 54.632812 187.191406 L 60.664062 173.628906 C 60.835938 173.28125 61.007812 172.679688 61.179688 171.902344 L 61.269531 171.902344 C 61.179688 173.28125 61.09375 174.40625 61.09375 175.355469 L 61.09375 187.191406 L 63.164062 187.191406 L 63.164062 169.566406 L 60.578125 169.566406 L 54.976562 181.921875 C 54.804688 182.4375 54.460938 183.128906 54.113281 184.082031 L 54.027344 184.082031 C 53.941406 183.5625 53.597656 182.871094 53.253906 182.007812 L 47.824219 169.65625 L 45.066406 169.65625 L 45.066406 187.277344 L 47.046875 187.277344 Z M 67.558594 175.527344 L 69.367188 175.527344 L 69.367188 186.5 L 67.558594 186.5 Z M 68.421875 171.46875 C 68.765625 171.46875 69.109375 171.382812 69.367188 171.121094 C 69.628906 170.863281 69.800781 170.605469 69.800781 170.171875 C 69.800781 169.828125 69.714844 169.480469 69.367188 169.222656 C 69.109375 168.964844 68.765625 168.878906 68.421875 168.878906 C 68.074219 168.878906 67.730469 168.964844 67.472656 169.222656 C 67.214844 169.480469 67.042969 169.828125 67.042969 170.171875 C 67.042969 170.605469 67.128906 170.863281 67.472656 171.121094 C 67.730469 171.382812 68.074219 171.46875 68.421875 171.46875 Z M 81.949219 186.671875 L 81.949219 184.769531 C 81.003906 185.460938 79.96875 185.894531 78.847656 185.894531 C 77.554688 185.894531 76.523438 185.460938 75.746094 184.597656 C 74.96875 183.734375 74.539062 182.613281 74.539062 181.144531 C 74.539062 179.589844 74.96875 178.378906 75.746094 177.515625 C 76.523438 176.652344 77.640625 176.21875 78.847656 176.21875 C 79.882812 176.21875 80.917969 176.566406 81.863281 177.167969 L 81.863281 175.011719 C 81.003906 174.578125 80.054688 174.40625 78.933594 174.40625 C 76.953125 174.40625 75.316406 175.011719 74.195312 176.304688 C 73.074219 177.515625 72.472656 179.242188 72.472656 181.316406 C 72.472656 183.128906 72.988281 184.683594 74.109375 185.808594 C 75.230469 187.015625 76.695312 187.621094 78.417969 187.621094 C 79.882812 187.535156 81.003906 187.277344 81.949219 186.671875 Z M 87.035156 180.882812 C 87.035156 179.414062 87.378906 178.292969 87.984375 177.429688 C 88.585938 176.738281 89.191406 176.304688 90.050781 176.304688 C 90.742188 176.304688 91.257812 176.390625 91.601562 176.738281 L 91.601562 174.664062 C 91.34375 174.578125 90.914062 174.492188 90.398438 174.492188 C 89.707031 174.492188 89.019531 174.75 88.5 175.183594 C 87.898438 175.703125 87.378906 176.390625 87.121094 177.34375 L 87.035156 177.34375 L 87.035156 174.75 L 85.054688 174.75 L 85.054688 187.363281 L 87.035156 187.363281 Z M 98.582031 187.535156 C 100.480469 187.535156 102.03125 186.929688 103.152344 185.722656 C 104.269531 184.511719 104.875 182.871094 104.875 180.882812 C 104.875 178.8125 104.359375 177.257812 103.324219 176.046875 C 102.289062 174.835938 100.824219 174.320312 98.929688 174.320312 C 97.03125 174.320312 95.480469 174.921875 94.359375 175.960938 C 93.152344 177.167969 92.550781 178.898438 92.550781 181.058594 C 92.550781 182.957031 93.066406 184.511719 94.1875 185.722656 C 95.222656 186.929688 96.6875 187.535156 98.582031 187.535156 Z M 95.738281 177.34375 C 96.515625 176.566406 97.550781 176.132812 98.757812 176.132812 C 100.046875 176.132812 100.996094 176.566406 101.773438 177.34375 C 102.460938 178.207031 102.894531 179.414062 102.894531 180.96875 C 102.894531 182.527344 102.546875 183.734375 101.859375 184.511719 C 101.167969 185.375 100.136719 185.808594 98.84375 185.808594 C 97.550781 185.808594 96.515625 185.375 95.738281 184.511719 C 94.964844 183.648438 94.621094 182.527344 94.621094 180.96875 C 94.53125 179.414062 94.878906 178.207031 95.738281 177.34375 Z M 113.578125 186.5 C 114.355469 185.808594 114.785156 184.945312 114.785156 183.90625 C 114.785156 182.957031 114.441406 182.179688 113.835938 181.574219 C 113.320312 181.058594 112.632812 180.625 111.511719 180.191406 C 110.5625 179.761719 109.960938 179.414062 109.613281 179.15625 C 109.269531 178.8125 109.097656 178.464844 109.097656 177.859375 C 109.097656 177.34375 109.269531 176.910156 109.699219 176.652344 C 110.132812 176.304688 110.648438 176.132812 111.339844 176.132812 C 112.457031 176.132812 113.320312 176.390625 114.183594 176.996094 L 114.183594 175.011719 C 113.40625 174.578125 112.457031 174.40625 111.511719 174.40625 C 110.21875 174.40625 109.097656 174.75 108.320312 175.441406 C 107.460938 176.132812 107.117188 176.996094 107.117188 178.035156 C 107.117188 178.984375 107.375 179.761719 107.890625 180.28125 C 108.320312 180.796875 109.097656 181.230469 110.132812 181.660156 C 111.164062 182.09375 111.855469 182.527344 112.199219 182.871094 C 112.542969 183.214844 112.71875 183.5625 112.71875 184.082031 C 112.71875 185.289062 111.941406 185.894531 110.304688 185.894531 C 109.097656 185.894531 107.976562 185.460938 107.027344 184.683594 L 107.027344 186.84375 C 107.890625 187.363281 108.925781 187.621094 110.132812 187.621094 C 111.597656 187.535156 112.804688 187.191406 113.578125 186.5 Z M 123.144531 174.40625 C 121.25 174.40625 119.699219 175.011719 118.578125 176.046875 C 117.371094 177.257812 116.765625 178.984375 116.765625 181.144531 C 116.765625 183.042969 117.285156 184.597656 118.40625 185.808594 C 119.523438 187.015625 120.992188 187.621094 122.886719 187.621094 C 124.78125 187.621094 126.332031 187.015625 127.453125 185.808594 C 128.574219 184.597656 129.175781 182.957031 129.175781 180.96875 C 129.175781 178.898438 128.660156 177.34375 127.625 176.132812 C 126.503906 174.921875 125.039062 174.40625 123.144531 174.40625 Z M 127.109375 180.96875 C 127.109375 182.527344 126.765625 183.734375 126.074219 184.511719 C 125.386719 185.375 124.351562 185.808594 123.058594 185.808594 C 121.765625 185.808594 120.730469 185.375 119.957031 184.511719 C 119.179688 183.648438 118.835938 182.527344 118.835938 180.96875 C 118.835938 179.328125 119.265625 178.121094 120.042969 177.257812 C 120.816406 176.480469 121.851562 176.046875 123.058594 176.046875 C 124.265625 176.046875 125.300781 176.480469 125.988281 177.257812 C 126.765625 178.121094 127.109375 179.328125 127.109375 180.96875 Z M 132.539062 187.277344 L 134.519531 187.277344 L 134.519531 176.390625 L 137.449219 176.390625 L 137.449219 174.664062 L 134.519531 174.664062 L 134.519531 172.765625 C 134.519531 171.035156 135.210938 170.085938 136.589844 170.085938 C 137.105469 170.085938 137.535156 170.171875 137.882812 170.433594 L 137.882812 168.617188 C 137.535156 168.445312 137.019531 168.445312 136.417969 168.445312 C 135.296875 168.445312 134.433594 168.789062 133.746094 169.480469 C 132.882812 170.257812 132.453125 171.296875 132.453125 172.765625 L 132.453125 174.835938 L 130.296875 174.835938 L 130.296875 176.566406 L 132.453125 176.566406 Z M 140.8125 183.820312 C 140.8125 186.238281 141.933594 187.535156 144.085938 187.535156 C 144.863281 187.535156 145.464844 187.449219 145.984375 187.105469 L 145.984375 185.375 C 145.636719 185.636719 145.207031 185.808594 144.691406 185.808594 C 144 185.808594 143.570312 185.636719 143.226562 185.289062 C 142.964844 184.945312 142.792969 184.339844 142.792969 183.476562 L 142.792969 176.390625 L 145.984375 176.390625 L 145.984375 174.664062 L 142.792969 174.664062 L 142.792969 170.949219 C 142.105469 171.210938 141.414062 171.382812 140.8125 171.554688 L 140.8125 174.578125 L 138.65625 174.578125 L 138.65625 176.304688 L 140.8125 176.304688 Z M 356.691406 207.058594 C 356.003906 206.453125 355.226562 206.109375 354.191406 206.109375 C 353.160156 206.109375 352.296875 206.453125 351.691406 207.144531 C 351.003906 207.835938 350.660156 208.699219 350.660156 209.648438 C 350.660156 210.6875 351.003906 211.464844 351.691406 212.15625 C 352.382812 212.757812 353.246094 213.105469 354.191406 213.105469 C 355.226562 213.105469 356.003906 212.757812 356.691406 212.066406 C 357.382812 211.378906 357.726562 210.597656 357.726562 209.5625 C 357.8125 208.527344 357.382812 207.664062 356.691406 207.058594 Z M 356.433594 211.808594 C 355.828125 212.414062 355.140625 212.671875 354.191406 212.671875 C 353.332031 212.671875 352.554688 212.414062 351.953125 211.808594 C 351.347656 211.203125 351.003906 210.425781 351.003906 209.5625 C 351.003906 208.699219 351.261719 207.921875 351.867188 207.316406 C 352.46875 206.710938 353.160156 206.453125 354.105469 206.453125 C 354.96875 206.453125 355.742188 206.710938 356.347656 207.316406 C 356.949219 207.921875 357.296875 208.699219 357.296875 209.5625 C 357.296875 210.425781 357.035156 211.203125 356.433594 211.808594 Z M 354.625 209.734375 C 354.96875 209.648438 355.226562 209.476562 355.484375 209.304688 C 355.65625 209.132812 355.742188 208.785156 355.742188 208.527344 C 355.742188 208.179688 355.65625 207.921875 355.398438 207.664062 C 355.140625 207.402344 354.710938 207.316406 354.105469 207.316406 L 352.8125 207.316406 L 352.8125 211.808594 L 353.417969 211.808594 L 353.417969 209.910156 L 353.847656 209.910156 C 354.105469 209.910156 354.363281 210.167969 354.625 210.6875 L 355.140625 211.808594 L 355.917969 211.808594 L 355.3125 210.597656 C 355.054688 210.082031 354.796875 209.820312 354.625 209.734375 Z M 354.191406 209.304688 L 353.503906 209.304688 L 353.503906 207.835938 L 354.105469 207.835938 C 354.539062 207.835938 354.796875 207.921875 354.96875 208.007812 C 355.140625 208.09375 355.140625 208.265625 355.140625 208.613281 C 355.054688 209.132812 354.796875 209.304688 354.191406 209.304688 Z M 241.902344 174.144531 L 242.503906 174.144531 L 242.503906 169.65625 L 243.96875 169.65625 L 243.96875 169.050781 L 240.433594 169.050781 L 240.433594 169.65625 L 241.902344 169.65625 Z M 245.261719 170.777344 L 245.261719 169.742188 C 245.261719 170 245.347656 170.171875 245.433594 170.257812 L 247.15625 174.144531 L 247.414062 174.144531 L 249.140625 170.257812 C 249.226562 170.171875 249.226562 170 249.3125 169.742188 L 249.3125 174.144531 L 249.914062 174.144531 L 249.914062 169.050781 L 249.226562 169.050781 L 247.675781 172.589844 C 247.675781 172.679688 247.503906 172.9375 247.414062 173.28125 L 247.328125 173.28125 C 247.328125 173.109375 247.242188 172.9375 247.070312 172.679688 L 245.519531 169.136719 L 244.746094 169.136719 L 244.746094 174.234375 L 245.347656 174.234375 Z M 245.261719 170.777344 "/>
</g>
</svg>
