<?xml version="1.0" encoding="UTF-8"?>
<svg xmlns="http://www.w3.org/2000/svg" xmlns:xlink="http://www.w3.org/1999/xlink" width="400px" height="px" viewBox="0 0 402 56" version="1.1">
<g id="surface1">
<path style=" stroke:none;fill-rule:nonzero;fill:rgb(5.098039%,67.843137%,91.764706%);fill-opacity:1;" d="M 0.0664062 7.707031 L 23.015625 4.546875 L 23.015625 26.710938 L 0.0664062 26.710938 Z M 23.015625 29.546875 L 23.015625 51.457031 L 0.0703125 48.304688 L 0.0703125 29.546875 Z M 25.550781 4.199219 L 56.085938 0 L 56.085938 26.710938 L 25.550781 26.710938 Z M 56.085938 29.546875 L 56.085938 56 L 25.550781 51.804688 L 25.550781 29.546875 Z M 56.085938 29.546875 "/>
<path style=" stroke:none;fill-rule:nonzero;fill:rgb(0%,67.843137%,93.72549%);fill-opacity:1;" d="M 107.925781 44.554688 L 102.621094 44.554688 L 102.621094 24.027344 C 102.621094 22.34375 102.726562 20.292969 102.9375 17.855469 L 102.847656 17.855469 C 102.515625 19.242188 102.222656 20.238281 101.96875 20.84375 L 92.351562 44.554688 L 88.664062 44.554688 L 79.023438 21.019531 C 78.753906 20.328125 78.46875 19.273438 78.167969 17.859375 L 78.078125 17.859375 C 78.199219 19.128906 78.257812 21.199219 78.257812 24.074219 L 78.257812 44.554688 L 73.3125 44.554688 L 73.3125 12.835938 L 80.84375 12.835938 L 89.316406 33.960938 C 89.960938 35.582031 90.382812 36.792969 90.574219 37.585938 L 90.6875 37.585938 C 91.242188 35.921875 91.691406 34.679688 92.035156 33.871094 L 100.667969 12.835938 L 107.925781 12.835938 Z M 117.882812 17.148438 C 117.03125 17.148438 116.296875 16.875 115.691406 16.332031 C 115.085938 15.785156 114.78125 15.089844 114.78125 14.25 C 114.78125 13.410156 115.085938 12.710938 115.691406 12.148438 C 116.300781 11.589844 117.03125 11.308594 117.882812 11.308594 C 118.765625 11.308594 119.519531 11.589844 120.132812 12.148438 C 120.746094 12.710938 121.054688 13.410156 121.054688 14.25 C 121.054688 15.046875 120.746094 15.730469 120.132812 16.296875 C 119.515625 16.867188 118.765625 17.148438 117.882812 17.148438 Z M 120.46875 44.554688 L 115.253906 44.554688 L 115.253906 21.902344 L 120.46875 21.902344 Z M 143.777344 43.515625 C 141.933594 44.5625 139.753906 45.085938 137.234375 45.085938 C 133.820312 45.085938 131.0625 44.035156 128.964844 41.933594 C 126.867188 39.832031 125.816406 37.109375 125.816406 33.761719 C 125.816406 30.027344 126.945312 27.035156 129.199219 24.769531 C 131.453125 22.503906 134.46875 21.375 138.246094 21.375 C 140.34375 21.375 142.195312 21.734375 143.796875 22.457031 L 143.796875 27.234375 C 142.191406 26.054688 140.484375 25.464844 138.671875 25.464844 C 136.472656 25.464844 134.664062 26.199219 133.257812 27.667969 C 131.847656 29.132812 131.144531 31.054688 131.144531 33.425781 C 131.144531 35.773438 131.804688 37.621094 133.132812 38.980469 C 134.457031 40.335938 136.238281 41.015625 138.46875 41.015625 C 140.34375 41.015625 142.109375 40.359375 143.773438 39.046875 Z M 162.316406 26.792969 C 161.6875 26.304688 160.78125 26.0625 159.597656 26.0625 C 158.054688 26.0625 156.765625 26.746094 155.730469 28.121094 C 154.695312 29.488281 154.179688 31.355469 154.179688 33.714844 L 154.179688 44.554688 L 148.964844 44.554688 L 148.964844 21.902344 L 154.179688 21.902344 L 154.179688 26.570312 L 154.269531 26.570312 C 154.777344 24.976562 155.558594 23.734375 156.617188 22.84375 C 157.671875 21.953125 158.851562 21.503906 160.15625 21.503906 C 161.101562 21.503906 161.820312 21.648438 162.316406 21.925781 Z M 176.253906 45.085938 C 172.703125 45.085938 169.867188 44.027344 167.746094 41.910156 C 165.625 39.796875 164.5625 36.988281 164.5625 33.496094 C 164.5625 29.691406 165.667969 26.71875 167.878906 24.582031 C 170.089844 22.441406 173.066406 21.375 176.816406 21.375 C 180.410156 21.375 183.210938 22.414062 185.21875 24.492188 C 187.230469 26.574219 188.230469 29.453125 188.230469 33.140625 C 188.230469 36.753906 187.148438 39.648438 184.984375 41.820312 C 182.820312 43.996094 179.910156 45.085938 176.253906 45.085938 Z M 176.5 25.464844 C 174.460938 25.464844 172.851562 26.167969 171.667969 27.566406 C 170.484375 28.964844 169.890625 30.898438 169.890625 33.359375 C 169.890625 35.734375 170.492188 37.601562 171.691406 38.964844 C 172.890625 40.328125 174.492188 41.011719 176.5 41.011719 C 178.554688 41.011719 180.132812 40.339844 181.234375 39 C 182.332031 37.65625 182.886719 35.746094 182.886719 33.269531 C 182.886719 30.78125 182.335938 28.855469 181.234375 27.496094 C 180.132812 26.144531 178.554688 25.464844 176.5 25.464844 Z M 192.121094 43.847656 L 192.121094 39.09375 C 194.070312 40.550781 196.222656 41.28125 198.570312 41.28125 C 201.71875 41.28125 203.292969 40.367188 203.292969 38.539062 C 203.292969 38.023438 203.15625 37.585938 202.886719 37.222656 C 202.617188 36.859375 202.253906 36.539062 201.796875 36.261719 C 201.335938 35.984375 200.800781 35.730469 200.179688 35.507812 C 199.554688 35.289062 198.863281 35.039062 198.097656 34.757812 C 197.226562 34.421875 196.371094 34.027344 195.546875 33.585938 C 194.789062 33.171875 194.164062 32.703125 193.660156 32.179688 C 193.164062 31.671875 192.78125 31.0625 192.527344 30.398438 C 192.269531 29.738281 192.144531 28.960938 192.144531 28.078125 C 192.144531 26.984375 192.40625 26.023438 192.933594 25.191406 C 193.457031 24.359375 194.160156 23.65625 195.042969 23.089844 C 195.929688 22.523438 196.929688 22.097656 198.054688 21.808594 C 199.195312 21.519531 200.363281 21.375 201.539062 21.378906 C 203.667969 21.378906 205.570312 21.695312 207.246094 22.328125 L 207.246094 26.816406 C 205.628906 25.726562 203.769531 25.179688 201.671875 25.179688 C 201.015625 25.179688 200.417969 25.246094 199.886719 25.378906 C 199.355469 25.511719 198.902344 25.695312 198.527344 25.929688 C 198.152344 26.167969 197.859375 26.449219 197.648438 26.78125 C 197.441406 27.109375 197.332031 27.488281 197.335938 27.875 C 197.335938 28.363281 197.441406 28.777344 197.648438 29.117188 C 197.859375 29.453125 198.171875 29.753906 198.582031 30.011719 C 198.996094 30.269531 199.488281 30.503906 200.066406 30.71875 C 200.644531 30.933594 201.304688 31.164062 202.058594 31.414062 C 202.964844 31.777344 203.855469 32.183594 204.71875 32.632812 C 205.507812 33.046875 206.179688 33.511719 206.734375 34.035156 C 207.28125 34.546875 207.714844 35.164062 208.015625 35.851562 C 208.3125 36.535156 208.464844 37.351562 208.464844 38.292969 C 208.464844 39.445312 208.195312 40.445312 207.652344 41.300781 C 207.113281 42.15625 206.394531 42.863281 205.496094 43.425781 C 204.597656 43.984375 203.558594 44.402344 202.382812 44.671875 C 201.207031 44.945312 199.964844 45.082031 198.664062 45.082031 C 196.144531 45.085938 193.964844 44.671875 192.121094 43.847656 Z M 223.632812 45.085938 C 220.082031 45.085938 217.246094 44.027344 215.125 41.910156 C 213.003906 39.796875 211.945312 36.988281 211.945312 33.496094 C 211.945312 29.691406 213.050781 26.71875 215.261719 24.582031 C 217.472656 22.441406 220.449219 21.375 224.195312 21.375 C 227.792969 21.375 230.59375 22.414062 232.601562 24.492188 C 234.609375 26.574219 235.613281 29.453125 235.613281 33.140625 C 235.613281 36.753906 234.53125 39.648438 232.367188 41.820312 C 230.199219 43.996094 227.289062 45.085938 223.632812 45.085938 Z M 223.878906 25.464844 C 221.84375 25.464844 220.230469 26.167969 219.046875 27.566406 C 217.863281 28.964844 217.269531 30.898438 217.269531 33.359375 C 217.269531 35.734375 217.871094 37.601562 219.070312 38.964844 C 220.269531 40.328125 221.871094 41.011719 223.878906 41.011719 C 225.933594 41.011719 227.507812 40.339844 228.613281 39 C 229.714844 37.65625 230.265625 35.746094 230.265625 33.269531 C 230.265625 30.78125 229.714844 28.855469 228.613281 27.496094 C 227.507812 26.144531 225.933594 25.464844 223.878906 25.464844 Z M 253.953125 15.203125 C 253.25 14.804688 252.449219 14.605469 251.550781 14.605469 C 249.015625 14.605469 247.75 16.015625 247.75 18.832031 L 247.75 21.90625 L 253.101562 21.90625 L 253.101562 25.929688 L 247.773438 25.929688 L 247.773438 44.554688 L 242.558594 44.554688 L 242.558594 25.929688 L 238.625 25.929688 L 238.625 21.90625 L 242.558594 21.90625 L 242.558594 18.234375 C 242.558594 15.84375 243.351562 13.960938 244.941406 12.582031 C 246.53125 11.203125 248.515625 10.515625 250.898438 10.515625 C 252.1875 10.515625 253.207031 10.652344 253.953125 10.933594 Z M 268.992188 44.3125 C 267.972656 44.8125 266.628906 45.0625 264.964844 45.0625 C 260.503906 45.0625 258.269531 42.953125 258.269531 38.738281 L 258.269531 25.933594 L 254.425781 25.933594 L 254.425781 21.90625 L 258.269531 21.90625 L 258.269531 16.664062 L 263.484375 15.207031 L 263.484375 21.90625 L 268.992188 21.90625 L 268.992188 25.933594 L 263.484375 25.933594 L 263.484375 37.257812 C 263.484375 38.597656 263.730469 39.554688 264.226562 40.132812 C 264.722656 40.707031 265.546875 40.992188 266.699219 40.992188 C 267.582031 40.992188 268.347656 40.746094 268.992188 40.242188 Z M 313.222656 44.554688 L 307.359375 44.554688 L 304.460938 36.480469 L 291.785156 36.480469 L 288.996094 44.554688 L 283.152344 44.554688 L 295.222656 12.835938 L 301.242188 12.835938 Z M 303.042969 32.191406 L 298.570312 19.539062 C 298.4375 19.125 298.292969 18.460938 298.144531 17.546875 L 298.054688 17.546875 C 297.921875 18.386719 297.769531 19.054688 297.605469 19.539062 L 293.179688 32.191406 Z M 334.082031 24.050781 L 321.652344 40.550781 L 334.035156 40.550781 L 334.035156 44.554688 L 314.347656 44.554688 L 314.347656 42.628906 L 327.046875 25.90625 L 315.5625 25.90625 L 315.5625 21.902344 L 334.082031 21.902344 Z M 358.558594 44.554688 L 353.34375 44.554688 L 353.34375 40.96875 L 353.253906 40.96875 C 351.742188 43.710938 349.390625 45.085938 346.199219 45.085938 C 340.757812 45.085938 338.039062 41.871094 338.039062 35.441406 L 338.039062 21.902344 L 343.253906 21.902344 L 343.253906 34.910156 C 343.253906 38.980469 344.847656 41.015625 348.042969 41.015625 C 349.585938 41.015625 350.855469 40.457031 351.851562 39.335938 C 352.847656 38.214844 353.347656 36.746094 353.347656 34.933594 L 353.347656 21.902344 L 358.5625 21.902344 Z M 378.71875 26.792969 C 378.089844 26.304688 377.183594 26.0625 376 26.0625 C 374.457031 26.0625 373.167969 26.746094 372.132812 28.121094 C 371.097656 29.488281 370.582031 31.355469 370.582031 33.714844 L 370.582031 44.554688 L 365.367188 44.554688 L 365.367188 21.902344 L 370.582031 21.902344 L 370.582031 26.570312 L 370.667969 26.570312 C 371.179688 24.976562 371.960938 23.734375 373.019531 22.84375 C 374.074219 21.953125 375.253906 21.503906 376.558594 21.503906 C 377.5 21.503906 378.222656 21.648438 378.714844 21.925781 Z M 401.9375 34.621094 L 386.246094 34.621094 C 386.308594 36.714844 386.960938 38.332031 388.214844 39.464844 C 389.464844 40.601562 391.183594 41.167969 393.375 41.167969 C 395.832031 41.167969 398.085938 40.445312 400.136719 39.003906 L 400.136719 43.136719 C 398.039062 44.433594 395.269531 45.085938 391.820312 45.085938 C 388.433594 45.085938 385.78125 44.054688 383.855469 42 C 381.925781 39.941406 380.964844 37.046875 380.964844 33.316406 C 380.964844 29.792969 382.027344 26.921875 384.148438 24.703125 C 386.269531 22.484375 388.902344 21.375 392.050781 21.375 C 395.195312 21.375 397.628906 22.367188 399.351562 24.359375 C 401.074219 26.347656 401.9375 29.113281 401.9375 32.652344 Z M 396.902344 30.996094 C 396.878906 29.152344 396.445312 27.71875 395.578125 26.695312 C 394.707031 25.671875 393.507812 25.15625 391.980469 25.15625 C 390.480469 25.15625 389.210938 25.695312 388.171875 26.773438 C 387.128906 27.847656 386.488281 29.257812 386.25 30.996094 Z M 396.902344 30.996094 "/>
</g>
</svg>
