<?xml version="1.0" encoding="UTF-8"?>
<svg xmlns="http://www.w3.org/2000/svg" xmlns:xlink="http://www.w3.org/1999/xlink" width="400px" height="px" viewBox="0 0 397 85" version="1.1">
<g id="surface1">
<path style=" stroke:none;fill-rule:nonzero;fill:rgb(43.921569%,42.745098%,43.137255%);fill-opacity:1;" d="M 397 38.453125 L 397 31.457031 L 388.328125 31.457031 L 388.328125 20.574219 L 388.039062 20.667969 L 379.894531 23.164062 L 379.734375 23.210938 L 379.734375 31.457031 L 366.878906 31.457031 L 366.878906 26.863281 C 366.878906 24.726562 367.359375 23.089844 368.296875 21.996094 C 369.230469 20.917969 370.566406 20.371094 372.269531 20.371094 C 373.492188 20.371094 374.761719 20.660156 376.039062 21.230469 L 376.359375 21.375 L 376.359375 14.003906 L 376.207031 13.949219 C 375.015625 13.519531 373.398438 13.304688 371.390625 13.304688 C 368.863281 13.304688 366.566406 13.855469 364.5625 14.949219 C 362.554688 16.042969 360.980469 17.605469 359.875 19.59375 C 358.773438 21.578125 358.214844 23.871094 358.214844 26.40625 L 358.214844 31.457031 L 352.175781 31.457031 L 352.175781 38.453125 L 358.214844 38.453125 L 358.214844 67.9375 L 366.878906 67.9375 L 366.878906 38.453125 L 379.734375 38.453125 L 379.734375 57.191406 C 379.734375 64.90625 383.363281 68.816406 390.527344 68.816406 C 391.703125 68.816406 392.941406 68.679688 394.207031 68.40625 C 395.492188 68.128906 396.371094 67.851562 396.886719 67.554688 L 397 67.488281 L 397 60.425781 L 396.648438 60.660156 C 396.175781 60.972656 395.589844 61.230469 394.90625 61.421875 C 394.214844 61.617188 393.640625 61.710938 393.191406 61.710938 C 391.515625 61.710938 390.273438 61.257812 389.503906 60.367188 C 388.726562 59.464844 388.332031 57.886719 388.332031 55.679688 L 388.332031 38.453125 Z M 332.824219 61.714844 C 329.675781 61.714844 327.195312 60.667969 325.449219 58.609375 C 323.691406 56.539062 322.800781 53.589844 322.800781 49.839844 C 322.800781 45.96875 323.691406 42.941406 325.449219 40.835938 C 327.199219 38.742188 329.65625 37.679688 332.753906 37.679688 C 335.757812 37.679688 338.148438 38.695312 339.863281 40.699219 C 341.585938 42.710938 342.460938 45.714844 342.460938 49.628906 C 342.460938 53.589844 341.636719 56.632812 340.015625 58.667969 C 338.40625 60.6875 335.988281 61.714844 332.824219 61.714844 M 333.207031 30.578125 C 327.207031 30.578125 322.441406 32.339844 319.039062 35.816406 C 315.644531 39.292969 313.921875 44.105469 313.921875 50.117188 C 313.921875 55.832031 315.601562 60.425781 318.917969 63.773438 C 322.234375 67.121094 326.746094 68.816406 332.332031 68.816406 C 338.148438 68.816406 342.820312 67.027344 346.21875 63.503906 C 349.613281 59.984375 351.335938 55.21875 351.335938 49.34375 C 351.335938 43.542969 349.71875 38.914062 346.535156 35.589844 C 343.34375 32.261719 338.859375 30.578125 333.207031 30.578125 M 299.949219 30.578125 C 295.867188 30.578125 292.488281 31.625 289.910156 33.6875 C 287.316406 35.761719 286 38.484375 286 41.78125 C 286 43.492188 286.28125 45.015625 286.84375 46.304688 C 287.40625 47.601562 288.273438 48.738281 289.433594 49.695312 C 290.578125 50.644531 292.351562 51.640625 294.699219 52.652344 C 296.671875 53.464844 298.144531 54.152344 299.082031 54.695312 C 299.996094 55.226562 300.644531 55.761719 301.011719 56.285156 C 301.367188 56.792969 301.546875 57.492188 301.546875 58.351562 C 301.546875 60.800781 299.714844 61.996094 295.949219 61.996094 C 294.550781 61.996094 292.957031 61.703125 291.210938 61.125 C 289.476562 60.558594 287.839844 59.726562 286.359375 58.660156 L 285.996094 58.402344 L 285.996094 66.765625 L 286.128906 66.828125 C 287.355469 67.394531 288.902344 67.871094 290.722656 68.25 C 292.542969 68.625 294.195312 68.816406 295.632812 68.816406 C 300.0625 68.816406 303.628906 67.765625 306.230469 65.691406 C 308.851562 63.601562 310.179688 60.8125 310.179688 57.402344 C 310.179688 54.945312 309.464844 52.835938 308.054688 51.136719 C 306.65625 49.449219 304.226562 47.898438 300.839844 46.53125 C 298.144531 45.445312 296.414062 44.542969 295.703125 43.851562 C 295.015625 43.183594 294.664062 42.238281 294.664062 41.042969 C 294.664062 39.980469 295.097656 39.132812 295.980469 38.441406 C 296.871094 37.75 298.113281 37.398438 299.667969 37.398438 C 301.113281 37.398438 302.589844 37.628906 304.058594 38.078125 C 305.527344 38.523438 306.816406 39.125 307.894531 39.859375 L 308.246094 40.101562 L 308.246094 32.167969 L 308.113281 32.109375 C 307.117188 31.683594 305.808594 31.316406 304.21875 31.019531 C 302.636719 30.726562 301.199219 30.578125 299.949219 30.578125 M 263.40625 61.714844 C 260.261719 61.714844 257.777344 60.667969 256.03125 58.609375 C 254.273438 56.539062 253.382812 53.589844 253.382812 49.839844 C 253.382812 45.96875 254.273438 42.941406 256.035156 40.835938 C 257.78125 38.742188 260.238281 37.679688 263.335938 37.679688 C 266.339844 37.679688 268.730469 38.695312 270.445312 40.699219 C 272.167969 42.710938 273.042969 45.714844 273.042969 49.628906 C 273.042969 53.589844 272.21875 56.632812 270.597656 58.667969 C 268.988281 60.6875 266.570312 61.714844 263.40625 61.714844 M 263.792969 30.578125 C 257.789062 30.578125 253.019531 32.339844 249.625 35.816406 C 246.226562 39.292969 244.503906 44.105469 244.503906 50.117188 C 244.503906 55.832031 246.1875 60.425781 249.503906 63.773438 C 252.820312 67.121094 257.332031 68.816406 262.914062 68.816406 C 268.730469 68.816406 273.402344 67.027344 276.800781 63.503906 C 280.195312 59.984375 281.917969 55.21875 281.917969 49.34375 C 281.917969 43.542969 280.304688 38.914062 277.117188 35.589844 C 273.925781 32.261719 269.445312 30.578125 263.792969 30.578125 M 231.347656 37.773438 L 231.347656 31.457031 L 222.789062 31.457031 L 222.789062 67.9375 L 231.347656 67.9375 L 231.347656 49.273438 C 231.347656 46.101562 232.066406 43.496094 233.484375 41.527344 C 234.882812 39.582031 236.746094 38.59375 239.019531 38.59375 C 239.792969 38.59375 240.65625 38.722656 241.59375 38.972656 C 242.523438 39.226562 243.195312 39.496094 243.589844 39.785156 L 243.949219 40.046875 L 243.949219 31.394531 L 243.8125 31.332031 C 243.015625 30.996094 241.886719 30.824219 240.460938 30.824219 C 238.308594 30.824219 236.382812 31.515625 234.734375 32.878906 C 233.285156 34.078125 232.238281 35.722656 231.441406 37.773438 Z M 207.457031 30.578125 C 203.53125 30.578125 200.027344 31.421875 197.046875 33.085938 C 194.058594 34.753906 191.75 37.132812 190.179688 40.164062 C 188.617188 43.183594 187.820312 46.710938 187.820312 50.648438 C 187.820312 54.09375 188.589844 57.257812 190.113281 60.042969 C 191.636719 62.835938 193.792969 65.023438 196.519531 66.535156 C 199.246094 68.050781 202.394531 68.816406 205.878906 68.816406 C 209.949219 68.816406 213.421875 68 216.207031 66.394531 L 216.320312 66.328125 L 216.320312 58.46875 L 215.960938 58.730469 C 214.699219 59.652344 213.289062 60.386719 211.769531 60.917969 C 210.257812 61.445312 208.878906 61.714844 207.667969 61.714844 C 204.308594 61.714844 201.613281 60.660156 199.65625 58.582031 C 197.695312 56.503906 196.699219 53.582031 196.699219 49.90625 C 196.699219 46.210938 197.734375 43.214844 199.78125 41.003906 C 201.820312 38.800781 204.519531 37.679688 207.808594 37.679688 C 210.625 37.679688 213.367188 38.636719 215.960938 40.523438 L 216.320312 40.785156 L 216.320312 32.5 L 216.203125 32.433594 C 215.226562 31.886719 213.894531 31.433594 212.242188 31.09375 C 210.597656 30.75 208.988281 30.578125 207.457031 30.578125 M 181.925781 31.457031 L 173.363281 31.457031 L 173.363281 67.9375 L 181.925781 67.9375 Z M 177.734375 15.914062 C 176.324219 15.914062 175.09375 16.394531 174.085938 17.347656 C 173.070312 18.304688 172.558594 19.507812 172.558594 20.925781 C 172.558594 22.324219 173.066406 23.503906 174.070312 24.4375 C 175.066406 25.363281 176.300781 25.832031 177.734375 25.832031 C 179.164062 25.832031 180.402344 25.363281 181.414062 24.4375 C 182.429688 23.503906 182.945312 22.324219 182.945312 20.925781 C 182.945312 19.558594 182.441406 18.367188 181.453125 17.386719 C 180.46875 16.410156 179.214844 15.914062 177.734375 15.914062 M 156.371094 28.765625 L 156.371094 67.9375 L 165.109375 67.9375 L 165.109375 17.03125 L 153.015625 17.03125 L 137.648438 54.84375 L 122.730469 17.03125 L 110.148438 17.03125 L 110.148438 67.9375 L 118.355469 67.9375 L 118.355469 28.761719 L 118.640625 28.761719 L 134.390625 67.9375 L 140.585938 67.9375 L 156.089844 28.765625 Z M 156.371094 28.765625 "/>
<path style=" stroke:none;fill-rule:nonzero;fill:rgb(94.509804%,31.764706%,10.588235%);fill-opacity:1;" d="M 40.273438 40.390625 L 0 40.390625 L 0 0.0234375 L 40.273438 0.0234375 Z M 40.273438 40.390625 "/>
<path style=" stroke:none;fill-rule:nonzero;fill:rgb(50.196078%,80%,15.686275%);fill-opacity:1;" d="M 84.738281 40.390625 L 44.46875 40.390625 L 44.46875 0.0234375 L 84.738281 0.0234375 Z M 84.738281 40.390625 "/>
<path style=" stroke:none;fill-rule:nonzero;fill:rgb(0%,67.843137%,93.72549%);fill-opacity:1;" d="M 40.273438 84.976562 L 0 84.976562 L 0 44.609375 L 40.273438 44.609375 Z M 40.273438 84.976562 "/>
<path style=" stroke:none;fill-rule:nonzero;fill:rgb(98.431373%,73.72549%,3.529412%);fill-opacity:1;" d="M 84.738281 84.976562 L 44.46875 84.976562 L 44.46875 44.609375 L 84.738281 44.609375 Z M 84.738281 84.976562 "/>
</g>
</svg>
