<?xml version="1.0" encoding="UTF-8"?>
<svg xmlns="http://www.w3.org/2000/svg" xmlns:xlink="http://www.w3.org/1999/xlink" width="400px" height="px" viewBox="0 0 400 426" version="1.1">
<g id="surface1">
<path style=" stroke:none;fill-rule:nonzero;fill:rgb(0%,0%,0%);fill-opacity:1;" d="M 333.898438 84.792969 C 333.898438 88.019531 331.34375 87.945312 328.113281 87.945312 L 285.972656 87.945312 C 282.742188 87.945312 280.1875 85.394531 280.1875 82.167969 L 280.1875 38.195312 C 280.1875 35.042969 280.113281 32.417969 283.34375 32.417969 C 286.496094 32.417969 286.496094 34.96875 286.496094 38.195312 L 286.496094 81.640625 L 328.113281 81.640625 C 331.269531 81.640625 333.898438 81.566406 333.898438 84.792969 Z M 333.898438 84.792969 "/>
<path style=" stroke:none;fill-rule:nonzero;fill:rgb(0%,0%,0%);fill-opacity:1;" d="M 63.324219 130.417969 L 63.324219 49.824219 C 63.324219 31.214844 78.496094 16.058594 97.125 16.058594 L 280.789062 16.058594 C 286.949219 16.058594 292.957031 18.535156 297.316406 22.886719 L 344.9375 70.613281 C 349.296875 75.039062 351.699219 80.890625 351.699219 87.121094 L 351.699219 232.699219 L 344.636719 232.773438 L 344.636719 90.722656 C 344.636719 84.792969 342.984375 79.167969 338.855469 74.890625 L 293.707031 28.890625 C 289.578125 24.6875 284.542969 22.960938 278.683594 22.960938 L 100.132812 22.960938 C 82.402344 22.960938 70.007812 34.890625 70.007812 52.828125 L 70.007812 127.191406 Z M 70.007812 279.597656 L 70.007812 373.171875 C 70.007812 391.03125 82.480469 403.039062 100.132812 403.039062 L 140.09375 403.039062 L 140.09375 409.941406 L 97.125 409.941406 C 78.496094 409.941406 63.324219 394.785156 63.324219 376.175781 L 63.324219 274.195312 Z M 70.007812 279.597656 "/>
<path style=" stroke:none;fill-rule:nonzero;fill:rgb(13.72549%,12.156863%,12.54902%);fill-opacity:1;" d="M 158.648438 252.433594 L 158.648438 350.734375 L 151.960938 350.734375 L 151.960938 254.683594 C 151.960938 251.082031 150.160156 249.507812 146.027344 249.507812 C 141.898438 249.507812 140.09375 251.082031 140.09375 254.683594 L 140.09375 391.632812 L 133.410156 391.632812 L 133.410156 252.433594 C 133.410156 248.757812 135.585938 244.328125 145.953125 244.328125 C 156.394531 244.328125 158.574219 248.757812 158.648438 252.433594 Z M 158.648438 252.433594 "/>
<path style=" stroke:none;fill-rule:evenodd;fill:rgb(13.72549%,12.156863%,12.54902%);fill-opacity:1;" d="M 186.667969 296.78125 L 186.667969 342.632812 C 186.667969 346.308594 184.488281 350.734375 174.121094 350.734375 C 163.757812 350.734375 161.578125 346.308594 161.578125 342.632812 L 161.578125 296.78125 C 161.578125 293.105469 163.757812 288.679688 174.121094 288.679688 C 184.488281 288.679688 186.667969 293.105469 186.667969 296.78125 Z M 168.1875 340.457031 C 168.1875 344.058594 169.992188 345.632812 174.121094 345.632812 C 178.253906 345.632812 180.054688 344.058594 180.054688 340.457031 L 180.054688 299.035156 C 180.054688 295.429688 178.253906 293.855469 174.121094 293.855469 C 169.992188 293.855469 168.1875 295.429688 168.1875 299.035156 Z M 168.1875 340.457031 "/>
<path style=" stroke:none;fill-rule:nonzero;fill:rgb(13.72549%,12.156863%,12.54902%);fill-opacity:1;" d="M 206.046875 281.324219 L 216.414062 281.324219 L 216.414062 286.5 L 206.046875 286.5 L 206.046875 358.164062 L 199.363281 358.164062 L 199.363281 286.5 L 194.929688 286.5 L 194.929688 281.324219 L 199.363281 281.324219 L 199.363281 244.328125 L 206.046875 244.328125 Z M 206.046875 281.324219 "/>
<path style=" stroke:none;fill-rule:evenodd;fill:rgb(13.72549%,12.156863%,12.54902%);fill-opacity:1;" d="M 244.433594 296.855469 L 244.433594 320.496094 C 244.433594 324.171875 242.253906 328.597656 231.886719 328.597656 C 229.558594 328.597656 227.605469 328.375 225.953125 327.921875 L 225.953125 340.457031 C 225.953125 344.058594 227.757812 345.632812 231.886719 345.632812 C 236.019531 345.632812 237.820312 344.058594 237.820312 340.457031 L 237.820312 335.277344 L 244.507812 335.277344 L 244.507812 342.632812 C 244.507812 346.308594 242.328125 350.734375 231.960938 350.734375 C 221.597656 350.734375 219.417969 346.308594 219.417969 342.632812 L 219.417969 296.78125 C 219.417969 293.105469 221.597656 288.679688 231.960938 288.679688 C 242.328125 288.679688 244.507812 293.105469 244.433594 296.855469 Z M 226.027344 318.242188 C 226.027344 321.84375 227.832031 323.421875 231.960938 323.421875 C 236.09375 323.421875 237.898438 321.84375 237.898438 318.242188 L 237.898438 299.035156 C 237.898438 295.429688 236.09375 293.855469 231.960938 293.855469 C 227.832031 293.855469 226.027344 295.429688 226.027344 299.035156 Z M 279.886719 296.78125 L 279.886719 342.632812 C 279.886719 346.308594 277.707031 350.734375 267.34375 350.734375 C 265.015625 350.734375 263.0625 350.511719 261.410156 350.0625 L 261.410156 378.800781 L 254.722656 378.800781 L 254.722656 296.78125 C 254.722656 293.105469 256.902344 288.679688 267.269531 288.679688 C 277.707031 288.679688 279.886719 293.105469 279.886719 296.78125 Z M 261.410156 340.457031 C 261.410156 344.058594 263.210938 345.632812 267.34375 345.632812 C 271.472656 345.632812 273.277344 344.058594 273.277344 340.457031 L 273.277344 299.035156 C 273.277344 295.429688 271.472656 293.855469 267.34375 293.855469 C 263.210938 293.855469 261.410156 295.429688 261.410156 299.035156 Z M 315.269531 296.707031 L 315.269531 342.554688 C 315.269531 346.234375 313.089844 350.660156 302.722656 350.660156 C 292.355469 350.660156 290.179688 346.234375 290.179688 342.554688 L 290.179688 318.917969 C 290.179688 315.242188 292.355469 310.816406 302.722656 310.816406 C 305.050781 310.816406 307.003906 311.039062 308.65625 311.488281 L 308.65625 298.957031 C 308.65625 295.355469 306.855469 293.78125 302.722656 293.78125 C 298.589844 293.78125 296.789062 295.355469 296.789062 298.957031 L 296.789062 304.136719 L 290.101562 304.136719 L 290.101562 296.78125 C 290.101562 293.105469 292.28125 288.679688 302.648438 288.679688 C 313.015625 288.679688 315.269531 293.105469 315.269531 296.707031 Z M 296.714844 340.378906 C 296.714844 343.980469 298.515625 345.558594 302.648438 345.558594 C 306.78125 345.558594 308.582031 343.980469 308.582031 340.378906 L 308.582031 321.171875 C 308.582031 317.566406 306.78125 315.992188 302.648438 315.992188 C 298.515625 315.992188 296.714844 317.566406 296.714844 321.171875 Z M 344.414062 289.332031 L 344.414062 244.328125 L 351.097656 244.328125 L 351.097656 342.632812 C 351.097656 346.308594 348.921875 350.734375 338.554688 350.734375 C 328.1875 350.734375 326.007812 346.308594 326.007812 342.632812 L 326.007812 296.78125 C 326.007812 293.105469 328.1875 288.679688 338.554688 288.679688 C 340.84375 288.679688 342.777344 288.894531 344.414062 289.332031 Z M 344.488281 289.351562 C 344.464844 289.347656 344.4375 289.339844 344.414062 289.332031 L 344.414062 289.351562 Z M 332.695312 340.457031 C 332.695312 344.058594 334.496094 345.632812 338.628906 345.632812 C 342.761719 345.632812 344.5625 344.058594 344.5625 340.457031 L 344.5625 299.035156 C 344.5625 295.429688 342.761719 293.855469 338.628906 293.855469 C 334.496094 293.855469 332.695312 295.429688 332.695312 299.035156 Z M 332.695312 340.457031 "/>
<path style=" stroke:none;fill-rule:nonzero;fill:rgb(13.72549%,12.156863%,12.54902%);fill-opacity:1;" d="M 368.226562 303.460938 L 375.585938 303.460938 L 375.585938 308.636719 L 368.226562 308.636719 L 368.226562 323.421875 L 361.539062 323.421875 L 361.539062 308.636719 L 354.101562 308.636719 L 354.101562 303.460938 L 361.539062 303.460938 L 361.539062 288.679688 L 368.226562 288.679688 Z M 400 303.460938 L 400 308.636719 L 392.636719 308.636719 L 392.636719 323.421875 L 385.953125 323.421875 L 385.953125 308.636719 L 378.515625 308.636719 L 378.515625 303.460938 L 385.953125 303.460938 L 385.953125 288.679688 L 392.636719 288.679688 L 392.636719 303.460938 Z M 400 303.460938 "/>
<path style=" stroke:none;fill-rule:nonzero;fill:rgb(66.27451%,95.294118%,49.411765%);fill-opacity:1;" d="M 120.585938 152.253906 C 121.863281 150.980469 124.265625 148.628906 125.617188 147.355469 C 126.894531 151.183594 128.546875 155.910156 131.777344 158.460938 C 137.1875 162.589844 142.59375 166.867188 149.355469 168.441406 C 155.367188 169.566406 161.351562 168.839844 166.535156 165.386719 C 171.042969 161.335938 173.597656 155.285156 178.253906 151.382812 C 182.609375 153.5625 188.222656 154.859375 192.429688 157.335938 C 196.785156 160.113281 198.722656 165.695312 201.351562 169.972656 C 198.496094 170.496094 195.757812 170.984375 192.902344 171.585938 C 193.953125 173.386719 194.742188 175.074219 195.867188 176.875 C 195.117188 178 193.992188 179.726562 193.316406 180.929688 C 191.886719 178.675781 190.195312 176.238281 188.84375 173.988281 C 185.765625 174.738281 183.738281 175.863281 181.109375 177.511719 C 181.410156 178.9375 181.632812 180.664062 181.933594 182.089844 C 175.324219 178.714844 167.8125 181.445312 161.878906 184.746094 C 160.074219 185.722656 158.234375 187.304688 156.433594 188.28125 C 152.675781 186.253906 149.03125 184.230469 145.050781 182.652344 C 143.472656 185.207031 141.332031 187.679688 139.457031 190.082031 C 138.78125 188.132812 137.953125 186.21875 137.351562 184.191406 C 136.675781 184.265625 135.8125 184.378906 135.136719 184.453125 C 134.835938 187.230469 134.984375 189.96875 135.363281 192.746094 C 133.558594 192.523438 130.890625 192.183594 129.089844 191.957031 C 129.914062 188.207031 130.628906 184.753906 131.378906 180.929688 C 130.480469 181.003906 129.578125 181.039062 128.675781 181.117188 C 125.597656 185.84375 125.632812 191.808594 126.234375 197.285156 C 124.957031 196.234375 122.742188 194.699219 121.539062 193.722656 C 121.691406 189.820312 122.214844 186.253906 122.515625 182.355469 C 118.460938 180.628906 117.609375 185.304688 116.859375 188.304688 C 114.605469 187.554688 111.773438 186.707031 109.597656 185.878906 C 104.5625 184.304688 101.183594 179.878906 96.300781 177.925781 C 93.746094 176.875 92.542969 175.300781 90.589844 173.425781 C 90.367188 174.175781 90.066406 174.773438 89.914062 175.523438 C 91.867188 178.828125 91.867188 183.554688 88.039062 185.582031 C 86.835938 185.429688 84.882812 184.980469 83.605469 184.753906 C 87.660156 188.882812 93.597656 189.183594 98.929688 190.609375 C 98.179688 191.132812 95.773438 192.859375 95.023438 193.382812 C 89.914062 191.734375 83.832031 191.433594 79.023438 188.808594 C 78.875 186.855469 78.796875 184.980469 78.648438 183.027344 C 77.21875 182.730469 76.019531 182.691406 74.589844 182.390625 C 72.9375 182.089844 70.910156 181.753906 69.257812 181.378906 C 68.054688 179.953125 67.605469 177.402344 65.425781 178.675781 C 63.699219 180.253906 62.046875 182.195312 60.394531 183.921875 C 59.417969 182.570312 58.238281 181.046875 57.261719 179.695312 C 49.902344 180.597656 51.003906 189.226562 46.273438 193.203125 C 43.269531 195.378906 42.839844 199.636719 40.058594 202.035156 C 39.683594 198.660156 39.308594 194.929688 39.683594 191.554688 C 41.1875 185.625 43.769531 180.074219 45.273438 174.070312 C 45.421875 173.617188 45.820312 172.441406 45.972656 171.914062 C 49.050781 172.066406 52.53125 172.492188 55.535156 171.667969 C 58.164062 170.390625 56.917969 167.089844 57.894531 164.765625 C 58.34375 160.710938 62.144531 158.085938 65.375 156.285156 C 66.578125 157.261719 67.679688 158.289062 68.882812 159.265625 C 72.5625 158.136719 76.132812 156.554688 79.886719 156.03125 C 83.042969 156.179688 85.882812 157.410156 88.960938 157.710938 C 90.839844 157.636719 91.394531 155.257812 93.199219 154.882812 C 94.398438 154.957031 95.796875 155.234375 97 155.382812 C 97.375 156.511719 97.652344 157.410156 97.953125 158.535156 C 99.832031 156.359375 101.835938 153.832031 105.066406 154.132812 C 103.941406 156.308594 103.039062 158.410156 101.910156 160.585938 C 104.539062 161.335938 106.269531 160.765625 108.597656 159.488281 C 108.222656 157.914062 108.070312 156.1875 107.769531 154.613281 C 111.675781 155.285156 112.828125 159.308594 114.101562 162.460938 C 115.679688 162.011719 117.28125 161.636719 118.859375 161.183594 C 121.414062 163.359375 124.070312 165.867188 126.550781 168.117188 C 130.605469 171.871094 135.5625 171.796875 140.746094 172.09375 C 138.269531 167.820312 134.910156 162.835938 129.125 164.410156 C 126.347656 160.585938 123.367188 156.082031 120.585938 152.253906 Z M 120.585938 152.253906 "/>
<path style=" stroke:none;fill-rule:nonzero;fill:rgb(45.882353%,83.921569%,43.529412%);fill-opacity:1;" d="M 170.832031 207.0625 C 171.050781 206.320312 170.5625 203.792969 171.042969 203.734375 C 176.066406 203.085938 179.710938 205.082031 182.414062 207.710938 C 179.109375 207.492188 173.988281 208.175781 170.816406 207.0625 "/>
<path style=" stroke:none;fill-rule:evenodd;fill:rgb(45.882353%,83.921569%,43.529412%);fill-opacity:1;" d="M 99.855469 132.519531 C 102.332031 133.945312 105.335938 133.644531 108.042969 133.269531 C 109.019531 134.09375 109.875 134.996094 110.851562 135.820312 C 112.277344 134.847656 113.707031 133.773438 115.132812 132.796875 C 116.109375 134.074219 118.707031 134.996094 118.78125 136.796875 C 117.730469 138.671875 116.605469 141 115.402344 142.800781 C 114.726562 142.949219 113.300781 143.152344 112.699219 143.378906 C 114.050781 145.027344 115.757812 146.828125 117.109375 148.40625 C 111.398438 148.707031 106.3125 145.007812 101.957031 142.15625 C 97.976562 142.753906 95.074219 146.851562 90.945312 147.300781 C 88.917969 146.402344 87.1875 145.457031 85.3125 144.253906 C 84.632812 146.433594 84.207031 148.382812 82.929688 150.257812 C 81.050781 151.535156 78.722656 151.503906 76.542969 152.105469 C 76.621094 153.082031 76.769531 154.582031 76.84375 155.558594 C 74.515625 153.304688 71.960938 150.664062 68.65625 152.164062 C 71.0625 154.640625 67.042969 155.40625 65.390625 156.53125 C 62.160156 158.332031 58.667969 160.660156 58.292969 164.710938 C 57.390625 167.039062 58.367188 170.640625 55.738281 171.914062 C 52.65625 172.742188 48.675781 172.3125 45.597656 172.238281 C 45.820312 171.488281 46.257812 169.722656 46.484375 168.972656 C 48.285156 169.5 50.328125 169.890625 52.054688 170.414062 C 51.757812 168.011719 51.402344 165.761719 51.628906 163.359375 C 53.429688 159.007812 57.261719 155.707031 59.515625 151.578125 C 61.695312 147.828125 62.519531 142.628906 67.328125 141.203125 C 69.054688 144.351562 68.257812 147.300781 66.757812 150.230469 C 68.109375 149.101562 68.335938 148.277344 69.761719 147.226562 C 68.335938 141.449219 72.390625 134.597656 78.851562 133.921875 C 78.175781 135.421875 77.273438 137.503906 76.597656 139.003906 C 79.527344 140.652344 81.277344 138.074219 81.804688 135.144531 C 83.230469 137.171875 84.882812 139.152344 86.386719 141.105469 C 87.136719 140.054688 87.4375 139.699219 88.261719 138.648438 C 87.585938 137.300781 86.910156 135.324219 86.234375 133.976562 C 89.691406 136.152344 93.542969 138.273438 97.148438 140.226562 C 98.125 137.976562 99.253906 135.222656 99.855469 132.519531 Z M 68.394531 180.378906 C 70.046875 180.679688 74.5 181.707031 76.152344 182.082031 C 74.277344 187.109375 71.347656 191.574219 71.648438 197.128906 C 72.625 200.730469 75.441406 204.09375 77.695312 207.019531 C 74.390625 207.996094 69.617188 207.132812 67.367188 210.207031 C 66.011719 216.210938 71.757812 220.039062 75.289062 223.714844 C 70.183594 221.839844 62.851562 218.367188 61.046875 212.738281 C 63.527344 209.660156 66.78125 207.148438 70.007812 204.746094 C 65.351562 197.691406 62.308594 187.132812 68.394531 180.378906 Z M 121.601562 192.941406 C 122.800781 193.992188 124.90625 195.75 126.105469 196.722656 C 126.257812 198.75 126.289062 201.828125 126.363281 203.851562 C 124.257812 201.152344 121.675781 196.542969 121.601562 192.941406 Z M 171.945312 205.96875 C 171.933594 205.972656 171.925781 205.980469 171.921875 205.984375 C 171.859375 206.15625 171.867188 206.035156 171.90625 205.992188 C 168.050781 207.730469 162.816406 211.574219 162.277344 215.964844 C 160.472656 213.414062 160.804688 211.4375 161.855469 209.113281 C 159.453125 204.085938 154.96875 199.710938 153.316406 194.234375 C 154.589844 192.429688 158.398438 192.777344 159.753906 194.351562 C 162.304688 197.65625 163.132812 201.480469 164.859375 205.234375 C 166.550781 205.351562 170.109375 205.714844 171.929688 205.953125 C 171.929688 205.957031 171.925781 205.964844 171.921875 205.96875 Z M 171.921875 205.96875 C 171.917969 205.972656 171.910156 205.980469 171.90625 205.992188 C 171.910156 205.984375 171.917969 205.984375 171.921875 205.984375 Z M 92.207031 197.625 L 94.386719 196.648438 C 94.609375 200.027344 96.488281 205.691406 94.007812 208.542969 C 91.53125 208.316406 87.324219 207.640625 84.921875 207.191406 C 88.148438 205.089844 91.15625 201.527344 92.207031 197.625 Z M 132.632812 208.085938 C 135.039062 205.308594 140.792969 201.855469 142.972656 207.109375 C 139.367188 208.835938 134.4375 210.238281 133.234375 214.589844 C 133.234375 214.742188 133.386719 215.640625 133.386719 215.792969 C 133.910156 219.617188 139.824219 228.34375 136.285156 226.824219 C 126.371094 222.546875 131.050781 209.863281 126.527344 203.019531 C 128.015625 204.796875 130.878906 206.5625 132.632812 208.085938 Z M 161.277344 222.417969 C 165.558594 224.292969 170.765625 226.542969 175.269531 228.046875 C 177.824219 226.996094 182.289062 221.320312 184.390625 225.449219 C 181.085938 228.449219 175.648438 232.824219 170.988281 231.773438 C 167.382812 230.050781 164.054688 225.117188 161.277344 222.417969 Z M 42.292969 223.144531 C 43.117188 223.296875 45.949219 223.542969 46.851562 223.617188 C 50.457031 231.949219 50.652344 241.980469 55.609375 249.785156 C 58.464844 254.4375 60.621094 259.390625 63.324219 264.117188 C 66.179688 268.996094 71.25 271.988281 75.679688 275.367188 C 85.144531 282.34375 98.890625 281.367188 105.578125 271.089844 C 109.859375 261.933594 104.789062 253.605469 101.109375 245.199219 C 95.0625 235.707031 80.414062 242.453125 79.578125 252.539062 L 79.355469 252.386719 C 78.386719 242.414062 85.632812 235.160156 95.773438 235.953125 C 102.183594 236.449219 109.949219 244.832031 112.503906 251.660156 C 115.507812 259.839844 112.675781 275.777344 104.9375 279.378906 C 98.929688 283.207031 88.789062 282.457031 82.101562 282.457031 C 72.9375 282.007812 66.652344 273.820312 60.71875 267.890625 C 54.933594 260.839844 50.929688 252.238281 46.421875 244.285156 C 44.019531 237.90625 42.816406 230.050781 42.292969 223.144531 Z M 79.558594 253.890625 C 79.488281 253.503906 79.429688 253.125 79.390625 252.75 L 79.558594 252.945312 C 79.542969 253.257812 79.542969 253.574219 79.558594 253.890625 Z M 91.269531 250.488281 C 92.320312 251.691406 94.046875 253.714844 95.097656 254.992188 C 92.542969 258.292969 87.585938 258.894531 83.90625 258.371094 C 82.660156 256.996094 80.960938 254.648438 79.558594 252.945312 C 79.5625 252.808594 79.570312 252.671875 79.578125 252.539062 C 83.003906 254.84375 86.957031 258.609375 91.117188 256.042969 C 90.96875 254.242188 91.269531 252.289062 91.269531 250.488281 Z M 79.355469 252.386719 C 79.363281 252.507812 79.375 252.628906 79.390625 252.75 C 79.167969 252.480469 78.949219 252.222656 78.746094 252 C 78.945312 252.125 79.148438 252.253906 79.355469 252.386719 Z M 79.355469 252.386719 "/>
<path style=" stroke:none;fill-rule:nonzero;fill:rgb(36.078431%,80.784314%,45.490196%);fill-opacity:1;" d="M 81.277344 133.75 C 83.078125 132.324219 84.320312 130.539062 86.421875 129.714844 C 91.078125 129.261719 95.886719 130.726562 100.09375 132.601562 C 99.492188 135.230469 98.480469 138.222656 97.277344 140.625 C 93.671875 138.746094 90.066406 136.722656 86.683594 134.546875 L 88.714844 138.597656 C 87.960938 139.648438 87.136719 140.625 86.386719 141.675781 C 84.882812 139.722656 83.378906 137.773438 81.953125 135.746094 C 81.425781 138.671875 79.25 140.847656 76.242188 139.199219 C 76.921875 137.621094 77.875 135.597656 78.550781 134.09375 C 79.453125 132.894531 80.324219 131.800781 81.300781 130.671875 C 81.375 131.347656 81.277344 132.925781 81.277344 133.75 Z M 81.277344 133.75 "/>
<path style=" stroke:none;fill-rule:nonzero;fill:rgb(56.470588%,89.803922%,60.392157%);fill-opacity:1;" d="M 66.628906 135.230469 C 73.015625 128.925781 82.402344 127.011719 90.742188 124.386719 C 100.28125 123.859375 111.023438 126.675781 119.660156 130.652344 C 123.417969 132.152344 122.703125 137.480469 123.53125 140.855469 C 120.828125 141.457031 117.632812 141.824219 114.929688 142.5 C 116.132812 140.625 117.257812 138.824219 118.386719 136.945312 C 118.308594 135.144531 116.207031 134.46875 115.15625 133.195312 L 110.875 136.121094 L 107.945312 133.644531 C 105.316406 134.019531 102.460938 134.394531 99.980469 132.96875 C 95.773438 131.09375 91.269531 129.667969 86.609375 130.117188 C 84.507812 131.019531 82.855469 132.667969 81.125 134.09375 C 81.125 133.34375 81.203125 131.84375 81.203125 131.09375 C 80.226562 132.21875 79.25 133.34375 78.347656 134.546875 C 71.886719 135.222656 68.882812 141.898438 70.308594 147.675781 C 68.957031 148.726562 67.53125 149.855469 66.179688 150.90625 C 67.679688 147.976562 68.957031 144.75 67.230469 141.597656 C 62.421875 143.023438 62.046875 148.277344 59.867188 152.03125 C 57.613281 156.15625 53.785156 159.308594 51.980469 163.660156 C 51.832031 166.0625 52.207031 168.390625 52.433594 170.789062 C 50.628906 170.265625 48.375 169.71875 46.648438 169.191406 C 51.15625 156.960938 56.636719 144.007812 66.628906 135.230469 Z M 66.628906 135.230469 "/>
<path style=" stroke:none;fill-rule:nonzero;fill:rgb(56.078431%,90.588235%,44.705882%);fill-opacity:1;" d="M 91.042969 146.925781 C 95.171875 146.476562 98.027344 142.199219 102.007812 141.597656 C 106.441406 144.527344 110.574219 148.351562 116.207031 148.054688 C 114.855469 146.402344 113.503906 144.75 112.148438 143.175781 C 112.828125 143.023438 114.179688 142.648438 114.78125 142.5 C 117.484375 141.824219 120.8125 141.179688 123.515625 140.578125 C 124.191406 143.128906 124.695312 145.5 125.519531 148.054688 C 124.242188 149.328125 122.515625 151.054688 121.164062 152.332031 C 123.945312 156.15625 126.496094 160.210938 129.277344 164.035156 C 135.0625 162.460938 138.742188 168.011719 141.296875 172.367188 C 136.113281 172.066406 130.253906 171.992188 126.195312 168.238281 C 123.71875 165.988281 121.316406 163.660156 118.683594 161.484375 L 113.953125 162.835938 C 112.675781 159.757812 111.925781 155.707031 108.019531 154.957031 C 108.320312 156.53125 108.695312 158.03125 108.996094 159.609375 C 106.667969 160.960938 104.113281 161.558594 101.484375 160.808594 C 102.535156 158.632812 103.660156 156.53125 104.789062 154.355469 C 101.558594 154.054688 99.679688 156.832031 97.878906 159.007812 C 97.503906 157.882812 97.125 156.757812 96.828125 155.632812 C 95.625 155.480469 94.496094 155.183594 93.296875 155.105469 C 91.566406 155.480469 90.890625 157.957031 89.015625 158.03125 C 85.933594 157.734375 83.003906 156.457031 79.851562 156.308594 C 76.09375 156.832031 72.5625 158.484375 68.882812 159.535156 C 67.679688 158.558594 66.402344 157.582031 65.203125 156.609375 C 66.855469 155.40625 70.535156 154.507812 68.054688 152.03125 C 71.4375 150.527344 74.214844 152.628906 76.542969 154.882812 C 76.46875 153.90625 76.320312 152.855469 76.242188 151.878906 C 78.421875 151.355469 80.75 151.28125 82.703125 150.003906 C 83.980469 148.128906 84.433594 145.800781 85.109375 143.699219 C 87.136719 144.824219 89.015625 146.027344 91.042969 146.925781 Z M 91.042969 146.925781 "/>
<path style=" stroke:none;fill-rule:nonzero;fill:rgb(52.941176%,87.058824%,44.313725%);fill-opacity:1;" d="M 192.300781 171.390625 C 195.15625 170.789062 198.796875 170.007812 201.652344 169.410156 C 202.554688 171.359375 203.832031 173.910156 204.582031 175.863281 C 196.769531 183.667969 182.085938 186.742188 171.792969 189.144531 C 167.511719 190.421875 165.332031 186.773438 161.804688 184.746094 C 167.738281 181.519531 174.796875 178.070312 181.410156 181.445312 L 180.507812 177.167969 C 183.210938 175.515625 186.140625 174.316406 189.144531 173.566406 C 190.496094 175.816406 191.925781 178.070312 193.277344 180.320312 C 193.953125 179.195312 194.703125 177.992188 195.457031 176.867188 C 194.480469 175.066406 193.351562 173.191406 192.300781 171.390625 Z M 192.300781 171.390625 "/>
<path style=" stroke:none;fill-rule:nonzero;fill:rgb(59.215686%,92.156863%,45.490196%);fill-opacity:1;" d="M 90.367188 172.515625 C 92.320312 174.390625 94.195312 176.492188 96.75 177.542969 C 101.558594 179.417969 105.140625 184.027344 110.175781 185.601562 C 109.722656 186.351562 109.273438 187.277344 108.824219 188.027344 C 101.988281 185.851562 94.25 187.5 87.414062 185.324219 C 91.246094 183.300781 91.492188 178.820312 89.539062 175.515625 C 89.691406 174.765625 90.140625 173.265625 90.367188 172.515625 Z M 90.367188 172.515625 "/>
<path style=" stroke:none;fill-rule:nonzero;fill:rgb(51.764706%,79.607843%,44.313725%);fill-opacity:1;" d="M 45.898438 192.925781 C 50.628906 188.949219 50.027344 180.09375 57.390625 179.195312 C 58.441406 180.546875 59.679688 182.203125 60.65625 183.554688 C 53.671875 188.882812 50.929688 197.472656 46.722656 204.753906 C 44.695312 204.679688 42.140625 204.679688 40.113281 204.679688 C 40.113281 204.078125 40.1875 202.390625 40.113281 201.714844 C 42.890625 199.3125 42.890625 195.101562 45.898438 192.925781 Z M 45.898438 192.925781 "/>
<path style=" stroke:none;fill-rule:nonzero;fill:rgb(42.352941%,72.54902%,37.647059%);fill-opacity:1;" d="M 144.902344 182.121094 C 148.882812 183.695312 152.75 185.894531 156.507812 187.921875 C 150.046875 191.375 142.398438 193.339844 135.039062 192.515625 C 134.671875 189.738281 134.535156 186.773438 134.835938 183.996094 C 135.511719 183.921875 136.863281 183.773438 137.539062 183.621094 C 138.214844 185.574219 138.890625 187.523438 139.566406 189.550781 C 141.445312 187.148438 143.25 184.671875 144.902344 182.121094 Z M 144.902344 182.121094 "/>
<path style=" stroke:none;fill-rule:nonzero;fill:rgb(46.666667%,77.647059%,42.352941%);fill-opacity:1;" d="M 82.78125 184.449219 C 83.980469 184.597656 86.386719 184.898438 87.660156 185.121094 C 94.496094 187.296875 101.785156 185.648438 108.621094 187.824219 C 109.070312 187.074219 109.519531 186.25 109.972656 185.496094 C 112.226562 186.324219 115.328125 187.328125 117.582031 188.078125 C 117.582031 189.730469 117.3125 191.652344 117.386719 193.300781 C 110.25 194.953125 101.160156 195.808594 94.097656 193.480469 C 94.851562 192.957031 97.351562 191.277344 98.101562 190.75 C 92.769531 189.324219 86.835938 188.574219 82.78125 184.449219 Z M 82.78125 184.449219 "/>
<path style=" stroke:none;fill-rule:nonzero;fill:rgb(98.431373%,99.215686%,98.823529%);fill-opacity:1;" d="M 127.925781 141.824219 C 124.019531 132.96875 124.996094 122.765625 127.851562 113.757812 C 129.953125 106.707031 136.863281 98.453125 144.527344 97.402344 C 152.039062 94.699219 159.625 100.703125 163.757812 106.40625 C 165.785156 110.15625 169.089844 113.007812 172.542969 115.484375 C 176.375 127.792969 175.984375 143.070312 170.34375 154.703125 C 168.699219 158.378906 163.945312 162.019531 160.488281 163.894531 C 151.472656 166.519531 141.820312 162.6875 135.363281 156.230469 L 133.257812 153.832031 C 128.75 151.730469 128.675781 146.25 127.925781 141.824219 Z M 176.148438 147.226562 C 177.804688 139.199219 177.277344 128.84375 177.125 120.738281 C 181.785156 112.410156 193.726562 108.507812 202.515625 107.007812 C 209.203125 106.179688 218.515625 110.234375 220.167969 117.585938 C 224.976562 128.691406 219.644531 141.675781 213.332031 150.90625 C 209.652344 154.28125 203.945312 158.632812 200.488281 162.308594 C 196.28125 153.980469 184.714844 149.480469 176.148438 147.226562 Z M 176.148438 147.226562 "/>
<path style=" stroke:none;fill-rule:nonzero;fill:rgb(13.72549%,12.156863%,12.54902%);fill-opacity:1;" d="M 137.015625 135.820312 C 136.039062 128.691406 145.726562 128.917969 149.933594 131.695312 C 151.511719 136.570312 148.882812 143.402344 142.875 143.402344 C 140.167969 141.523438 136.414062 139.722656 137.015625 135.820312 Z M 203.042969 131.242188 C 204.320312 129.441406 205.519531 127.640625 206.796875 125.839844 C 208.601562 125.464844 210.328125 125.015625 212.054688 124.492188 C 214.007812 127.492188 213.933594 131.769531 212.882812 135.070312 C 209.351562 138.449219 204.46875 134.996094 203.042969 131.242188 Z M 203.042969 131.242188 "/>
<path style=" stroke:none;fill-rule:nonzero;fill:rgb(81.568627%,48.235294%,51.764706%);fill-opacity:1;" d="M 11.867188 206.960938 C 14.421875 207.335938 17.277344 207.335938 19.832031 206.808594 C 19.605469 209.734375 15.625 211.160156 16.148438 214.164062 C 16.828125 217.089844 18.554688 219.867188 19.757812 222.644531 C 14.875 222.417969 9.164062 222.792969 4.355469 221.890625 C 3.90625 219.339844 3.003906 215.214844 5.632812 213.488281 C 8.261719 211.910156 10.292969 209.585938 11.867188 206.960938 Z M 11.867188 206.960938 "/>
<path style=" stroke:none;fill-rule:nonzero;fill:rgb(100%,100%,100%);fill-opacity:1;" d="M 26.695312 208.128906 C 24.59375 211.730469 22.023438 216.730469 25.253906 220.480469 C 24.878906 220.632812 23.570312 221.203125 23.121094 221.425781 C 21.617188 219.402344 20.070312 216.773438 19.246094 214.375 C 20.222656 212.574219 21.347656 210.367188 22.175781 208.488281 C 23.453125 208.488281 25.34375 208.355469 26.695312 208.128906 Z M 32.855469 209.316406 C 32.40625 211.566406 31.460938 213.382812 30.03125 215.109375 C 32.359375 215.257812 32.300781 223.167969 28.921875 221.140625 C 28.621094 220.542969 27.703125 219.3125 27.402344 218.785156 C 27.628906 216.535156 27.042969 213.757812 28.996094 212.105469 C 29.070312 211.957031 29.597656 211.507812 29.746094 211.355469 L 30.632812 210.320312 C 30.707031 210.019531 31.070312 209.179688 31.21875 208.878906 L 31.640625 209.839844 Z M 32.855469 209.316406 "/>
<path style=" stroke:none;fill-rule:nonzero;fill:rgb(88.235294%,79.607843%,52.54902%);fill-opacity:1;" d="M 70.183594 209.488281 C 73.636719 210.3125 81.902344 208.984375 84.003906 211.835938 C 83.402344 211.761719 80.375 211.867188 79.773438 211.792969 C 80.148438 212.992188 80.546875 214.214844 81 215.417969 C 78.21875 215.417969 74.515625 215.265625 71.738281 215.265625 C 71.285156 213.617188 70.632812 211.0625 70.183594 209.488281 Z M 35.566406 218.261719 C 43.53125 216.984375 52.433594 218.636719 60.394531 218.9375 C 60.695312 219.3125 61.671875 220.625 62.046875 221 C 54.007812 221 44.730469 221.710938 36.769531 220.886719 C 36.46875 220.363281 35.792969 218.785156 35.566406 218.261719 Z M 35.566406 218.261719 "/>
<path style=" stroke:none;fill-rule:nonzero;fill:rgb(86.666667%,76.470588%,46.666667%);fill-opacity:1;" d="M 33.804688 214.808594 C 35.304688 209.855469 40.601562 210.007812 44.730469 209.78125 C 48.488281 210.304688 55.324219 208.917969 58.179688 212.144531 C 57.878906 212.820312 56.902344 215.035156 56.601562 215.707031 C 49.164062 215.332031 41.164062 215.035156 33.804688 214.808594 Z M 86.386719 218.964844 C 99.679688 219.117188 113.414062 219.324219 126.707031 220.226562 C 126.484375 220.675781 125.707031 221.96875 125.484375 222.34375 C 112.488281 222.792969 99.378906 222.566406 86.386719 222.492188 Z M 86.386719 218.964844 "/>
<path style=" stroke:none;fill-rule:nonzero;fill:rgb(86.27451%,77.254902%,46.27451%);fill-opacity:1;" d="M 79.25 211.386719 L 81.652344 211.6875 C 84.730469 212.210938 87.4375 212.960938 90.589844 213.039062 C 101.785156 209.734375 114.742188 211.46875 126.234375 211.46875 C 126.308594 212.445312 126.046875 215.671875 126.121094 216.648438 C 117.484375 216.945312 108.132812 217.058594 99.492188 216.835938 C 94.984375 216.835938 90.96875 213.796875 86.460938 215.144531 C 84.507812 215.296875 82.351562 217.195312 80.625 215.394531 C 80.097656 214.042969 79.625 212.585938 79.25 211.386719 Z M 75.546875 218.941406 C 78.925781 218.941406 82.929688 218.964844 86.386719 218.890625 L 86.386719 222.566406 C 83.679688 222.492188 80.601562 222.417969 77.898438 222.34375 C 77.21875 221.441406 76.222656 219.917969 75.546875 218.941406 Z M 75.546875 218.941406 "/>
<path style=" stroke:none;fill-rule:nonzero;fill:rgb(96.078431%,84.313725%,46.27451%);fill-opacity:1;" d="M 138.929688 214.785156 C 138.402344 211.710938 141.144531 211.761719 143.023438 211.3125 C 147.378906 211.011719 153.375 211.335938 157.730469 211.335938 C 157.949219 213.511719 157.046875 215.027344 154.945312 214.949219 C 149.761719 215.101562 144.039062 215.085938 138.929688 214.785156 Z M 166.761719 211.558594 C 174.796875 210.882812 183.464844 209.992188 191.65625 210.441406 C 193.90625 210.890625 195.859375 212.917969 197.738281 214.117188 C 192.253906 216.820312 185.449219 216.503906 179.515625 215.679688 C 175.007812 215.078125 169.816406 215.949219 165.386719 214.597656 C 165.6875 213.996094 166.460938 212.085938 166.761719 211.558594 Z M 137.667969 217.914062 C 145.707031 217.238281 154.027344 217.375 161.914062 218.949219 C 169.277344 217.976562 177.863281 218.785156 185.222656 217.511719 C 188.304688 217.734375 193.96875 217.210938 193.21875 222.011719 C 189.761719 222.460938 186.027344 220.453125 182.496094 220.75 C 175.585938 221.203125 168.691406 221.742188 161.855469 220.242188 C 154.042969 221.890625 145.765625 221.066406 137.878906 221.515625 C 137.804688 220.765625 137.742188 218.664062 137.667969 217.914062 Z M 137.667969 217.914062 "/>
<path style=" stroke:none;fill-rule:nonzero;fill:rgb(99.607843%,99.607843%,99.607843%);fill-opacity:1;" d="M 202.816406 209.660156 C 207.851562 209.4375 214.835938 210.5625 219.792969 211.085938 C 219.792969 213.113281 220.492188 217.53125 219.515625 219.484375 C 213.429688 220.609375 205.371094 224.144531 199.136719 224.292969 C 199.285156 222.644531 199.234375 218.761719 199.234375 217.113281 C 199.910156 216.660156 202.214844 215.589844 202.96875 215.136719 C 203.191406 213.261719 202.667969 211.460938 202.816406 209.660156 Z M 202.816406 209.660156 "/>
<path style=" stroke:none;fill-rule:evenodd;fill:rgb(13.72549%,12.156863%,12.54902%);fill-opacity:1;" d="M 239.625 214.089844 L 239.625 217.316406 C 228.433594 220.542969 216.414062 220.542969 205.519531 225.117188 C 200.488281 227.671875 194.929688 226.09375 189.746094 224.894531 C 185.839844 230.597656 179.605469 235.773438 172.320312 235.472656 C 166.308594 234.722656 162.101562 229.472656 159.324219 224.59375 C 153.464844 224.21875 147.457031 224.367188 141.519531 224.59375 C 138.890625 226.09375 136.863281 229.769531 133.332031 228.570312 C 130.253906 228.796875 128.75 225.570312 126.121094 224.820312 C 118.761719 224.367188 111.324219 224.742188 103.960938 225.117188 C 94.574219 225.269531 85.03125 223.769531 75.867188 226.246094 C 71.585938 227.894531 68.054688 224.445312 64.074219 223.542969 C 60.019531 223.09375 55.8125 223.394531 51.679688 223.46875 C 50.402344 235.851562 57.613281 246.878906 63.550781 257.160156 C 67.457031 264.589844 73.390625 272.542969 82.253906 273.894531 C 89.015625 275.472656 97.804688 276.222656 102.683594 270.144531 C 106.890625 260.539062 101.484375 250.183594 96.300781 242.152344 C 91.191406 244.179688 83.832031 244.027344 82.554688 250.632812 C 84.65625 252.058594 86.761719 253.410156 88.789062 254.835938 C 88.5625 252.359375 88.339844 249.957031 88.113281 247.480469 C 92.09375 248.382812 98.027344 250.78125 97.277344 255.808594 C 95.550781 259.9375 90.292969 260.839844 86.308594 261.289062 C 80 261.664062 76.921875 255.359375 74.441406 250.632812 C 71.511719 246.128906 75.269531 241.175781 79.097656 238.851562 C 82.628906 236.601562 85.332031 232.921875 89.691406 232.246094 C 97.050781 231.949219 105.765625 233.375 109.746094 240.425781 C 116.054688 250.707031 121.316406 264.589844 114.402344 275.847656 C 113.652344 278.546875 110.496094 278.847656 108.394531 280.125 C 104.9375 281.550781 102.234375 284.550781 98.402344 285 C 88.261719 286.800781 77.070312 286.578125 68.207031 280.648438 C 58.96875 273.445312 52.957031 263.164062 46.875 253.335938 C 41.691406 244.703125 39.8125 234.648438 37.933594 224.894531 L 36.132812 224.894531 C 28.320312 224.820312 20.582031 224.742188 12.769531 224.742188 L 6.160156 224.742188 C 0 222.792969 0.828125 215.738281 1.652344 210.636719 C 5.257812 208.984375 9.089844 208.011719 12.695312 206.285156 L 12.769531 206.285156 C 16.148438 205.308594 19.378906 206.960938 22.761719 207.035156 C 27.269531 206.285156 32.074219 206.359375 36.132812 204.109375 C 36.28125 204.03125 36.507812 203.882812 36.65625 203.808594 C 36.730469 199.90625 36.433594 196.003906 36.433594 192.101562 C 36.730469 186.324219 38.910156 180.84375 39.960938 175.21875 C 41.089844 168.988281 43.117188 162.984375 45.972656 157.28125 C 50.628906 144.300781 58.589844 131.542969 71.136719 125.015625 C 77.296875 122.238281 83.757812 120.289062 90.367188 119.011719 C 99.90625 118.710938 109.21875 120.964844 118.160156 124.265625 C 119.4375 124.789062 120.714844 125.242188 121.992188 125.765625 C 122.667969 117.285156 124.996094 108.882812 129.050781 101.304688 C 130.855469 98.675781 133.707031 97.175781 136.261719 95.523438 C 141.296875 91.773438 147.980469 93.347656 153.839844 93.574219 C 160.828125 96.351562 165.933594 102.203125 169.691406 108.582031 C 171.644531 110.832031 173.445312 114.210938 176.375 114.886719 C 180.054688 112.035156 183.210938 108.507812 187.566406 106.78125 C 197.183594 103.328125 208.300781 101.828125 217.765625 106.554688 C 222.949219 111.285156 224.828125 118.636719 225.726562 125.316406 C 224.75 137.921875 220.167969 150.679688 211.003906 159.609375 C 208.449219 160.808594 205.746094 161.785156 203.117188 162.761719 C 204.242188 165.613281 206.046875 168.089844 207.324219 170.789062 C 208.074219 172.214844 208.601562 173.792969 208.828125 175.441406 C 209.425781 178.667969 205.972656 180.394531 204.019531 182.347656 C 194.855469 190.449219 182.308594 192.777344 170.589844 194.578125 C 168.039062 194.050781 165.558594 193.152344 163.003906 192.550781 C 164.355469 196.828125 165.933594 201.03125 167.8125 205.160156 C 168.863281 204.632812 169.992188 204.183594 171.042969 203.734375 L 171.042969 206.207031 C 168.9375 206.058594 166.761719 205.910156 164.582031 205.757812 C 162.855469 202.007812 161.425781 198.105469 158.875 194.804688 C 157.519531 193.226562 155.34375 193.078125 154.066406 194.878906 C 155.792969 200.28125 161.578125 202.90625 163.980469 207.933594 C 162.929688 210.261719 160.300781 212.585938 162.101562 215.136719 C 162.703125 210.1875 166.761719 207.785156 171.042969 206.207031 C 174.195312 207.410156 177.652344 207.257812 181.03125 207.484375 C 178.328125 204.933594 174.648438 204.109375 171.117188 203.734375 C 172.46875 203.207031 173.820312 202.683594 175.171875 202.082031 C 179.457031 202.382812 182.835938 205.082031 186.292969 207.410156 C 194.027344 207.558594 201.839844 206.285156 209.578125 207.632812 C 219.71875 210.1875 230.835938 208.535156 239.625 214.089844 Z M 74.367188 223.09375 C 70.835938 219.414062 65.351562 215.964844 66.703125 209.960938 C 68.957031 206.882812 73.539062 207.632812 76.84375 206.660156 C 74.589844 203.734375 71.585938 201.03125 70.609375 197.429688 C 70.308594 191.875 72.9375 186.773438 74.816406 181.746094 C 76.242188 182.046875 77.597656 182.269531 79.023438 182.570312 C 79.171875 184.523438 79.398438 186.546875 79.550781 188.5 C 84.355469 191.125 89.914062 191.277344 95.023438 192.925781 C 102.085938 195.253906 109.671875 194.425781 116.808594 192.777344 C 116.730469 191.125 116.582031 189.476562 116.582031 187.824219 C 117.332031 184.824219 118.984375 180.171875 123.042969 181.894531 C 122.742188 185.796875 122.214844 189.625 122.066406 193.527344 C 122.140625 197.054688 123.945312 200.054688 126.121094 202.757812 C 126.046875 200.730469 125.898438 198.628906 125.746094 196.605469 C 125.144531 191.125 125.296875 185.421875 128.375 180.695312 C 129.277344 180.621094 131.15625 180.46875 132.054688 180.394531 C 131.304688 184.222656 130.328125 187.898438 129.503906 191.652344 C 131.304688 191.875 133.183594 192.101562 134.984375 192.328125 C 142.347656 193.152344 149.859375 191.277344 156.320312 187.824219 C 158.121094 186.847656 160 185.722656 161.804688 184.746094 C 165.332031 186.773438 169.316406 189.023438 173.597656 187.75 C 183.886719 185.347656 195.378906 183.320312 203.191406 175.515625 C 202.515625 173.941406 201.914062 172.367188 201.238281 170.789062 L 200.789062 169.664062 C 198.160156 165.386719 196.054688 160.433594 191.699219 157.65625 C 187.492188 155.183594 182.609375 154.207031 178.253906 152.03125 C 173.597656 155.933594 171.492188 161.859375 166.984375 165.914062 C 161.804688 169.363281 155.191406 170.039062 149.183594 168.914062 C 142.421875 167.339844 136.789062 162.835938 131.378906 158.707031 C 128.148438 156.15625 126.496094 152.253906 125.21875 148.429688 C 124.394531 145.875 123.71875 143.25 123.042969 140.699219 C 122.214844 137.320312 122.441406 132.894531 118.683594 131.394531 L 118.234375 131.167969 C 109.746094 127.265625 100.355469 124.414062 90.96875 124.941406 C 82.628906 127.566406 73.464844 129.292969 67.078125 135.597656 C 57.164062 144.449219 51.605469 156.984375 47.097656 169.214844 C 46.875 169.964844 46.496094 171.390625 46.273438 172.140625 C 46.121094 172.664062 45.898438 173.640625 45.746094 174.089844 C 44.242188 180.09375 41.613281 185.648438 40.113281 191.574219 C 39.738281 194.953125 39.960938 198.253906 40.339844 201.632812 C 40.414062 202.308594 40.488281 203.582031 40.488281 204.183594 C 42.515625 204.183594 44.542969 204.257812 46.574219 204.332031 C 50.78125 197.054688 53.484375 188.574219 60.46875 183.246094 C 62.121094 181.519531 63.550781 179.644531 65.277344 178.070312 C 67.457031 176.792969 68.808594 179.269531 70.007812 180.695312 C 63.925781 187.449219 66.027344 197.804688 70.683594 204.78125 C 67.457031 207.183594 64.375 209.660156 61.898438 212.738281 C 63.625 218.367188 69.332031 221.066406 74.367188 223.09375 Z M 157.445312 211.535156 C 153.089844 211.535156 148.808594 211.3125 144.449219 211.613281 C 142.574219 212.0625 138.667969 211.460938 139.191406 214.539062 C 144.300781 214.839844 149.410156 214.839844 154.589844 214.6875 C 156.695312 214.761719 157.597656 213.710938 157.445312 211.535156 Z M 178.402344 145.875 C 186.96875 147.976562 196.28125 151.730469 200.488281 160.132812 C 203.945312 156.457031 208.148438 153.679688 211.832031 150.230469 C 218.140625 140.925781 223.472656 128.691406 218.667969 117.660156 C 216.9375 110.308594 208.449219 107.757812 201.765625 108.582031 C 192.976562 110.082031 183.285156 113.234375 178.628906 121.5625 C 178.78125 129.59375 179.980469 137.773438 178.402344 145.875 Z M 129.351562 141.824219 C 130.179688 146.175781 130.929688 151.730469 135.511719 153.832031 L 135.363281 154.730469 C 141.820312 161.183594 151.363281 165.160156 160.449219 162.535156 C 163.832031 160.660156 167.363281 158.410156 169.015625 154.65625 C 174.648438 143.023438 175.625 129.292969 171.792969 116.984375 C 168.339844 114.511719 165.109375 111.734375 163.003906 107.90625 C 158.949219 102.203125 152.039062 96.199219 144.527344 98.902344 C 136.863281 99.953125 131.457031 106.707031 129.351562 113.757812 C 126.496094 122.765625 125.519531 132.96875 129.351562 141.824219 Z M 19.457031 222.492188 C 18.253906 219.714844 16.601562 217.089844 15.925781 214.164062 C 15.398438 211.160156 19.378906 209.886719 19.605469 206.960938 C 17.351562 207.410156 15.023438 207.484375 12.769531 207.183594 C 12.46875 207.183594 12.242188 207.183594 11.945312 207.109375 C 10.367188 209.734375 8.488281 212.136719 5.785156 213.636719 C 3.15625 215.363281 4.28125 219.117188 4.730469 221.667969 C 7.4375 222.117188 10.066406 222.265625 12.769531 222.34375 C 15.023438 222.34375 17.203125 222.417969 19.457031 222.492188 Z M 26.214844 208.460938 C 24.9375 208.609375 23.585938 208.683594 22.308594 208.761719 C 21.484375 210.636719 20.582031 212.585938 19.53125 214.386719 C 20.433594 216.789062 21.632812 218.964844 23.136719 221.066406 C 23.511719 220.917969 24.414062 220.542969 24.863281 220.316406 C 21.632812 216.488281 24.1875 212.0625 26.214844 208.460938 Z M 29.144531 215.214844 C 30.574219 213.488281 32.226562 211.835938 32.601562 209.585938 L 31.550781 210.035156 L 31.25 209.210938 C 31.171875 209.511719 30.949219 210.109375 30.796875 210.410156 L 29.972656 211.386719 C 29.820312 211.613281 29.597656 211.910156 29.445312 212.0625 C 27.492188 213.710938 27.867188 216.265625 27.644531 218.515625 C 27.945312 219.117188 28.621094 220.242188 28.921875 220.765625 C 32.300781 222.792969 31.699219 215.363281 29.144531 215.214844 Z M 36.132812 214.539062 C 42.890625 214.6875 49.726562 214.839844 56.488281 215.136719 L 57.691406 212.4375 C 54.835938 209.210938 50.179688 210.710938 46.421875 210.1875 C 43.269531 210.410156 38.761719 209.886719 36.132812 211.910156 C 35.378906 212.511719 34.78125 213.335938 34.402344 214.464844 C 35.003906 214.539062 35.53125 214.539062 36.132812 214.539062 Z M 63.472656 187.449219 C 62.121094 187.824219 60.769531 188.125 59.417969 188.425781 C 56.414062 193.753906 52.355469 199.230469 53.257812 205.683594 C 57.464844 205.683594 61.820312 205.609375 65.726562 203.582031 C 62.648438 198.703125 61.597656 193 63.472656 187.449219 Z M 46.273438 224.21875 C 45.371094 224.144531 43.792969 223.917969 42.96875 223.769531 C 43.492188 230.597656 44.84375 237.5 47.171875 243.953125 C 51.679688 251.910156 55.4375 260.3125 61.21875 267.367188 C 67.15625 273.292969 73.089844 280.722656 82.253906 281.175781 C 88.9375 281.175781 96.300781 282.675781 102.308594 278.847656 C 110.046875 275.246094 114.480469 265.566406 111.472656 257.386719 C 108.921875 250.558594 107.117188 242.601562 100.582031 238.402344 C 91.417969 232.921875 77.671875 242.003906 79.550781 252.734375 C 81.050781 254.382812 82.628906 256.035156 84.132812 257.6875 C 87.8125 258.210938 91.945312 258.363281 94.496094 255.058594 C 93.445312 253.785156 92.621094 252.433594 91.566406 251.234375 C 91.566406 253.035156 91.644531 254.835938 91.71875 256.5625 C 87.210938 259.335938 83.15625 254.910156 79.550781 252.734375 C 79.097656 241.929688 95.550781 234.425781 101.859375 244.328125 C 105.539062 252.734375 110.875 262.414062 106.589844 271.570312 C 99.90625 281.847656 84.28125 282.898438 74.816406 275.921875 C 70.386719 272.542969 65.652344 269.242188 62.796875 264.363281 C 60.09375 259.636719 57.765625 254.757812 54.910156 250.105469 C 50.027344 242.226562 49.804688 232.621094 46.273438 224.21875 Z M 61.296875 220.765625 C 60.921875 220.390625 60.320312 219.714844 60.019531 219.339844 C 52.054688 219.039062 44.09375 217.164062 36.132812 218.441406 C 36.433594 218.964844 36.882812 220.015625 37.183594 220.542969 C 45.144531 221.367188 53.257812 220.765625 61.296875 220.765625 Z M 150.761719 200.128906 C 149.410156 198.855469 148.882812 196.304688 146.78125 196.078125 C 142.722656 196.605469 138.667969 197.277344 134.535156 197.054688 L 130.027344 197.054688 C 129.804688 199.53125 129.804688 202.007812 129.804688 204.484375 C 130.78125 205.007812 132.808594 206.132812 133.785156 206.660156 C 135.210938 204.03125 137.914062 202.980469 140.621094 202.230469 C 144.675781 208.835938 152.636719 208.011719 159.324219 207.859375 C 156.542969 205.234375 153.164062 203.132812 150.761719 200.128906 Z M 118.984375 198.703125 C 112.449219 199.003906 105.914062 198.78125 99.378906 199.003906 C 98.554688 202.082031 97.503906 205.082031 96.902344 208.160156 C 106.214844 208.984375 115.605469 208.683594 124.921875 208.535156 C 123.492188 205.007812 122.140625 201.105469 118.984375 198.703125 Z M 94.046875 197.503906 L 92.769531 198.179688 C 91.71875 202.007812 89.316406 204.632812 86.085938 206.808594 C 88.488281 207.257812 90.890625 207.410156 93.371094 207.632812 C 95.851562 204.78125 94.273438 200.882812 94.046875 197.503906 Z M 75.566406 192.851562 C 74.667969 197.578125 75.71875 202.230469 78.421875 206.207031 C 80.449219 204.632812 82.554688 202.90625 84.882812 201.632812 C 85.183594 199.832031 85.558594 198.105469 86.007812 196.378906 C 83.230469 193.753906 79.023438 193.902344 75.566406 192.851562 Z M 80.527344 215.136719 C 82.253906 216.941406 84.507812 214.839844 86.460938 214.6875 C 90.96875 213.335938 95.25 216.339844 99.757812 216.339844 C 108.394531 216.5625 117.03125 216.488281 125.671875 216.1875 C 125.597656 215.214844 125.445312 213.1875 125.371094 212.210938 C 113.878906 212.210938 102.007812 210.410156 90.816406 213.710938 C 87.660156 213.636719 84.730469 212.210938 81.652344 211.6875 C 79.550781 208.835938 74.066406 210.863281 70.609375 210.035156 C 71.136719 211.613281 71.585938 213.261719 72.039062 214.839844 C 74.816406 214.914062 77.597656 214.988281 80.527344 215.136719 Z M 126.273438 220.464844 C 112.976562 219.566406 99.679688 219.339844 86.386719 219.191406 C 82.929688 219.265625 79.550781 219.191406 76.167969 219.191406 C 76.84375 220.089844 77.519531 221.066406 78.195312 221.96875 C 80.902344 222.042969 83.679688 222.191406 86.386719 222.265625 C 99.378906 222.34375 112.300781 222.566406 125.296875 222.117188 C 125.519531 221.742188 125.972656 220.917969 126.273438 220.464844 Z M 135.8125 226.167969 C 134.683594 222.492188 133.257812 218.816406 132.730469 214.988281 L 132.808594 214.464844 C 134.007812 210.109375 138.515625 208.835938 142.121094 207.109375 C 139.945312 201.855469 134.609375 206.285156 132.207031 209.058594 C 130.402344 207.484375 128.75 205.832031 127.25 203.957031 C 131.90625 210.863281 128.074219 221.21875 135.8125 226.167969 Z M 183.511719 225.945312 C 181.410156 221.816406 177.804688 227.445312 175.25 228.496094 C 170.742188 226.996094 166.535156 224.96875 162.253906 223.09375 C 165.03125 225.792969 167.285156 229.246094 170.890625 230.972656 C 175.550781 232.023438 180.132812 228.945312 183.511719 225.945312 Z M 184.113281 218.066406 C 176.75 219.339844 169.238281 218.441406 161.878906 219.414062 C 153.992188 217.839844 145.953125 217.539062 137.914062 218.214844 C 137.992188 218.964844 138.066406 220.464844 138.140625 221.21875 C 146.027344 220.765625 154.066406 221.515625 161.878906 219.867188 C 168.714844 221.367188 175.699219 220.765625 182.609375 220.316406 C 186.140625 220.015625 189.371094 222.191406 192.828125 221.742188 C 193.503906 216.941406 187.117188 218.289062 184.113281 218.066406 Z M 197.257812 214.089844 C 195.378906 212.886719 193.652344 211.085938 191.398438 210.636719 C 183.210938 210.1875 175.171875 211.3125 167.136719 211.988281 C 166.835938 212.585938 166.234375 213.710938 165.933594 214.238281 C 170.367188 215.589844 175.097656 214.761719 179.605469 215.363281 C 185.464844 216.113281 191.773438 216.789062 197.257812 214.089844 Z M 219.042969 212.585938 C 214.085938 212.0625 209.351562 210.1875 204.320312 210.410156 C 204.167969 212.210938 203.945312 214.011719 203.792969 215.8125 C 203.042969 216.265625 201.613281 217.238281 200.9375 217.691406 C 200.9375 219.339844 200.863281 221.066406 200.714844 222.71875 C 206.949219 222.566406 212.65625 219.867188 218.742188 218.742188 C 219.71875 216.789062 219.117188 214.539062 219.042969 212.585938 Z M 219.042969 212.585938 "/>
</g>
</svg>
