<?xml version="1.0" encoding="UTF-8"?>
<svg xmlns="http://www.w3.org/2000/svg" xmlns:xlink="http://www.w3.org/1999/xlink" width="400px" height="px" viewBox="0 0 400 400" version="1.1">
<g id="surface1">
<path style=" stroke:none;fill-rule:evenodd;fill:rgb(0%,0%,0%);fill-opacity:1;" d="M 74.957031 71.183594 C 87.332031 81.242188 91.976562 80.472656 115.21875 78.921875 L 334.335938 65.765625 C 338.980469 65.765625 335.117188 61.128906 333.566406 60.359375 L 297.179688 34.050781 C 290.203125 28.636719 280.914062 22.4375 263.109375 23.988281 L 50.941406 39.464844 C 43.203125 40.230469 41.65625 44.101562 44.738281 47.203125 Z M 88.113281 122.25 L 88.113281 352.796875 C 88.113281 365.1875 94.304688 369.824219 108.238281 369.058594 L 349.046875 355.121094 C 362.992188 354.355469 364.542969 345.835938 364.542969 335.769531 L 364.542969 106.769531 C 364.542969 96.71875 360.679688 91.300781 352.144531 92.074219 L 100.496094 106.769531 C 91.207031 107.546875 88.109375 112.195312 88.109375 122.25 Z M 325.835938 134.617188 C 327.382812 141.585938 325.835938 148.550781 318.855469 149.332031 L 307.25 151.644531 L 307.25 321.851562 C 297.179688 327.265625 287.886719 330.359375 280.148438 330.359375 C 267.753906 330.359375 264.648438 326.488281 255.367188 314.890625 L 179.472656 195.746094 L 179.472656 311.023438 L 203.488281 316.441406 C 203.488281 316.441406 203.488281 330.359375 184.113281 330.359375 L 130.695312 333.460938 C 129.144531 330.359375 130.695312 322.628906 136.113281 321.082031 L 150.054688 317.21875 L 150.054688 164.800781 L 130.699219 163.25 C 129.148438 156.28125 133.015625 146.230469 143.863281 145.453125 L 201.164062 141.589844 L 280.148438 262.285156 L 280.148438 155.515625 L 260.007812 153.203125 C 258.464844 144.683594 264.648438 138.496094 272.394531 137.726562 Z M 33.125 18.578125 L 253.816406 2.324219 C 280.917969 0 287.890625 1.558594 304.925781 13.929688 L 375.371094 63.445312 C 386.996094 71.960938 390.871094 74.277344 390.871094 83.558594 L 390.871094 355.121094 C 390.871094 372.140625 384.671875 382.207031 362.996094 383.746094 L 106.707031 399.222656 C 90.433594 400 82.691406 397.679688 74.167969 386.84375 L 22.289062 319.535156 C 12.996094 307.144531 9.128906 297.875 9.128906 287.03125 L 9.128906 45.644531 C 9.128906 31.726562 15.332031 20.117188 33.125 18.578125 Z M 33.125 18.578125 "/>
</g>
</svg>
