<?xml version="1.0" encoding="UTF-8"?>
<svg xmlns="http://www.w3.org/2000/svg" xmlns:xlink="http://www.w3.org/1999/xlink" width="400px" height="px" viewBox="0 0 400 58" version="1.1">
<g id="surface1">
<path style=" stroke:none;fill-rule:evenodd;fill:rgb(16.078431%,24.313725%,25.098039%);fill-opacity:1;" d="M 98.714844 17.546875 C 94.554688 17.546875 90.992188 19.035156 88.019531 21.414062 L 88.019531 18.144531 L 77.921875 18.144531 L 77.921875 56.511719 L 88.316406 56.511719 L 88.316406 32.125 C 89.804688 30.042969 93.367188 27.363281 97.824219 27.363281 C 99.308594 27.363281 100.792969 27.660156 101.980469 27.957031 L 101.980469 18.144531 C 100.792969 17.847656 99.605469 17.546875 98.714844 17.546875 M 9.605469 44.617188 C 12.28125 46.996094 16.4375 48.480469 20.003906 48.480469 C 22.675781 48.480469 25.050781 46.996094 25.050781 45.210938 C 25.050781 39.261719 6.339844 41.34375 6.339844 29.148438 C 6.339844 21.710938 13.46875 17.25 20.894531 17.25 C 25.941406 17.25 31.289062 19.035156 33.960938 21.117188 L 29.210938 28.554688 C 27.132812 27.363281 24.753906 25.875 21.785156 25.875 C 18.8125 25.875 16.734375 27.066406 16.734375 29.148438 C 16.734375 34.207031 35.449219 32.125 35.449219 45.507812 C 35.449219 52.945312 28.320312 57.40625 20.300781 57.40625 C 14.953125 57.40625 9.308594 55.621094 4.855469 52.347656 Z M 73.46875 36.882812 C 73.46875 26.175781 66.042969 17.25 55.347656 17.25 C 44.0625 17.25 36.636719 26.769531 36.636719 37.179688 C 36.636719 49.375 45.25 57.109375 56.535156 57.109375 C 62.476562 57.109375 68.417969 54.726562 72.277344 50.265625 L 66.339844 44.316406 C 64.554688 46.398438 60.992188 48.78125 56.832031 48.78125 C 51.488281 48.78125 47.03125 44.914062 46.4375 39.558594 L 72.871094 39.558594 C 73.46875 38.964844 73.46875 38.070312 73.46875 36.882812 Z M 47.328125 32.421875 C 47.921875 28.851562 51.488281 25.578125 55.644531 25.578125 C 59.804688 25.578125 62.773438 28.851562 63.367188 32.421875 Z M 125.742188 41.640625 L 136.140625 18.144531 L 146.832031 18.144531 L 129.308594 56.511719 L 122.179688 56.511719 L 104.953125 18.144531 L 115.347656 18.144531 Z M 155.445312 0 C 159.308594 0 162.277344 2.972656 162.277344 6.542969 C 162.277344 10.410156 159.308594 13.085938 155.445312 13.085938 C 151.585938 13.085938 148.910156 10.113281 148.910156 6.542969 C 148.910156 2.675781 151.585938 0 155.445312 0 M 150.398438 18.144531 L 160.792969 18.144531 L 160.792969 56.511719 L 150.398438 56.511719 Z M 202.671875 48.480469 C 198.21875 54.429688 192.574219 57.109375 185.445312 57.109375 C 173.566406 57.109375 164.949219 48.183594 164.949219 37.179688 C 164.949219 25.875 173.863281 17.25 185.445312 17.25 C 192.277344 17.25 197.921875 20.523438 201.484375 24.984375 L 194.949219 31.230469 C 192.871094 28.554688 189.902344 26.769531 186.335938 26.769531 C 180.394531 26.769531 175.941406 31.527344 175.941406 37.179688 C 175.941406 43.128906 180.097656 47.589844 186.335938 47.589844 C 190.496094 47.589844 193.761719 45.210938 195.542969 42.535156 Z M 239.800781 50.265625 C 235.941406 54.726562 230 57.109375 224.058594 57.109375 C 212.773438 57.109375 204.160156 49.375 204.160156 37.179688 C 204.160156 26.472656 211.285156 17.25 222.871094 17.25 C 233.265625 17.25 240.988281 26.175781 240.988281 36.882812 C 240.988281 38.070312 240.988281 38.964844 240.691406 39.855469 L 213.960938 39.855469 C 214.554688 45.210938 219.007812 49.078125 224.355469 49.078125 C 228.515625 49.078125 232.078125 46.699219 233.859375 44.617188 Z M 230.296875 32.421875 C 230 29.148438 227.03125 25.578125 222.574219 25.578125 C 218.414062 25.578125 214.851562 28.851562 214.257812 32.421875 Z M 244.851562 56.511719 L 244.851562 18.144531 L 254.652344 18.144531 L 254.652344 21.414062 C 257.621094 19.035156 261.1875 17.546875 265.34375 17.546875 C 270.691406 17.546875 275.445312 19.929688 278.710938 23.792969 C 281.089844 26.769531 282.871094 30.636719 282.871094 37.179688 L 282.871094 56.808594 L 272.472656 56.808594 L 272.472656 36.289062 C 272.472656 32.421875 271.582031 30.339844 270.097656 29.148438 C 268.613281 27.660156 266.832031 26.769531 264.15625 26.769531 C 260 26.769531 256.433594 29.445312 254.652344 31.527344 L 254.652344 56.511719 Z M 244.851562 56.511719 "/>
<path style=" stroke:none;fill-rule:evenodd;fill:rgb(50.588235%,70.980392%,63.137255%);fill-opacity:1;" d="M 309.007812 17.25 C 296.535156 17.25 286.730469 27.066406 286.730469 39.558594 C 286.730469 46.101562 289.40625 52.050781 293.5625 56.214844 C 295.046875 57.703125 297.722656 57.703125 299.503906 56.511719 C 301.878906 54.429688 305.445312 53.242188 309.007812 53.242188 C 312.871094 53.242188 315.839844 54.429688 318.511719 56.511719 C 320.296875 58 322.671875 57.703125 324.453125 55.917969 C 328.613281 51.753906 331.285156 46.101562 331.285156 39.558594 C 330.988281 27.363281 321.1875 17.25 309.007812 17.25 M 308.710938 51.160156 C 301.878906 51.160156 297.425781 46.101562 297.425781 39.855469 C 297.425781 33.609375 301.878906 28.554688 308.710938 28.554688 C 315.542969 28.554688 320 33.609375 320 39.855469 C 320 46.101562 315.542969 51.160156 308.710938 51.160156 "/>
<path style=" stroke:none;fill-rule:evenodd;fill:rgb(16.078431%,24.313725%,25.098039%);fill-opacity:1;" d="M 351.484375 56.511719 L 343.761719 56.511719 L 328.613281 18.144531 L 338.710938 18.144531 L 347.027344 40.152344 L 355.34375 18.144531 L 363.660156 18.144531 L 371.679688 40.152344 L 379.996094 18.144531 L 390.394531 18.144531 L 375.246094 56.511719 L 367.523438 56.511719 L 359.207031 34.800781 Z M 351.484375 56.511719 "/>
<path style=" stroke:none;fill-rule:nonzero;fill:rgb(16.078431%,24.313725%,25.098039%);fill-opacity:1;" d="M 390.394531 52.050781 L 389.503906 52.050781 L 389.503906 53.539062 L 388.910156 53.539062 L 388.910156 49.078125 L 390.691406 49.078125 C 391.582031 49.078125 391.878906 49.671875 391.878906 50.5625 C 391.878906 51.160156 391.582031 51.457031 391.285156 51.753906 L 392.472656 53.242188 L 391.582031 53.242188 Z M 389.503906 50.863281 L 390.691406 50.863281 C 391.285156 50.863281 391.285156 50.5625 391.285156 50.265625 C 391.285156 49.671875 390.988281 49.671875 390.691406 49.671875 L 389.503906 49.671875 Z M 389.503906 50.863281 "/>
<path style=" stroke:none;fill-rule:nonzero;fill:rgb(16.078431%,24.313725%,25.098039%);fill-opacity:1;" d="M 390.394531 47.292969 C 392.769531 47.292969 394.550781 49.078125 394.550781 51.457031 C 394.550781 53.835938 392.769531 55.621094 390.394531 55.621094 C 388.015625 55.621094 386.234375 53.835938 386.234375 51.457031 C 386.234375 49.078125 388.3125 47.292969 390.394531 47.292969 M 390.394531 46.699219 C 387.71875 46.699219 385.640625 49.078125 385.640625 51.457031 C 385.640625 54.132812 388.015625 56.214844 390.394531 56.214844 C 393.066406 56.214844 395.144531 53.835938 395.144531 51.457031 C 395.144531 49.078125 392.769531 46.699219 390.394531 46.699219 Z M 390.394531 46.699219 "/>
</g>
</svg>
