<?xml version="1.0" encoding="UTF-8"?>
<svg xmlns="http://www.w3.org/2000/svg" xmlns:xlink="http://www.w3.org/1999/xlink" width="400px" height="px" viewBox="0 0 399 328" version="1.1">
<g id="surface1">
<path style=" stroke:none;fill-rule:nonzero;fill:rgb(0%,0%,0%);fill-opacity:1;" d="M 7.792969 0.015625 L 391.207031 0.015625 C 395.511719 0.015625 399 3.511719 399 7.828125 L 399 319.144531 C 399 323.457031 395.511719 326.953125 391.207031 326.953125 L 7.792969 326.953125 C 3.488281 326.953125 0 323.457031 0 319.144531 L 0 7.828125 C 0 3.511719 3.488281 0.015625 7.792969 0.015625 Z M 7.792969 0.015625 "/>
<path style=" stroke:none;fill-rule:nonzero;fill:rgb(100%,100%,100%);fill-opacity:1;" d="M 44.015625 34.023438 C 42.683594 32.6875 41.074219 32.015625 39.1875 32.015625 C 37.300781 32.015625 35.6875 32.691406 34.339844 34.042969 C 33.011719 35.371094 32.339844 36.988281 32.339844 38.878906 C 32.339844 40.769531 33.011719 42.390625 34.339844 43.71875 L 55.292969 64.710938 L 34.359375 85.683594 C 33.011719 87.035156 32.339844 88.652344 32.320312 90.542969 C 32.339844 92.433594 33.011719 94.050781 34.339844 95.378906 C 35.6875 96.710938 37.300781 97.386719 39.167969 97.40625 C 41.074219 97.40625 42.691406 96.730469 44.035156 95.378906 L 67.3125 72.035156 C 72.199219 67.160156 72.199219 62.265625 67.3125 57.367188 Z M 135.265625 85.722656 C 133.917969 84.375 132.28125 83.699219 130.378906 83.699219 L 130.378906 83.6875 L 85.4375 83.6875 L 85.4375 83.699219 C 83.53125 83.699219 81.914062 84.375 80.570312 85.722656 C 79.222656 87.070312 78.550781 88.691406 78.550781 90.601562 C 78.550781 92.507812 79.222656 94.148438 80.570312 95.496094 C 81.917969 96.84375 83.53125 97.519531 85.4375 97.519531 L 85.4375 97.511719 L 130.375 97.511719 L 130.375 97.519531 C 132.28125 97.519531 133.914062 96.84375 135.261719 95.496094 C 136.609375 94.148438 137.28125 92.507812 137.28125 90.601562 C 137.28125 88.691406 136.609375 87.070312 135.261719 85.722656 Z M 135.265625 85.722656 "/>
</g>
</svg>
