<?xml version="1.0" encoding="UTF-8"?>
<svg xmlns="http://www.w3.org/2000/svg" xmlns:xlink="http://www.w3.org/1999/xlink" width="400px" height="px" viewBox="0 0 399 114" version="1.1">
<defs>
<linearGradient id="linear0" gradientUnits="userSpaceOnUse" x1="0.50048" y1="1" x2="0.50048" y2="0" gradientTransform="matrix(80.046875,0,0,80.03125,0.0117188,16.304688)">
<stop offset="0" style="stop-color:rgb(0%,32.156863%,80%);stop-opacity:1;"/>
<stop offset="1" style="stop-color:rgb(14.901961%,51.764706%,100%);stop-opacity:1;"/>
</linearGradient>
</defs>
<g id="surface1">
<path style=" stroke:none;fill-rule:evenodd;fill:url(#linear0);" d="M 70.558594 16.304688 L 9.527344 16.304688 C 4.277344 16.304688 0.015625 20.558594 0.0117188 25.8125 L 0.0117188 86.777344 C 0 89.308594 0.996094 91.738281 2.785156 93.535156 C 4.570312 95.328125 6.996094 96.335938 9.527344 96.335938 L 70.558594 96.335938 C 73.085938 96.332031 75.507812 95.320312 77.289062 93.527344 C 79.074219 91.734375 80.070312 89.304688 80.058594 86.777344 L 80.058594 25.8125 C 80.050781 20.5625 75.800781 16.3125 70.558594 16.304688 Z M 34.535156 73.949219 C 34.53125 74.792969 34.191406 75.605469 33.589844 76.199219 C 32.988281 76.792969 32.171875 77.125 31.328125 77.117188 L 17.988281 77.117188 C 16.246094 77.109375 14.835938 75.691406 14.835938 73.949219 L 14.835938 34.242188 C 14.835938 32.496094 16.246094 31.078125 17.988281 31.070312 L 31.328125 31.070312 C 33.074219 31.078125 34.488281 32.492188 34.496094 34.242188 Z M 65.3125 55.71875 C 65.3125 56.5625 64.972656 57.375 64.371094 57.972656 C 63.769531 58.566406 62.953125 58.894531 62.105469 58.886719 L 48.769531 58.886719 C 47.023438 58.878906 45.609375 57.464844 45.601562 55.71875 L 45.601562 34.242188 C 45.609375 32.492188 47.023438 31.078125 48.769531 31.070312 L 62.105469 31.070312 C 63.851562 31.078125 65.261719 32.496094 65.261719 34.242188 Z M 65.3125 55.71875 "/>
<path style=" stroke:none;fill-rule:nonzero;fill:rgb(16.078431%,21.960784%,33.72549%);fill-opacity:1;" d="M 165.878906 22.167969 L 165.878906 37.640625 L 147.554688 37.640625 L 147.554688 96.335938 L 129.882812 96.335938 L 129.882812 37.640625 L 111.554688 37.640625 L 111.554688 22.167969 Z M 188.375 96.335938 L 172.035156 96.335938 L 172.035156 38.601562 L 188.375 38.601562 L 188.375 49.660156 C 191.476562 41.875 196.441406 37.242188 205.277344 37.808594 L 205.277344 54.910156 C 193.734375 54.011719 188.375 56.832031 188.375 66.082031 Z M 294.535156 96.785156 C 283.824219 96.785156 277.09375 91.652344 277.09375 79.515625 L 277.09375 16.304688 L 293.546875 16.304688 L 293.546875 77.257812 C 293.546875 80.761719 295.855469 82.003906 298.675781 82.003906 C 299.488281 82.019531 300.304688 81.984375 301.113281 81.890625 L 301.113281 96.117188 C 298.960938 96.640625 296.746094 96.867188 294.535156 96.785156 Z M 328.851562 96.785156 C 318.144531 96.785156 311.398438 91.652344 311.398438 79.515625 L 311.398438 16.304688 L 327.851562 16.304688 L 327.851562 77.257812 C 327.851562 80.761719 330.171875 82.003906 333.042969 82.003906 C 333.855469 82.019531 334.664062 81.984375 335.46875 81.890625 L 335.46875 96.117188 C 333.304688 96.644531 331.078125 96.871094 328.851562 96.785156 Z M 343.355469 67.441406 C 343.355469 49.609375 353.613281 37.410156 371.285156 37.410156 C 388.957031 37.410156 399 49.570312 399 67.441406 C 399 85.316406 388.84375 97.695312 371.285156 97.695312 C 353.730469 97.695312 343.355469 85.160156 343.355469 67.441406 Z M 359.371094 67.441406 C 359.371094 76.128906 363.015625 83.019531 371.285156 83.019531 C 379.558594 83.019531 382.996094 76.128906 382.996094 67.441406 C 382.996094 58.757812 379.46875 52.046875 371.285156 52.046875 C 363.105469 52.046875 359.371094 58.746094 359.371094 67.441406 Z M 227.332031 72.664062 C 231.910156 73.167969 236.503906 73.4375 241.105469 73.472656 C 253.625 73.472656 264.191406 70.113281 264.191406 57.988281 C 264.191406 46.222656 253.328125 37.382812 240.261719 37.382812 C 222.664062 37.382812 211.394531 50.148438 211.394531 67.980469 C 211.394531 86.496094 221.113281 97.488281 243.082031 97.488281 C 249.597656 97.542969 256.070312 96.386719 262.164062 94.078125 L 262.164062 80.246094 C 256.523438 82.054688 250.175781 83.851562 243.660156 83.851562 C 234.914062 83.851562 228.820312 80.976562 227.332031 72.664062 Z M 239.925781 49.980469 C 244.558594 49.980469 248.277344 53.125 248.277344 57.421875 C 248.277344 62.953125 242.441406 64.683594 235.722656 64.683594 C 232.859375 64.671875 230.007812 64.445312 227.179688 64.003906 C 227.394531 61.308594 228.167969 58.6875 229.449219 56.308594 C 231.546875 52.464844 235.554688 50.058594 239.925781 50.007812 Z M 239.925781 49.980469 "/>
</g>
</svg>
