<?xml version="1.0" encoding="UTF-8"?>
<svg xmlns="http://www.w3.org/2000/svg" xmlns:xlink="http://www.w3.org/1999/xlink" width="400px" height="px" viewBox="0 0 399 391" version="1.1">
<g id="surface1">
<path style=" stroke:none;fill-rule:evenodd;fill:rgb(0%,0%,0%);fill-opacity:1;" d="M 203.835938 199.84375 C 210.34375 199.84375 215.222656 194.414062 215.222656 188.441406 C 215.222656 182.46875 210.34375 177.039062 203.835938 177.039062 C 197.332031 177.039062 192.453125 182.46875 192.453125 188.441406 C 192.453125 194.414062 197.332031 199.84375 203.835938 199.84375 Z M 169.683594 168.351562 C 176.1875 168.351562 181.066406 162.921875 181.066406 156.949219 C 181.066406 150.433594 176.1875 145.546875 169.683594 145.546875 C 163.179688 145.546875 158.300781 150.976562 158.300781 156.949219 C 158.300781 163.464844 163.179688 168.351562 169.683594 168.351562 Z M 203.835938 168.351562 C 210.34375 168.351562 215.222656 162.921875 215.222656 156.949219 C 215.222656 150.433594 210.34375 145.546875 203.835938 145.546875 C 197.332031 145.546875 192.453125 150.976562 192.453125 156.949219 C 192.453125 163.464844 197.332031 168.351562 203.835938 168.351562 Z M 237.992188 168.351562 C 244.496094 168.351562 249.375 162.921875 249.375 156.949219 C 249.375 150.433594 244.496094 145.546875 237.992188 145.546875 C 231.484375 145.546875 226.605469 150.976562 226.605469 156.949219 C 226.605469 163.464844 232.027344 168.351562 237.992188 168.351562 Z M 169.683594 137.402344 C 176.1875 137.402344 181.066406 131.972656 181.066406 126 C 181.066406 119.484375 176.1875 114.597656 169.683594 114.597656 C 163.179688 114.597656 158.300781 120.027344 158.300781 126 C 158.300781 132.515625 163.179688 137.402344 169.683594 137.402344 Z M 203.835938 137.402344 C 210.34375 137.402344 215.222656 131.972656 215.222656 126 C 215.222656 119.484375 210.34375 114.597656 203.835938 114.597656 C 197.332031 114.597656 192.453125 120.027344 192.453125 126 C 192.453125 132.515625 197.332031 137.402344 203.835938 137.402344 Z M 237.992188 137.402344 C 244.496094 137.402344 249.375 131.972656 249.375 126 C 249.375 119.484375 244.496094 114.597656 237.992188 114.597656 C 231.484375 114.597656 226.605469 120.027344 226.605469 126 C 226.605469 132.515625 232.027344 137.402344 237.992188 137.402344 Z M 203.835938 106.453125 C 210.34375 106.453125 215.222656 101.023438 215.222656 95.050781 C 215.222656 88.535156 210.34375 83.644531 203.835938 83.644531 C 197.332031 83.644531 192.453125 89.078125 192.453125 95.050781 C 192.453125 101.023438 197.332031 106.453125 203.835938 106.453125 Z M 237.992188 106.453125 C 244.496094 106.453125 249.375 101.023438 249.375 95.050781 C 249.375 88.535156 244.496094 83.644531 237.992188 83.644531 C 231.484375 83.644531 226.605469 89.078125 226.605469 95.050781 C 226.605469 101.023438 232.027344 106.453125 237.992188 106.453125 Z M 169.683594 106.453125 C 176.1875 106.453125 181.066406 101.023438 181.066406 95.050781 C 181.066406 88.535156 176.1875 83.644531 169.683594 83.644531 C 163.179688 83.644531 158.300781 89.078125 158.300781 95.050781 C 158.300781 101.023438 163.179688 106.453125 169.683594 106.453125 Z M 199.5 390.972656 L 0 0.0273438 L 399 0.0273438 Z M 199.5 390.972656 "/>
</g>
</svg>
