<?xml version="1.0" encoding="UTF-8"?>
<svg xmlns="http://www.w3.org/2000/svg" xmlns:xlink="http://www.w3.org/1999/xlink" width="400px" height="px" viewBox="0 0 400 393" version="1.1">
<g id="surface1">
<path style=" stroke:none;fill-rule:nonzero;fill:rgb(14.117647%,53.72549%,79.215686%);fill-opacity:1;" d="M 11.429688 140.488281 C 11.429688 140.488281 1.960938 133.65625 13.324219 124.539062 L 39.796875 100.855469 C 39.796875 100.855469 47.375 92.882812 55.382812 99.828125 L 299.679688 284.882812 L 299.679688 373.617188 C 299.679688 373.617188 299.5625 387.550781 281.6875 386.011719 Z M 11.429688 140.488281 "/>
<path style=" stroke:none;fill-rule:nonzero;fill:rgb(6.27451%,43.921569%,70.196078%);fill-opacity:1;" d="M 74.398438 197.683594 L 11.429688 254.960938 C 11.429688 254.960938 4.960938 259.777344 11.429688 268.382812 L 40.667969 294.988281 C 40.667969 294.988281 47.609375 302.449219 57.867188 293.960938 L 124.625 243.316406 Z M 74.398438 197.683594 "/>
<path style=" stroke:none;fill-rule:nonzero;fill:rgb(3.137255%,46.666667%,72.54902%);fill-opacity:1;" d="M 184.949219 198.15625 L 300.429688 109.933594 L 299.679688 21.671875 C 299.679688 21.671875 294.746094 2.40625 278.296875 12.433594 L 124.625 152.367188 Z M 184.949219 198.15625 "/>
<path style=" stroke:none;fill-rule:nonzero;fill:rgb(23.529412%,60%,83.137255%);fill-opacity:1;" d="M 281.6875 386.132812 C 288.394531 393 296.523438 390.75 296.523438 390.75 L 386.515625 346.382812 C 398.039062 338.527344 396.417969 328.777344 396.417969 328.777344 L 396.417969 63.828125 C 396.417969 52.183594 384.503906 48.15625 384.503906 48.15625 L 306.503906 10.539062 C 289.460938 0 278.296875 12.433594 278.296875 12.433594 C 278.296875 12.433594 292.65625 2.09375 299.679688 21.671875 L 299.679688 372 C 299.679688 374.40625 299.167969 376.777344 298.140625 378.90625 C 296.089844 383.050781 291.632812 386.921875 280.9375 385.300781 Z M 281.6875 386.132812 "/>
</g>
</svg>
